<svg width="1440" height="836" viewBox="0 0 1440 836" fill="none" xmlns="http://www.w3.org/2000/svg">
<path d="M0 -44H1442V800C1442 800 1083.5 800 782 800C761.114 800 740.5 835.5 722 835.5C703.747 835.5 682.451 800.5 662 800.5C422.5 800.5 0 800 0 800V-44Z" fill="#050E2E"/>
<path d="M0 -44H1442V800C1442 800 1083.5 800 782 800C761.114 800 740.5 835.5 722 835.5C703.747 835.5 682.451 800.5 662 800.5C422.5 800.5 0 800 0 800V-44Z" fill="url(#paint0_radial)"/>
<path d="M722 819.25C721.681 819.248 721.366 819.176 721.079 819.037C720.791 818.899 720.538 818.698 720.337 818.45L715.075 812.075C714.767 811.691 714.574 811.229 714.517 810.74C714.459 810.252 714.54 809.757 714.75 809.313C714.92 808.926 715.198 808.597 715.551 808.364C715.903 808.131 716.315 808.005 716.737 808H727.262C727.685 808.005 728.097 808.131 728.449 808.364C728.802 808.597 729.08 808.926 729.25 809.313C729.46 809.757 729.541 810.252 729.483 810.74C729.426 811.229 729.233 811.691 728.925 812.075L723.662 818.45C723.462 818.698 723.209 818.899 722.921 819.037C722.634 819.176 722.319 819.248 722 819.25Z" fill="white"/>
<defs>
<radialGradient id="paint0_radial" cx="0" cy="0" r="1" gradientUnits="userSpaceOnUse" gradientTransform="translate(938 131.5) rotate(145.595) scale(399.97 399.089)">
<stop stop-color="#986D9F"/>
<stop offset="0.348958" stop-color="#95589F" stop-opacity="0.6875"/>
<stop offset="1" stop-color="#AF59BD" stop-opacity="0"/>
</radialGradient>
</defs>
</svg>
