<svg width="95" height="33" viewBox="0 0 95 33" fill="none" xmlns="http://www.w3.org/2000/svg">
<g filter="url(#filter0_d)">
<rect x="4" width="87" height="25" rx="4" fill="#050E2E"/>
<path d="M21.0738 17.12C20.4258 17.12 19.7978 17.028 19.1898 16.844C18.5898 16.66 18.1138 16.416 17.7618 16.112L18.3018 14.9C18.6458 15.172 19.0658 15.396 19.5618 15.572C20.0658 15.74 20.5698 15.824 21.0738 15.824C21.6978 15.824 22.1618 15.724 22.4658 15.524C22.7778 15.324 22.9338 15.06 22.9338 14.732C22.9338 14.492 22.8458 14.296 22.6698 14.144C22.5018 13.984 22.2858 13.86 22.0218 13.772C21.7578 13.684 21.3978 13.584 20.9418 13.472C20.3018 13.32 19.7818 13.168 19.3818 13.016C18.9898 12.864 18.6498 12.628 18.3618 12.308C18.0818 11.98 17.9418 11.54 17.9418 10.988C17.9418 10.524 18.0658 10.104 18.3138 9.728C18.5698 9.344 18.9498 9.04 19.4538 8.816C19.9658 8.592 20.5898 8.48 21.3258 8.48C21.8378 8.48 22.3418 8.544 22.8378 8.672C23.3338 8.8 23.7618 8.984 24.1218 9.224L23.6298 10.436C23.2618 10.22 22.8778 10.056 22.4778 9.944C22.0778 9.832 21.6898 9.776 21.3138 9.776C20.6978 9.776 20.2378 9.88 19.9338 10.088C19.6378 10.296 19.4898 10.572 19.4898 10.916C19.4898 11.156 19.5738 11.352 19.7418 11.504C19.9178 11.656 20.1378 11.776 20.4018 11.864C20.6658 11.952 21.0258 12.052 21.4818 12.164C22.1058 12.308 22.6178 12.46 23.0178 12.62C23.4178 12.772 23.7578 13.008 24.0378 13.328C24.3258 13.648 24.4698 14.08 24.4698 14.624C24.4698 15.088 24.3418 15.508 24.0858 15.884C23.8378 16.26 23.4578 16.56 22.9458 16.784C22.4338 17.008 21.8098 17.12 21.0738 17.12ZM26.0167 8.6H27.5767V17H26.0167V8.6ZM35.5847 12.704H37.0607V16.052C36.6287 16.396 36.1247 16.66 35.5487 16.844C34.9727 17.028 34.3807 17.12 33.7727 17.12C32.9167 17.12 32.1447 16.936 31.4567 16.568C30.7687 16.192 30.2287 15.676 29.8367 15.02C29.4447 14.364 29.2487 13.624 29.2487 12.8C29.2487 11.976 29.4447 11.236 29.8367 10.58C30.2287 9.924 30.7687 9.412 31.4567 9.044C32.1527 8.668 32.9327 8.48 33.7967 8.48C34.5007 8.48 35.1407 8.596 35.7167 8.828C36.2927 9.06 36.7767 9.4 37.1687 9.848L36.1847 10.808C35.5447 10.168 34.7727 9.848 33.8687 9.848C33.2767 9.848 32.7487 9.972 32.2847 10.22C31.8287 10.468 31.4687 10.816 31.2047 11.264C30.9487 11.712 30.8207 12.224 30.8207 12.8C30.8207 13.36 30.9487 13.864 31.2047 14.312C31.4687 14.76 31.8287 15.112 32.2847 15.368C32.7487 15.624 33.2727 15.752 33.8567 15.752C34.5127 15.752 35.0887 15.608 35.5847 15.32V12.704ZM46.5822 8.6V17H45.2982L40.6662 11.312V17H39.1182V8.6H40.4022L45.0342 14.288V8.6H46.5822ZM56.0735 17.12C55.2175 17.12 54.4455 16.936 53.7575 16.568C53.0695 16.192 52.5295 15.676 52.1375 15.02C51.7455 14.356 51.5495 13.616 51.5495 12.8C51.5495 11.984 51.7455 11.248 52.1375 10.592C52.5295 9.928 53.0695 9.412 53.7575 9.044C54.4455 8.668 55.2175 8.48 56.0735 8.48C56.9295 8.48 57.7015 8.668 58.3895 9.044C59.0775 9.412 59.6175 9.924 60.0095 10.58C60.4015 11.236 60.5975 11.976 60.5975 12.8C60.5975 13.624 60.4015 14.364 60.0095 15.02C59.6175 15.676 59.0775 16.192 58.3895 16.568C57.7015 16.936 56.9295 17.12 56.0735 17.12ZM56.0735 15.752C56.6335 15.752 57.1375 15.628 57.5855 15.38C58.0335 15.124 58.3855 14.772 58.6415 14.324C58.8975 13.868 59.0255 13.36 59.0255 12.8C59.0255 12.24 58.8975 11.736 58.6415 11.288C58.3855 10.832 58.0335 10.48 57.5855 10.232C57.1375 9.976 56.6335 9.848 56.0735 9.848C55.5135 9.848 55.0095 9.976 54.5615 10.232C54.1135 10.48 53.7615 10.832 53.5055 11.288C53.2495 11.736 53.1215 12.24 53.1215 12.8C53.1215 13.36 53.2495 13.868 53.5055 14.324C53.7615 14.772 54.1135 15.124 54.5615 15.38C55.0095 15.628 55.5135 15.752 56.0735 15.752ZM65.863 17.12C64.703 17.12 63.799 16.796 63.151 16.148C62.503 15.492 62.179 14.556 62.179 13.34V8.6H63.739V13.28C63.739 14.928 64.451 15.752 65.875 15.752C67.291 15.752 67.999 14.928 67.999 13.28V8.6H69.535V13.34C69.535 14.556 69.211 15.492 68.563 16.148C67.923 16.796 67.023 17.12 65.863 17.12ZM73.2715 9.92H70.4875V8.6H77.6155V9.92H74.8315V17H73.2715V9.92Z" fill="white"/>
<path d="M19.1898 16.844L19.1312 17.0352L19.1319 17.0354L19.1898 16.844ZM17.7618 16.112L17.5791 16.0306C17.5432 16.1112 17.5643 16.2057 17.6311 16.2634L17.7618 16.112ZM18.3018 14.9L18.4258 14.7431C18.3774 14.7048 18.314 14.691 18.254 14.7058C18.194 14.7206 18.1442 14.7622 18.1191 14.8186L18.3018 14.9ZM19.5618 15.572L19.4949 15.7605L19.4986 15.7617L19.5618 15.572ZM22.4658 15.524L22.3579 15.3556L22.3559 15.3569L22.4658 15.524ZM22.6698 14.144L22.5317 14.289L22.5391 14.2954L22.6698 14.144ZM22.0218 13.772L22.085 13.5823L22.085 13.5823L22.0218 13.772ZM20.9418 13.472L20.9895 13.2778L20.988 13.2774L20.9418 13.472ZM19.3818 13.016L19.3095 13.2025L19.3108 13.203L19.3818 13.016ZM18.3618 12.308L18.2096 12.4379L18.2131 12.4418L18.3618 12.308ZM18.3138 9.728L18.1474 9.61706L18.1468 9.61788L18.3138 9.728ZM19.4538 8.816L19.3736 8.63276L19.3726 8.63324L19.4538 8.816ZM22.8378 8.672L22.7878 8.86566L22.7878 8.86566L22.8378 8.672ZM24.1218 9.224L24.3071 9.29923C24.3428 9.21124 24.3117 9.11027 24.2327 9.05759L24.1218 9.224ZM23.6298 10.436L23.5286 10.6085C23.5787 10.6379 23.6391 10.6441 23.6941 10.6254C23.7491 10.6067 23.7933 10.5651 23.8151 10.5112L23.6298 10.436ZM22.4778 9.944L22.4239 10.1366L22.4239 10.1366L22.4778 9.944ZM19.9338 10.088L19.8209 9.92293L19.8188 9.92436L19.9338 10.088ZM19.7418 11.504L19.6076 11.6523L19.6111 11.6554L19.7418 11.504ZM20.4018 11.864L20.465 11.6743L20.465 11.6743L20.4018 11.864ZM21.4818 12.164L21.4341 12.3582L21.4368 12.3589L21.4818 12.164ZM23.0178 12.62L22.9435 12.8057L22.9468 12.807L23.0178 12.62ZM24.0378 13.328L23.8873 13.4597L23.8891 13.4618L24.0378 13.328ZM24.0858 15.884L23.9205 15.7714L23.9188 15.7739L24.0858 15.884ZM22.9458 16.784L22.8656 16.6008L22.8656 16.6008L22.9458 16.784ZM21.0738 16.92C20.445 16.92 19.8366 16.8308 19.2477 16.6526L19.1319 17.0354C19.759 17.2252 20.4066 17.32 21.0738 17.32V16.92ZM19.2484 16.6528C18.6662 16.4742 18.2175 16.2413 17.8925 15.9606L17.6311 16.2634C18.01 16.5907 18.5134 16.8458 19.1312 17.0352L19.2484 16.6528ZM17.9445 16.1934L18.4845 14.9814L18.1191 14.8186L17.5791 16.0306L17.9445 16.1934ZM18.1777 15.0569C18.542 15.3449 18.9823 15.5786 19.4949 15.7605L19.6287 15.3835C19.1493 15.2134 18.7496 14.9991 18.4258 14.7431L18.1777 15.0569ZM19.4986 15.7617C20.0218 15.9362 20.5472 16.024 21.0738 16.024V15.624C20.5924 15.624 20.1098 15.5438 19.625 15.3823L19.4986 15.7617ZM21.0738 16.024C21.7121 16.024 22.2232 15.923 22.5757 15.6911L22.3559 15.3569C22.1004 15.525 21.6835 15.624 21.0738 15.624V16.024ZM22.5737 15.6924C22.9343 15.4612 23.1338 15.138 23.1338 14.732H22.7338C22.7338 14.982 22.6213 15.1868 22.3579 15.3556L22.5737 15.6924ZM23.1338 14.732C23.1338 14.436 23.0221 14.184 22.8005 13.9926L22.5391 14.2954C22.6695 14.408 22.7338 14.548 22.7338 14.732H23.1338ZM22.8077 13.9992C22.6146 13.8153 22.3715 13.6777 22.085 13.5823L21.9586 13.9617C22.2001 14.0423 22.389 14.1527 22.5319 14.2888L22.8077 13.9992ZM22.085 13.5823C21.8136 13.4918 21.4477 13.3903 20.9895 13.2778L20.8941 13.6662C21.3479 13.7777 21.702 13.8762 21.9586 13.9617L22.085 13.5823ZM20.988 13.2774C20.3525 13.1265 19.8417 12.9768 19.4528 12.829L19.3108 13.203C19.7219 13.3592 20.2511 13.5135 20.8956 13.6666L20.988 13.2774ZM19.4541 12.8295C19.092 12.6891 18.778 12.4715 18.5105 12.1742L18.2131 12.4418C18.5216 12.7845 18.8875 13.0389 19.3095 13.2025L19.4541 12.8295ZM18.5139 12.1781C18.2727 11.8955 18.1418 11.506 18.1418 10.988H17.7418C17.7418 11.574 17.8909 12.0645 18.2097 12.4379L18.5139 12.1781ZM18.1418 10.988C18.1418 10.5619 18.255 10.1804 18.4808 9.83812L18.1468 9.61788C17.8766 10.0276 17.7418 10.4861 17.7418 10.988H18.1418ZM18.4802 9.83894C18.7114 9.49215 19.0588 9.21041 19.535 8.99876L19.3726 8.63324C18.8408 8.86959 18.4282 9.19585 18.1474 9.61706L18.4802 9.83894ZM19.534 8.99923C20.014 8.7892 20.6091 8.68 21.3258 8.68V8.28C20.5705 8.28 19.9176 8.3948 19.3736 8.63277L19.534 8.99923ZM21.3258 8.68C21.8209 8.68 22.3081 8.74187 22.7878 8.86566L22.8878 8.47834C22.3755 8.34613 21.8547 8.28 21.3258 8.28V8.68ZM22.7878 8.86566C23.266 8.98906 23.6726 9.16489 24.0109 9.39041L24.2327 9.05759C23.851 8.80311 23.4016 8.61094 22.8878 8.47834L22.7878 8.86566ZM23.9365 9.14877L23.4445 10.3608L23.8151 10.5112L24.3071 9.29923L23.9365 9.14877ZM23.731 10.2635C23.3486 10.039 22.9487 9.86817 22.5317 9.75141L22.4239 10.1366C22.8069 10.2438 23.175 10.401 23.5286 10.6085L23.731 10.2635ZM22.5317 9.75141C22.116 9.635 21.7098 9.576 21.3138 9.576V9.976C21.6698 9.976 22.0396 10.029 22.4239 10.1366L22.5317 9.75141ZM21.3138 9.576C20.6819 9.576 20.1738 9.68148 19.8209 9.92294L20.0467 10.2531C20.3018 10.0785 20.7137 9.976 21.3138 9.976V9.576ZM19.8188 9.92436C19.4728 10.1675 19.2898 10.503 19.2898 10.916H19.6898C19.6898 10.641 19.8028 10.4245 20.0488 10.2516L19.8188 9.92436ZM19.2898 10.916C19.2898 11.2087 19.395 11.4599 19.6076 11.6523L19.876 11.3557C19.7526 11.2441 19.6898 11.1033 19.6898 10.916H19.2898ZM19.6111 11.6554C19.8103 11.8274 20.0545 11.9591 20.3386 12.0537L20.465 11.6743C20.2211 11.5929 20.0253 11.4846 19.8725 11.3526L19.6111 11.6554ZM20.3386 12.0537C20.61 12.1442 20.9759 12.2457 21.4341 12.3582L21.5295 11.9698C21.0757 11.8583 20.7216 11.7598 20.465 11.6743L20.3386 12.0537ZM21.4368 12.3589C22.0551 12.5016 22.5564 12.6509 22.9435 12.8057L23.0921 12.4343C22.6792 12.2691 22.1564 12.1144 21.5268 11.9691L21.4368 12.3589ZM22.9468 12.807C23.3163 12.9474 23.629 13.1645 23.8873 13.4597L24.1883 13.1963C23.8866 12.8515 23.5193 12.5966 23.0888 12.433L22.9468 12.807ZM23.8891 13.4618C24.1361 13.7361 24.2698 14.1159 24.2698 14.624H24.6698C24.6698 14.0441 24.5155 13.5599 24.1865 13.1942L23.8891 13.4618ZM24.2698 14.624C24.2698 15.0487 24.1534 15.4293 23.9205 15.7714L24.2511 15.9966C24.5302 15.5867 24.6698 15.1273 24.6698 14.624H24.2698ZM23.9188 15.7739C23.6967 16.1107 23.3508 16.3885 22.8656 16.6008L23.026 16.9672C23.5648 16.7315 23.9789 16.4093 24.2528 15.9941L23.9188 15.7739ZM22.8656 16.6008C22.3856 16.8108 21.7905 16.92 21.0738 16.92V17.32C21.8291 17.32 22.482 17.2052 23.026 16.9672L22.8656 16.6008ZM26.0167 8.6V8.4C25.9062 8.4 25.8167 8.48954 25.8167 8.6H26.0167ZM27.5767 8.6H27.7767C27.7767 8.48954 27.6871 8.4 27.5767 8.4V8.6ZM27.5767 17V17.2C27.6871 17.2 27.7767 17.1105 27.7767 17H27.5767ZM26.0167 17H25.8167C25.8167 17.1105 25.9062 17.2 26.0167 17.2V17ZM26.0167 8.8H27.5767V8.4H26.0167V8.8ZM27.3767 8.6V17H27.7767V8.6H27.3767ZM27.5767 16.8H26.0167V17.2H27.5767V16.8ZM26.2167 17V8.6H25.8167V17H26.2167ZM35.5847 12.704V12.504C35.4742 12.504 35.3847 12.5935 35.3847 12.704H35.5847ZM37.0607 12.704H37.2607C37.2607 12.5935 37.1712 12.504 37.0607 12.504V12.704ZM37.0607 16.052L37.1853 16.2085C37.2329 16.1705 37.2607 16.1129 37.2607 16.052H37.0607ZM35.5487 16.844L35.4878 16.6535L35.4878 16.6535L35.5487 16.844ZM31.4567 16.568L31.3608 16.7435L31.3624 16.7444L31.4567 16.568ZM29.8367 15.02L29.665 15.1226L29.665 15.1226L29.8367 15.02ZM29.8367 10.58L29.665 10.4774L29.665 10.4774L29.8367 10.58ZM31.4567 9.044L31.551 9.22036L31.5518 9.21996L31.4567 9.044ZM35.7167 8.828L35.7914 8.64248L35.7914 8.64248L35.7167 8.828ZM37.1687 9.848L37.3084 9.99116C37.3844 9.91696 37.3892 9.79626 37.3192 9.7163L37.1687 9.848ZM36.1847 10.808L36.0433 10.9494C36.1207 11.0268 36.246 11.0276 36.3244 10.9512L36.1847 10.808ZM32.2847 10.22L32.1904 10.0436L32.1891 10.0443L32.2847 10.22ZM31.2047 11.264L31.0324 11.1625L31.0311 11.1648L31.2047 11.264ZM31.2047 14.312L31.031 14.4112L31.0324 14.4135L31.2047 14.312ZM32.2847 15.368L32.1868 15.5424L32.1881 15.5431L32.2847 15.368ZM35.5847 15.32L35.6851 15.493C35.7468 15.4572 35.7847 15.3913 35.7847 15.32H35.5847ZM35.5847 12.904H37.0607V12.504H35.5847V12.904ZM36.8607 12.704V16.052H37.2607V12.704H36.8607ZM36.9361 15.8955C36.5248 16.223 36.0429 16.4762 35.4878 16.6535L35.6096 17.0345C36.2065 16.8438 36.7326 16.569 37.1853 16.2085L36.9361 15.8955ZM35.4878 16.6535C34.9316 16.8312 34.3602 16.92 33.7727 16.92V17.32C34.4012 17.32 35.0138 17.2248 35.6096 17.0345L35.4878 16.6535ZM33.7727 16.92C32.9463 16.92 32.2073 16.7427 31.551 16.3916L31.3624 16.7444C32.0821 17.1293 32.8871 17.32 33.7727 17.32V16.92ZM31.5526 16.3925C30.8951 16.0331 30.3816 15.542 30.0084 14.9174L29.665 15.1226C30.0758 15.81 30.6423 16.3509 31.3608 16.7435L31.5526 16.3925ZM30.0084 14.9174C29.6364 14.2948 29.4487 13.5908 29.4487 12.8H29.0487C29.0487 13.6572 29.253 14.4332 29.665 15.1226L30.0084 14.9174ZM29.4487 12.8C29.4487 12.0092 29.6364 11.3052 30.0084 10.6826L29.665 10.4774C29.253 11.1668 29.0487 11.9428 29.0487 12.8H29.4487ZM30.0084 10.6826C30.3814 10.0584 30.8943 9.57162 31.551 9.22036L31.3624 8.86764C30.6431 9.25238 30.076 9.78958 29.665 10.4774L30.0084 10.6826ZM31.5518 9.21996C32.2159 8.86116 32.9628 8.68 33.7967 8.68V8.28C32.9026 8.28 32.0895 8.47484 31.3616 8.86804L31.5518 9.21996ZM33.7967 8.68C34.4785 8.68 35.0927 8.79228 35.642 9.01352L35.7914 8.64248C35.1887 8.39972 34.5229 8.28 33.7967 8.28V8.68ZM35.642 9.01352C36.1901 9.2343 36.6478 9.55637 37.0182 9.9797L37.3192 9.7163C36.9056 9.24363 36.3953 8.8857 35.7914 8.64248L35.642 9.01352ZM37.029 9.70484L36.045 10.6648L36.3244 10.9512L37.3084 9.99116L37.029 9.70484ZM36.3261 10.6666C35.6487 9.98912 34.8258 9.648 33.8687 9.648V10.048C34.7196 10.048 35.4407 10.3469 36.0433 10.9494L36.3261 10.6666ZM33.8687 9.648C33.248 9.648 32.6869 9.77825 32.1904 10.0436L32.379 10.3964C32.8105 10.1657 33.3054 10.048 33.8687 10.048V9.648ZM32.1891 10.0443C31.7013 10.3096 31.3148 10.6833 31.0324 11.1625L31.377 11.3655C31.6227 10.9487 31.9561 10.6264 32.3803 10.3957L32.1891 10.0443ZM31.0311 11.1648C30.7558 11.6464 30.6207 12.1933 30.6207 12.8H31.0207C31.0207 12.2547 31.1416 11.7776 31.3784 11.3632L31.0311 11.1648ZM30.6207 12.8C30.6207 13.3917 30.7563 13.9305 31.0311 14.4112L31.3784 14.2128C31.1411 13.7975 31.0207 13.3283 31.0207 12.8H30.6207ZM31.0324 14.4135C31.3144 14.8921 31.7002 15.2692 32.1868 15.5424L32.3826 15.1936C31.9572 14.9548 31.623 14.6279 31.377 14.2105L31.0324 14.4135ZM32.1881 15.5431C32.6846 15.8171 33.2424 15.952 33.8567 15.952V15.552C33.303 15.552 32.8128 15.4309 32.3813 15.1929L32.1881 15.5431ZM33.8567 15.952C34.5428 15.952 35.1545 15.8011 35.6851 15.493L35.4843 15.147C35.0229 15.4149 34.4826 15.552 33.8567 15.552V15.952ZM35.7847 15.32V12.704H35.3847V15.32H35.7847ZM46.5822 8.6H46.7822C46.7822 8.48954 46.6927 8.4 46.5822 8.4V8.6ZM46.5822 17V17.2C46.6927 17.2 46.7822 17.1105 46.7822 17H46.5822ZM45.2982 17L45.1432 17.1263C45.1811 17.1729 45.2381 17.2 45.2982 17.2V17ZM40.6662 11.312L40.8213 11.1857C40.7679 11.1201 40.6789 11.0952 40.5992 11.1236C40.5195 11.1519 40.4662 11.2274 40.4662 11.312H40.6662ZM40.6662 17V17.2C40.7767 17.2 40.8662 17.1105 40.8662 17H40.6662ZM39.1182 17H38.9182C38.9182 17.1105 39.0078 17.2 39.1182 17.2V17ZM39.1182 8.6V8.4C39.0078 8.4 38.9182 8.48954 38.9182 8.6H39.1182ZM40.4022 8.6L40.5573 8.47371C40.5193 8.42707 40.4624 8.4 40.4022 8.4V8.6ZM45.0342 14.288L44.8792 14.4143C44.9326 14.4799 45.0215 14.5048 45.1013 14.4764C45.181 14.4481 45.2342 14.3726 45.2342 14.288H45.0342ZM45.0342 8.6V8.4C44.9238 8.4 44.8342 8.48954 44.8342 8.6H45.0342ZM46.3822 8.6V17H46.7822V8.6H46.3822ZM46.5822 16.8H45.2982V17.2H46.5822V16.8ZM45.4533 16.8737L40.8213 11.1857L40.5112 11.4383L45.1432 17.1263L45.4533 16.8737ZM40.4662 11.312V17H40.8662V11.312H40.4662ZM40.6662 16.8H39.1182V17.2H40.6662V16.8ZM39.3182 17V8.6H38.9182V17H39.3182ZM39.1182 8.8H40.4022V8.4H39.1182V8.8ZM40.2472 8.72629L44.8792 14.4143L45.1893 14.1617L40.5573 8.47371L40.2472 8.72629ZM45.2342 14.288V8.6H44.8342V14.288H45.2342ZM45.0342 8.8H46.5822V8.4H45.0342V8.8ZM53.7575 16.568L53.6616 16.7435L53.6632 16.7444L53.7575 16.568ZM52.1375 15.02L51.9653 15.1217L51.9658 15.1226L52.1375 15.02ZM52.1375 10.592L52.3092 10.6946L52.3097 10.6937L52.1375 10.592ZM53.7575 9.044L53.8518 9.22036L53.8534 9.2195L53.7575 9.044ZM58.3895 9.044L58.2936 9.21951L58.2952 9.22036L58.3895 9.044ZM60.0095 10.58L59.8378 10.6826L59.8378 10.6826L60.0095 10.58ZM60.0095 15.02L59.8378 14.9174L59.8378 14.9174L60.0095 15.02ZM58.3895 16.568L58.4838 16.7444L58.4854 16.7435L58.3895 16.568ZM57.5855 15.38L57.6824 15.555L57.6847 15.5536L57.5855 15.38ZM58.6415 14.324L58.8151 14.4232L58.8159 14.4219L58.6415 14.324ZM58.6415 11.288L58.4671 11.3859L58.4678 11.3872L58.6415 11.288ZM57.5855 10.232L57.4862 10.4057L57.4886 10.407L57.5855 10.232ZM54.5615 10.232L54.6584 10.407L54.6607 10.4056L54.5615 10.232ZM53.5055 11.288L53.6791 11.3872L53.6799 11.3859L53.5055 11.288ZM53.5055 14.324L53.3311 14.4219L53.3318 14.4232L53.5055 14.324ZM54.5615 15.38L54.4622 15.5537L54.4646 15.555L54.5615 15.38ZM56.0735 16.92C55.2471 16.92 54.508 16.7427 53.8518 16.3916L53.6632 16.7444C54.3829 17.1293 55.1878 17.32 56.0735 17.32V16.92ZM53.8534 16.3925C53.1959 16.0331 52.6824 15.542 52.3092 14.9174L51.9658 15.1226C52.3766 15.81 52.9431 16.3509 53.6616 16.7435L53.8534 16.3925ZM52.3097 14.9183C51.937 14.2869 51.7495 13.5824 51.7495 12.8H51.3495C51.3495 13.6496 51.554 14.4251 51.9653 15.1217L52.3097 14.9183ZM51.7495 12.8C51.7495 12.0176 51.937 11.3175 52.3092 10.6946L51.9658 10.4894C51.554 11.1785 51.3495 11.9504 51.3495 12.8H51.7495ZM52.3097 10.6937C52.6828 10.0616 53.1957 9.57129 53.8518 9.22036L53.6632 8.86764C52.9432 9.25271 52.3761 9.79437 51.9653 10.4903L52.3097 10.6937ZM53.8534 9.2195C54.5093 8.86102 55.2479 8.68 56.0735 8.68V8.28C55.1871 8.28 54.3816 8.47498 53.6616 8.8685L53.8534 9.2195ZM56.0735 8.68C56.8991 8.68 57.6376 8.86102 58.2936 9.2195L58.4854 8.8685C57.7653 8.47498 56.9599 8.28 56.0735 8.28V8.68ZM58.2952 9.22036C58.9519 9.57162 59.4648 10.0584 59.8378 10.6826L60.1812 10.4774C59.7701 9.78958 59.2031 9.25238 58.4838 8.86764L58.2952 9.22036ZM59.8378 10.6826C60.2098 11.3052 60.3975 12.0092 60.3975 12.8H60.7975C60.7975 11.9428 60.5931 11.1668 60.1812 10.4774L59.8378 10.6826ZM60.3975 12.8C60.3975 13.5908 60.2098 14.2948 59.8378 14.9174L60.1812 15.1226C60.5931 14.4332 60.7975 13.6572 60.7975 12.8H60.3975ZM59.8378 14.9174C59.4646 15.542 58.9511 16.0331 58.2936 16.3925L58.4854 16.7435C59.2039 16.3509 59.7704 15.81 60.1812 15.1226L59.8378 14.9174ZM58.2952 16.3916C57.6389 16.7427 56.8998 16.92 56.0735 16.92V17.32C56.9591 17.32 57.764 17.1293 58.4838 16.7444L58.2952 16.3916ZM56.0735 15.952C56.6641 15.952 57.202 15.8209 57.6823 15.555L57.4886 15.205C57.073 15.4351 56.6029 15.552 56.0735 15.552V15.952ZM57.6847 15.5536C58.1637 15.2799 58.5414 14.9022 58.8151 14.4232L58.4678 14.2248C58.2296 14.6418 57.9033 14.9681 57.4863 15.2064L57.6847 15.5536ZM58.8159 14.4219C59.0899 13.9339 59.2255 13.3918 59.2255 12.8H58.8255C58.8255 13.3282 58.7051 13.8021 58.4671 14.2261L58.8159 14.4219ZM59.2255 12.8C59.2255 12.2083 59.0899 11.6695 58.8151 11.1888L58.4678 11.3872C58.7051 11.8025 58.8255 12.2717 58.8255 12.8H59.2255ZM58.8159 11.1901C58.5421 10.7024 58.1636 10.3234 57.6823 10.057L57.4886 10.407C57.9034 10.6366 58.2289 10.9616 58.4671 11.3859L58.8159 11.1901ZM57.6847 10.0584C57.2039 9.78363 56.6652 9.648 56.0735 9.648V10.048C56.6017 10.048 57.071 10.1684 57.4863 10.4056L57.6847 10.0584ZM56.0735 9.648C55.4817 9.648 54.943 9.78363 54.4623 10.0584L54.6607 10.4056C55.0759 10.1684 55.5452 10.048 56.0735 10.048V9.648ZM54.4646 10.057C53.9834 10.3234 53.6049 10.7024 53.3311 11.1901L53.6799 11.3859C53.9181 10.9616 54.2436 10.6366 54.6583 10.407L54.4646 10.057ZM53.3318 11.1888C53.0571 11.6695 52.9215 12.2083 52.9215 12.8H53.3215C53.3215 12.2717 53.4419 11.8025 53.6791 11.3872L53.3318 11.1888ZM52.9215 12.8C52.9215 13.3918 53.0571 13.9339 53.3311 14.4219L53.6799 14.2261C53.4419 13.8021 53.3215 13.3282 53.3215 12.8H52.9215ZM53.3318 14.4232C53.6056 14.9022 53.9833 15.2799 54.4623 15.5536L54.6607 15.2064C54.2437 14.9681 53.9174 14.6418 53.6791 14.2248L53.3318 14.4232ZM54.4646 15.555C54.945 15.8209 55.4829 15.952 56.0735 15.952V15.552C55.5441 15.552 55.074 15.4351 54.6583 15.205L54.4646 15.555ZM63.151 16.148L63.0088 16.2886L63.0096 16.2894L63.151 16.148ZM62.179 8.6V8.4C62.0686 8.4 61.979 8.48954 61.979 8.6H62.179ZM63.739 8.6H63.939C63.939 8.48954 63.8495 8.4 63.739 8.4V8.6ZM67.999 8.6V8.4C67.8886 8.4 67.799 8.48954 67.799 8.6H67.999ZM69.535 8.6H69.735C69.735 8.48954 69.6455 8.4 69.535 8.4V8.6ZM68.563 16.148L68.4208 16.0074L68.4207 16.0075L68.563 16.148ZM65.863 16.92C64.7413 16.92 63.8936 16.6077 63.2925 16.0066L63.0096 16.2894C63.7045 16.9843 64.6648 17.32 65.863 17.32V16.92ZM63.2933 16.0074C62.6929 15.3996 62.379 14.5207 62.379 13.34H61.979C61.979 14.5913 62.3131 15.5844 63.0088 16.2886L63.2933 16.0074ZM62.379 13.34V8.6H61.979V13.34H62.379ZM62.179 8.8H63.739V8.4H62.179V8.8ZM63.539 8.6V13.28H63.939V8.6H63.539ZM63.539 13.28C63.539 14.1283 63.7217 14.8018 64.1217 15.2648C64.5266 15.7333 65.124 15.952 65.875 15.952V15.552C65.2021 15.552 64.7315 15.3587 64.4244 15.0032C64.1124 14.6422 63.939 14.0797 63.939 13.28H63.539ZM65.875 15.952C66.6225 15.952 67.217 15.7331 67.6197 15.2643C68.0175 14.8014 68.199 14.128 68.199 13.28H67.799C67.799 14.08 67.6266 14.6426 67.3164 15.0037C67.0111 15.3589 66.5436 15.552 65.875 15.552V15.952ZM68.199 13.28V8.6H67.799V13.28H68.199ZM67.999 8.8H69.535V8.4H67.999V8.8ZM69.335 8.6V13.34H69.735V8.6H69.335ZM69.335 13.34C69.335 14.5207 69.0212 15.3996 68.4208 16.0074L68.7053 16.2886C69.4009 15.5844 69.735 14.5913 69.735 13.34H69.335ZM68.4207 16.0075C67.8279 16.6077 66.985 16.92 65.863 16.92V17.32C67.0611 17.32 68.0182 16.9843 68.7053 16.2885L68.4207 16.0075ZM73.2715 9.92H73.4715C73.4715 9.80954 73.3819 9.72 73.2715 9.72V9.92ZM70.4875 9.92H70.2875C70.2875 10.0305 70.377 10.12 70.4875 10.12V9.92ZM70.4875 8.6V8.4C70.377 8.4 70.2875 8.48954 70.2875 8.6H70.4875ZM77.6155 8.6H77.8155C77.8155 8.48954 77.7259 8.4 77.6155 8.4V8.6ZM77.6155 9.92V10.12C77.7259 10.12 77.8155 10.0305 77.8155 9.92H77.6155ZM74.8315 9.92V9.72C74.721 9.72 74.6315 9.80954 74.6315 9.92H74.8315ZM74.8315 17V17.2C74.9419 17.2 75.0315 17.1105 75.0315 17H74.8315ZM73.2715 17H73.0715C73.0715 17.1105 73.161 17.2 73.2715 17.2V17ZM73.2715 9.72H70.4875V10.12H73.2715V9.72ZM70.6875 9.92V8.6H70.2875V9.92H70.6875ZM70.4875 8.8H77.6155V8.4H70.4875V8.8ZM77.4155 8.6V9.92H77.8155V8.6H77.4155ZM77.6155 9.72H74.8315V10.12H77.6155V9.72ZM74.6315 9.92V17H75.0315V9.92H74.6315ZM74.8315 16.8H73.2715V17.2H74.8315V16.8ZM73.4715 17V9.92H73.0715V17H73.4715Z" fill="white"/>
</g>
<defs>
<filter id="filter0_d" x="0" y="0" width="95" height="33" filterUnits="userSpaceOnUse" color-interpolation-filters="sRGB">
<feFlood flood-opacity="0" result="BackgroundImageFix"/>
<feColorMatrix in="SourceAlpha" type="matrix" values="0 0 0 0 0 0 0 0 0 0 0 0 0 0 0 0 0 0 127 0"/>
<feOffset dy="4"/>
<feGaussianBlur stdDeviation="2"/>
<feColorMatrix type="matrix" values="0 0 0 0 0 0 0 0 0 0 0 0 0 0 0 0 0 0 0.25 0"/>
<feBlend mode="normal" in2="BackgroundImageFix" result="effect1_dropShadow"/>
<feBlend mode="normal" in="SourceGraphic" in2="effect1_dropShadow" result="shape"/>
</filter>
</defs>
</svg>
