<svg width="697" height="666" viewBox="0 0 697 666" fill="none" xmlns="http://www.w3.org/2000/svg">
<g opacity="0.75" filter="url(#filter0_d)">
<path d="M692.139 303.803C692.139 -107.231 214.943 -4.0942 122.5 64C10.5001 146.5 -28.3855 290.601 36 363.5C96.5001 432 126.499 429.5 153.499 510C210.23 679.142 318.371 664.127 402.149 649.891C604.99 599.157 692.139 510 692.139 303.803Z" fill="#3364D0"/>
<path d="M692.139 303.803C692.139 -107.231 214.943 -4.0942 122.5 64C10.5001 146.5 -28.3855 290.601 36 363.5C96.5001 432 126.499 429.5 153.499 510C210.23 679.142 318.371 664.127 402.149 649.891C604.99 599.157 692.139 510 692.139 303.803Z" fill="url(#paint0_linear)"/>
<path d="M692.139 303.803C692.139 -107.231 214.943 -4.0942 122.5 64C10.5001 146.5 -28.3855 290.601 36 363.5C96.5001 432 126.499 429.5 153.499 510C210.23 679.142 318.371 664.127 402.149 649.891C604.99 599.157 692.139 510 692.139 303.803Z" fill="url(#paint1_linear)"/>
</g>
<path d="M287.424 186.336C286.976 184.928 286.56 183.488 286.176 182.016C285.856 180.544 285.536 179.136 285.216 177.792C284.96 176.448 284.704 175.232 284.448 174.144C284.256 173.056 284.064 172.192 283.872 171.552C283.744 172.192 283.552 173.12 283.296 174.336C283.04 175.552 282.752 176.864 282.432 178.272C282.176 179.68 281.888 181.12 281.568 182.592C281.248 184.064 280.896 185.408 280.512 186.624L271.392 216H258.624L240.576 151.008H256.32L262.464 175.392C262.848 176.864 263.2 178.4 263.52 180C263.84 181.6 264.16 183.232 264.48 184.896C264.8 186.496 265.088 188.064 265.344 189.6C265.6 191.072 265.824 192.384 266.016 193.536C266.528 191.168 267.136 188.32 267.84 184.992C268.608 181.6 269.44 178.432 270.336 175.488L277.632 151.008H290.496L297.984 175.68C299.072 179.2 299.904 182.56 300.48 185.76C301.12 188.896 301.696 191.616 302.208 193.92C302.528 191.616 302.944 188.896 303.456 185.76C303.968 182.624 304.672 179.232 305.568 175.584L311.616 151.008H327.552L309.504 216H296.736L287.424 186.336ZM327.248 193.248C327.248 188.96 327.856 185.184 329.072 181.92C330.352 178.592 332.08 175.84 334.256 173.664C336.496 171.424 339.088 169.728 342.032 168.576C344.976 167.424 348.176 166.848 351.632 166.848C354.64 166.848 357.2 167.232 359.312 168C361.424 168.704 363.152 169.728 364.496 171.072C365.84 172.352 366.832 173.888 367.472 175.68C368.112 177.408 368.432 179.296 368.432 181.344C368.432 183.648 367.856 185.824 366.704 187.872C365.552 189.92 363.888 191.744 361.712 193.344C359.6 194.88 357.008 196.16 353.936 197.184C350.928 198.208 347.504 198.88 343.664 199.2C344.112 201.12 344.912 202.688 346.064 203.904C347.28 205.056 349.104 205.632 351.536 205.632C352.944 205.632 354.448 205.472 356.048 205.152C357.648 204.832 359.12 204.48 360.464 204.096C362.064 203.648 363.632 203.136 365.168 202.56L368.048 212.544C366.32 213.376 364.432 214.112 362.384 214.752C360.656 215.264 358.64 215.744 356.336 216.192C354.096 216.64 351.696 216.864 349.136 216.864C345.232 216.864 341.872 216.288 339.056 215.136C336.304 213.984 334.032 212.384 332.24 210.336C330.512 208.288 329.232 205.824 328.4 202.944C327.632 200 327.248 196.768 327.248 193.248ZM349.712 177.696C348.496 177.696 347.44 178.048 346.544 178.752C345.712 179.456 345.04 180.384 344.528 181.536C344.016 182.688 343.632 183.968 343.376 185.376C343.12 186.784 342.96 188.16 342.896 189.504C344.816 189.44 346.416 189.152 347.696 188.64C349.04 188.128 350.128 187.488 350.96 186.72C351.792 185.952 352.4 185.12 352.784 184.224C353.168 183.328 353.36 182.496 353.36 181.728C353.36 180.512 353.008 179.552 352.304 178.848C351.664 178.08 350.8 177.696 349.712 177.696ZM376.066 148.992L391.234 146.4V171.936C393.73 168.736 397.058 167.136 401.218 167.136C404.226 167.136 406.85 167.712 409.09 168.864C411.394 170.016 413.282 171.648 414.754 173.76C416.29 175.808 417.41 178.304 418.114 181.248C418.882 184.192 419.266 187.488 419.266 191.136C419.266 194.784 418.658 198.176 417.442 201.312C416.29 204.384 414.658 207.072 412.546 209.376C410.434 211.616 407.906 213.376 404.962 214.656C402.018 215.936 398.754 216.576 395.17 216.576C393.186 216.576 391.106 216.448 388.93 216.192C386.818 215.936 384.834 215.648 382.978 215.328C381.186 215.008 379.65 214.72 378.37 214.464C377.09 214.144 376.322 213.92 376.066 213.792V148.992ZM398.242 178.272C397.218 178.272 396.258 178.72 395.362 179.616C394.53 180.512 393.794 181.696 393.154 183.168C392.578 184.64 392.098 186.368 391.714 188.352C391.394 190.336 391.234 192.384 391.234 194.496V204.768C391.618 204.896 392.194 205.056 392.962 205.248C393.794 205.376 394.53 205.44 395.17 205.44C396.706 205.44 397.986 205.12 399.01 204.48C400.034 203.776 400.834 202.848 401.41 201.696C402.05 200.48 402.498 199.072 402.754 197.472C403.01 195.808 403.138 194.016 403.138 192.096C403.138 190.304 403.106 188.576 403.042 186.912C402.978 185.248 402.754 183.776 402.37 182.496C402.05 181.216 401.57 180.192 400.93 179.424C400.29 178.656 399.394 178.272 398.242 178.272ZM470.92 151.008H485.032L508.84 216H492.808L488.008 200.352H466.984L461.992 216H446.248L470.92 151.008ZM484.456 188.64C483.816 186.784 483.144 184.864 482.44 182.88C481.8 180.832 481.16 178.848 480.52 176.928C479.944 175.008 479.4 173.216 478.888 171.552C478.376 169.824 477.928 168.384 477.544 167.232C477.16 168.448 476.712 169.92 476.2 171.648C475.688 173.312 475.112 175.104 474.472 177.024C473.896 178.944 473.256 180.896 472.552 182.88C471.912 184.864 471.272 186.784 470.632 188.64H484.456ZM515.6 237.216V191.04C515.6 187.2 515.312 184.032 514.736 181.536C514.224 178.976 513.616 176.896 512.912 175.296C512.144 173.504 511.28 172.064 510.32 170.976L522.512 167.136C523.28 167.904 523.984 168.832 524.624 169.92C525.136 170.816 525.648 171.968 526.16 173.376C526.672 174.72 527.056 176.288 527.312 178.08C528.528 174.432 530.192 171.712 532.304 169.92C534.48 168.064 537.296 167.136 540.752 167.136C543.76 167.136 546.384 167.712 548.624 168.864C550.928 170.016 552.816 171.648 554.288 173.76C555.824 175.808 556.944 178.304 557.648 181.248C558.416 184.192 558.8 187.488 558.8 191.136C558.8 194.72 558.224 198.08 557.072 201.216C555.92 204.288 554.288 206.976 552.176 209.28C550.128 211.52 547.696 213.312 544.88 214.656C542.064 215.936 539.024 216.576 535.76 216.576C533.968 216.576 532.304 216.384 530.768 216V234.624L515.6 237.216ZM537.776 178.272C536.816 178.272 535.888 178.688 534.992 179.52C534.16 180.288 533.424 181.344 532.784 182.688C532.144 183.968 531.632 185.504 531.248 187.296C530.928 189.024 530.768 190.848 530.768 192.768V204.768C531.216 204.896 531.824 205.056 532.592 205.248C533.36 205.376 534.064 205.44 534.704 205.44C536.24 205.44 537.52 205.12 538.544 204.48C539.568 203.776 540.368 202.848 540.944 201.696C541.584 200.48 542.032 199.072 542.288 197.472C542.544 195.808 542.672 194.016 542.672 192.096C542.672 190.304 542.64 188.576 542.576 186.912C542.512 185.248 542.288 183.776 541.904 182.496C541.584 181.216 541.104 180.192 540.464 179.424C539.824 178.656 538.928 178.272 537.776 178.272ZM568.287 237.216V191.04C568.287 187.2 567.999 184.032 567.423 181.536C566.911 178.976 566.303 176.896 565.599 175.296C564.831 173.504 563.967 172.064 563.007 170.976L575.199 167.136C575.967 167.904 576.671 168.832 577.311 169.92C577.823 170.816 578.335 171.968 578.847 173.376C579.359 174.72 579.743 176.288 579.999 178.08C581.215 174.432 582.879 171.712 584.991 169.92C587.167 168.064 589.983 167.136 593.439 167.136C596.447 167.136 599.071 167.712 601.311 168.864C603.615 170.016 605.503 171.648 606.975 173.76C608.511 175.808 609.631 178.304 610.335 181.248C611.103 184.192 611.487 187.488 611.487 191.136C611.487 194.72 610.911 198.08 609.759 201.216C608.607 204.288 606.975 206.976 604.863 209.28C602.815 211.52 600.383 213.312 597.567 214.656C594.751 215.936 591.711 216.576 588.447 216.576C586.655 216.576 584.991 216.384 583.455 216V234.624L568.287 237.216ZM590.463 178.272C589.503 178.272 588.575 178.688 587.679 179.52C586.847 180.288 586.111 181.344 585.471 182.688C584.831 183.968 584.319 185.504 583.935 187.296C583.615 189.024 583.455 190.848 583.455 192.768V204.768C583.903 204.896 584.511 205.056 585.279 205.248C586.047 205.376 586.751 205.44 587.391 205.44C588.927 205.44 590.207 205.12 591.231 204.48C592.255 203.776 593.055 202.848 593.631 201.696C594.271 200.48 594.719 199.072 594.975 197.472C595.231 195.808 595.359 194.016 595.359 192.096C595.359 190.304 595.327 188.576 595.263 186.912C595.199 185.248 594.975 183.776 594.591 182.496C594.271 181.216 593.791 180.192 593.151 179.424C592.511 178.656 591.615 178.272 590.463 178.272ZM288.48 249.008L286.464 260.624H271.488V314H255.648V260.624H240.192V249.008H288.48ZM326.761 290.864C326.761 294.704 327.017 297.904 327.529 300.464C328.041 303.024 328.649 305.072 329.353 306.608C330.121 308.464 331.017 309.904 332.041 310.928L319.849 314.768C319.145 314.128 318.505 313.328 317.929 312.368C317.417 311.536 316.905 310.544 316.393 309.392C315.945 308.176 315.561 306.768 315.241 305.168C314.153 308.176 312.553 310.512 310.441 312.176C308.329 313.776 305.545 314.576 302.089 314.576C298.953 314.576 296.201 314 293.833 312.848C291.529 311.696 289.609 310.096 288.073 308.048C286.537 305.936 285.385 303.408 284.617 300.464C283.913 297.52 283.561 294.256 283.561 290.672C283.561 287.024 284.137 283.632 285.289 280.496C286.505 277.36 288.169 274.672 290.281 272.432C292.393 270.128 294.921 268.336 297.865 267.056C300.809 265.776 304.073 265.136 307.657 265.136C309.641 265.136 311.753 265.296 313.993 265.616C316.233 265.872 318.281 266.192 320.137 266.576C321.993 266.896 323.529 267.216 324.745 267.536C326.025 267.792 326.697 267.92 326.761 267.92V290.864ZM304.585 303.44C305.545 303.44 306.441 303.024 307.273 302.192C308.169 301.36 308.937 300.24 309.577 298.832C310.217 297.424 310.697 295.824 311.017 294.032C311.401 292.176 311.593 290.224 311.593 288.176V277.04C311.145 276.848 310.505 276.688 309.673 276.56C308.905 276.368 308.233 276.272 307.657 276.272C306.121 276.272 304.841 276.624 303.817 277.328C302.793 277.968 301.961 278.896 301.321 280.112C300.745 281.264 300.329 282.672 300.073 284.336C299.817 286 299.689 287.792 299.689 289.712C299.689 291.504 299.721 293.232 299.785 294.896C299.849 296.496 300.041 297.936 300.361 299.216C300.745 300.496 301.257 301.52 301.897 302.288C302.537 303.056 303.433 303.44 304.585 303.44ZM353.54 264.944C355.972 264.944 358.212 265.168 360.26 265.616C362.372 266 364.228 266.448 365.828 266.96C367.684 267.6 369.38 268.272 370.916 268.976L366.116 279.728C365.604 279.472 364.932 279.152 364.1 278.768C363.332 278.384 362.468 278 361.508 277.616C360.612 277.232 359.652 276.912 358.628 276.656C357.604 276.4 356.612 276.272 355.652 276.272C354.628 276.272 353.764 276.496 353.06 276.944C352.356 277.392 352.004 278.096 352.004 279.056C352.004 280.08 352.644 281.104 353.924 282.128C355.268 283.088 357.028 284.016 359.204 284.912C363.044 286.512 365.988 288.432 368.036 290.672C370.148 292.848 371.204 295.792 371.204 299.504C371.204 301.552 370.82 303.536 370.052 305.456C369.348 307.312 368.26 308.944 366.788 310.352C365.38 311.76 363.588 312.88 361.411 313.712C359.236 314.544 356.74 314.96 353.924 314.96C351.684 314.96 349.572 314.8 347.588 314.48C345.668 314.16 343.876 313.776 342.212 313.328C340.612 312.816 339.172 312.336 337.892 311.888C336.612 311.376 335.588 310.928 334.82 310.544L339.812 299.504C340.132 299.632 340.676 299.92 341.444 300.368C342.276 300.816 343.204 301.264 344.228 301.712C345.316 302.16 346.436 302.576 347.588 302.96C348.804 303.28 349.956 303.44 351.044 303.44C352.388 303.44 353.476 303.184 354.308 302.672C355.204 302.16 355.652 301.392 355.652 300.368C355.652 299.152 355.108 298.064 354.02 297.104C352.996 296.144 351.652 295.344 349.988 294.704C345.188 292.784 341.732 290.64 339.62 288.272C337.572 285.84 336.548 282.832 336.548 279.248C336.548 277.2 336.932 275.312 337.7 273.584C338.468 271.856 339.588 270.352 341.06 269.072C342.532 267.792 344.292 266.8 346.34 266.096C348.452 265.328 350.852 264.944 353.54 264.944ZM394.421 244.4V269.552C395.637 268.464 397.237 267.472 399.221 266.576C401.205 265.616 403.797 265.136 406.997 265.136C408.981 265.136 410.837 265.424 412.565 266C414.293 266.576 415.765 267.44 416.981 268.592C418.261 269.68 419.253 271.024 419.957 272.624C420.725 274.16 421.109 275.92 421.109 277.904C421.109 280.784 420.565 283.184 419.477 285.104C418.453 286.96 417.301 288.432 416.021 289.52C414.549 290.8 412.885 291.824 411.029 292.592L424.469 314H407.189C404.373 309.264 402.101 304.944 400.373 301.04C398.645 297.072 397.461 293.392 396.821 290L396.725 288.56C397.173 288.496 397.909 288.336 398.933 288.08C399.957 287.76 400.981 287.312 402.005 286.736C403.093 286.096 404.021 285.296 404.789 284.336C405.621 283.376 406.037 282.224 406.037 280.88C406.037 279.408 405.653 278.288 404.885 277.52C404.181 276.688 403.253 276.272 402.101 276.272C400.629 276.272 399.381 276.624 398.357 277.328C397.397 278.032 396.629 278.832 396.053 279.728C395.477 280.624 395.061 281.52 394.805 282.416C394.549 283.248 394.421 283.856 394.421 284.24V314H379.253V246.992L394.421 244.4Z" fill="white"/>
<path d="M241.692 350.4H244.032V361.02H250.62V363H241.692V350.4ZM256.484 363.126C255.512 363.126 254.636 362.916 253.856 362.496C253.076 362.076 252.464 361.494 252.02 360.75C251.588 359.994 251.372 359.142 251.372 358.194C251.372 357.246 251.588 356.4 252.02 355.656C252.464 354.912 253.076 354.33 253.856 353.91C254.636 353.49 255.512 353.28 256.484 353.28C257.468 353.28 258.35 353.49 259.13 353.91C259.91 354.33 260.516 354.912 260.948 355.656C261.392 356.4 261.614 357.246 261.614 358.194C261.614 359.142 261.392 359.994 260.948 360.75C260.516 361.494 259.91 362.076 259.13 362.496C258.35 362.916 257.468 363.126 256.484 363.126ZM256.484 361.2C257.312 361.2 257.996 360.924 258.536 360.372C259.076 359.82 259.346 359.094 259.346 358.194C259.346 357.294 259.076 356.568 258.536 356.016C257.996 355.464 257.312 355.188 256.484 355.188C255.656 355.188 254.972 355.464 254.432 356.016C253.904 356.568 253.64 357.294 253.64 358.194C253.64 359.094 253.904 359.82 254.432 360.372C254.972 360.924 255.656 361.2 256.484 361.2ZM265.907 354.792C266.555 353.784 267.695 353.28 269.327 353.28V355.422C269.135 355.386 268.961 355.368 268.805 355.368C267.929 355.368 267.245 355.626 266.753 356.142C266.261 356.646 266.015 357.378 266.015 358.338V363H263.765V353.388H265.907V354.792ZM280.184 358.248C280.184 358.404 280.172 358.626 280.148 358.914H272.606C272.738 359.622 273.08 360.186 273.632 360.606C274.196 361.014 274.892 361.218 275.72 361.218C276.776 361.218 277.646 360.87 278.33 360.174L279.536 361.56C279.104 362.076 278.558 362.466 277.898 362.73C277.238 362.994 276.494 363.126 275.666 363.126C274.61 363.126 273.68 362.916 272.876 362.496C272.072 362.076 271.448 361.494 271.004 360.75C270.572 359.994 270.356 359.142 270.356 358.194C270.356 357.258 270.566 356.418 270.986 355.674C271.418 354.918 272.012 354.33 272.768 353.91C273.524 353.49 274.376 353.28 275.324 353.28C276.26 353.28 277.094 353.49 277.826 353.91C278.57 354.318 279.146 354.9 279.554 355.656C279.974 356.4 280.184 357.264 280.184 358.248ZM275.324 355.08C274.604 355.08 273.992 355.296 273.488 355.728C272.996 356.148 272.696 356.712 272.588 357.42H278.042C277.946 356.724 277.652 356.16 277.16 355.728C276.668 355.296 276.056 355.08 275.324 355.08ZM294.477 353.28C295.689 353.28 296.649 353.634 297.357 354.342C298.065 355.038 298.419 356.088 298.419 357.492V363H296.169V357.78C296.169 356.94 295.983 356.31 295.611 355.89C295.239 355.458 294.705 355.242 294.009 355.242C293.253 355.242 292.647 355.494 292.191 355.998C291.735 356.49 291.507 357.198 291.507 358.122V363H289.257V357.78C289.257 356.94 289.071 356.31 288.699 355.89C288.327 355.458 287.793 355.242 287.097 355.242C286.329 355.242 285.717 355.488 285.261 355.98C284.817 356.472 284.595 357.186 284.595 358.122V363H282.345V353.388H284.487V354.612C284.847 354.18 285.297 353.85 285.837 353.622C286.377 353.394 286.977 353.28 287.637 353.28C288.357 353.28 288.993 353.418 289.545 353.694C290.109 353.958 290.553 354.354 290.877 354.882C291.273 354.378 291.783 353.988 292.407 353.712C293.031 353.424 293.721 353.28 294.477 353.28ZM306.485 350.4H308.825V363H306.485V350.4ZM317.345 353.28C318.281 353.28 319.115 353.484 319.847 353.892C320.591 354.3 321.173 354.876 321.593 355.62C322.013 356.364 322.223 357.222 322.223 358.194C322.223 359.166 322.013 360.03 321.593 360.786C321.173 361.53 320.591 362.106 319.847 362.514C319.115 362.922 318.281 363.126 317.345 363.126C316.049 363.126 315.023 362.694 314.267 361.83V366.492H312.017V353.388H314.159V354.648C314.531 354.192 314.987 353.85 315.527 353.622C316.079 353.394 316.685 353.28 317.345 353.28ZM317.093 361.2C317.921 361.2 318.599 360.924 319.127 360.372C319.667 359.82 319.937 359.094 319.937 358.194C319.937 357.294 319.667 356.568 319.127 356.016C318.599 355.464 317.921 355.188 317.093 355.188C316.553 355.188 316.067 355.314 315.635 355.566C315.203 355.806 314.861 356.154 314.609 356.61C314.357 357.066 314.231 357.594 314.231 358.194C314.231 358.794 314.357 359.322 314.609 359.778C314.861 360.234 315.203 360.588 315.635 360.84C316.067 361.08 316.553 361.2 317.093 361.2ZM327.327 363.126C326.547 363.126 325.785 363.024 325.041 362.82C324.297 362.616 323.703 362.358 323.259 362.046L324.123 360.336C324.555 360.624 325.071 360.858 325.671 361.038C326.283 361.206 326.883 361.29 327.471 361.29C328.815 361.29 329.487 360.936 329.487 360.228C329.487 359.892 329.313 359.658 328.965 359.526C328.629 359.394 328.083 359.268 327.327 359.148C326.535 359.028 325.887 358.89 325.383 358.734C324.891 358.578 324.459 358.308 324.087 357.924C323.727 357.528 323.547 356.982 323.547 356.286C323.547 355.374 323.925 354.648 324.681 354.108C325.449 353.556 326.481 353.28 327.777 353.28C328.437 353.28 329.097 353.358 329.757 353.514C330.417 353.658 330.957 353.856 331.377 354.108L330.513 355.818C329.697 355.338 328.779 355.098 327.759 355.098C327.099 355.098 326.595 355.2 326.247 355.404C325.911 355.596 325.743 355.854 325.743 356.178C325.743 356.538 325.923 356.796 326.283 356.952C326.655 357.096 327.225 357.234 327.993 357.366C328.761 357.486 329.391 357.624 329.883 357.78C330.375 357.936 330.795 358.2 331.143 358.572C331.503 358.944 331.683 359.472 331.683 360.156C331.683 361.056 331.293 361.776 330.513 362.316C329.733 362.856 328.671 363.126 327.327 363.126ZM342.927 353.388V363H340.785V361.776C340.425 362.208 339.975 362.544 339.435 362.784C338.895 363.012 338.313 363.126 337.689 363.126C336.405 363.126 335.391 362.772 334.647 362.064C333.915 361.344 333.549 360.282 333.549 358.878V353.388H335.799V358.572C335.799 359.436 335.991 360.084 336.375 360.516C336.771 360.936 337.329 361.146 338.049 361.146C338.853 361.146 339.489 360.9 339.957 360.408C340.437 359.904 340.677 359.184 340.677 358.248V353.388H342.927ZM358.004 353.28C359.216 353.28 360.176 353.634 360.884 354.342C361.592 355.038 361.946 356.088 361.946 357.492V363H359.696V357.78C359.696 356.94 359.51 356.31 359.138 355.89C358.766 355.458 358.232 355.242 357.536 355.242C356.78 355.242 356.174 355.494 355.718 355.998C355.262 356.49 355.034 357.198 355.034 358.122V363H352.784V357.78C352.784 356.94 352.598 356.31 352.226 355.89C351.854 355.458 351.32 355.242 350.624 355.242C349.856 355.242 349.244 355.488 348.788 355.98C348.344 356.472 348.122 357.186 348.122 358.122V363H345.872V353.388H348.014V354.612C348.374 354.18 348.824 353.85 349.364 353.622C349.904 353.394 350.504 353.28 351.164 353.28C351.884 353.28 352.52 353.418 353.072 353.694C353.636 353.958 354.08 354.354 354.404 354.882C354.8 354.378 355.31 353.988 355.934 353.712C356.558 353.424 357.248 353.28 358.004 353.28ZM369.796 353.388H372.046V363H369.796V353.388ZM370.93 351.804C370.522 351.804 370.18 351.678 369.904 351.426C369.628 351.162 369.49 350.838 369.49 350.454C369.49 350.07 369.628 349.752 369.904 349.5C370.18 349.236 370.522 349.104 370.93 349.104C371.338 349.104 371.68 349.23 371.956 349.482C372.232 349.722 372.37 350.028 372.37 350.4C372.37 350.796 372.232 351.132 371.956 351.408C371.692 351.672 371.35 351.804 370.93 351.804ZM377.969 363.126C377.189 363.126 376.427 363.024 375.683 362.82C374.939 362.616 374.345 362.358 373.901 362.046L374.765 360.336C375.197 360.624 375.713 360.858 376.313 361.038C376.925 361.206 377.525 361.29 378.113 361.29C379.457 361.29 380.129 360.936 380.129 360.228C380.129 359.892 379.955 359.658 379.607 359.526C379.271 359.394 378.725 359.268 377.969 359.148C377.177 359.028 376.529 358.89 376.025 358.734C375.533 358.578 375.101 358.308 374.729 357.924C374.369 357.528 374.189 356.982 374.189 356.286C374.189 355.374 374.567 354.648 375.323 354.108C376.091 353.556 377.123 353.28 378.419 353.28C379.079 353.28 379.739 353.358 380.399 353.514C381.059 353.658 381.599 353.856 382.019 354.108L381.155 355.818C380.339 355.338 379.421 355.098 378.401 355.098C377.741 355.098 377.237 355.2 376.889 355.404C376.553 355.596 376.385 355.854 376.385 356.178C376.385 356.538 376.565 356.796 376.925 356.952C377.297 357.096 377.867 357.234 378.635 357.366C379.403 357.486 380.033 357.624 380.525 357.78C381.017 357.936 381.437 358.2 381.785 358.572C382.145 358.944 382.325 359.472 382.325 360.156C382.325 361.056 381.935 361.776 381.155 362.316C380.375 362.856 379.313 363.126 377.969 363.126ZM392.208 363.126C391.428 363.126 390.666 363.024 389.922 362.82C389.178 362.616 388.584 362.358 388.14 362.046L389.004 360.336C389.436 360.624 389.952 360.858 390.552 361.038C391.164 361.206 391.764 361.29 392.352 361.29C393.696 361.29 394.368 360.936 394.368 360.228C394.368 359.892 394.194 359.658 393.846 359.526C393.51 359.394 392.964 359.268 392.208 359.148C391.416 359.028 390.768 358.89 390.264 358.734C389.772 358.578 389.34 358.308 388.968 357.924C388.608 357.528 388.428 356.982 388.428 356.286C388.428 355.374 388.806 354.648 389.562 354.108C390.33 353.556 391.362 353.28 392.658 353.28C393.318 353.28 393.978 353.358 394.638 353.514C395.298 353.658 395.838 353.856 396.258 354.108L395.394 355.818C394.578 355.338 393.66 355.098 392.64 355.098C391.98 355.098 391.476 355.2 391.128 355.404C390.792 355.596 390.624 355.854 390.624 356.178C390.624 356.538 390.804 356.796 391.164 356.952C391.536 357.096 392.106 357.234 392.874 357.366C393.642 357.486 394.272 357.624 394.764 357.78C395.256 357.936 395.676 358.2 396.024 358.572C396.384 358.944 396.564 359.472 396.564 360.156C396.564 361.056 396.174 361.776 395.394 362.316C394.614 362.856 393.552 363.126 392.208 363.126ZM398.501 353.388H400.751V363H398.501V353.388ZM399.635 351.804C399.227 351.804 398.885 351.678 398.609 351.426C398.333 351.162 398.195 350.838 398.195 350.454C398.195 350.07 398.333 349.752 398.609 349.5C398.885 349.236 399.227 349.104 399.635 349.104C400.043 349.104 400.385 349.23 400.661 349.482C400.937 349.722 401.075 350.028 401.075 350.4C401.075 350.796 400.937 351.132 400.661 351.408C400.397 351.672 400.055 351.804 399.635 351.804ZM415.837 353.28C417.049 353.28 418.009 353.634 418.717 354.342C419.425 355.038 419.779 356.088 419.779 357.492V363H417.529V357.78C417.529 356.94 417.343 356.31 416.971 355.89C416.599 355.458 416.065 355.242 415.369 355.242C414.613 355.242 414.007 355.494 413.551 355.998C413.095 356.49 412.867 357.198 412.867 358.122V363H410.617V357.78C410.617 356.94 410.431 356.31 410.059 355.89C409.687 355.458 409.153 355.242 408.457 355.242C407.689 355.242 407.077 355.488 406.621 355.98C406.177 356.472 405.955 357.186 405.955 358.122V363H403.705V353.388H405.847V354.612C406.207 354.18 406.657 353.85 407.197 353.622C407.737 353.394 408.337 353.28 408.997 353.28C409.717 353.28 410.353 353.418 410.905 353.694C411.469 353.958 411.913 354.354 412.237 354.882C412.633 354.378 413.143 353.988 413.767 353.712C414.391 353.424 415.081 353.28 415.837 353.28ZM427.982 353.28C428.918 353.28 429.752 353.484 430.484 353.892C431.228 354.3 431.81 354.876 432.23 355.62C432.65 356.364 432.86 357.222 432.86 358.194C432.86 359.166 432.65 360.03 432.23 360.786C431.81 361.53 431.228 362.106 430.484 362.514C429.752 362.922 428.918 363.126 427.982 363.126C426.686 363.126 425.66 362.694 424.904 361.83V366.492H422.654V353.388H424.796V354.648C425.168 354.192 425.624 353.85 426.164 353.622C426.716 353.394 427.322 353.28 427.982 353.28ZM427.73 361.2C428.558 361.2 429.236 360.924 429.764 360.372C430.304 359.82 430.574 359.094 430.574 358.194C430.574 357.294 430.304 356.568 429.764 356.016C429.236 355.464 428.558 355.188 427.73 355.188C427.19 355.188 426.704 355.314 426.272 355.566C425.84 355.806 425.498 356.154 425.246 356.61C424.994 357.066 424.868 357.594 424.868 358.194C424.868 358.794 424.994 359.322 425.246 359.778C425.498 360.234 425.84 360.588 426.272 360.84C426.704 361.08 427.19 361.2 427.73 361.2ZM434.994 349.644H437.244V363H434.994V349.644ZM449.197 353.388L444.697 363.774C444.277 364.818 443.767 365.55 443.167 365.97C442.567 366.402 441.841 366.618 440.989 366.618C440.509 366.618 440.035 366.54 439.567 366.384C439.099 366.228 438.715 366.012 438.415 365.736L439.315 364.08C439.531 364.284 439.783 364.446 440.071 364.566C440.371 364.686 440.671 364.746 440.971 364.746C441.367 364.746 441.691 364.644 441.943 364.44C442.207 364.236 442.447 363.894 442.663 363.414L442.825 363.036L438.631 353.388H440.971L443.995 360.498L447.037 353.388H449.197ZM464.992 349.644V363H462.832V361.758C462.46 362.214 461.998 362.556 461.446 362.784C460.906 363.012 460.306 363.126 459.646 363.126C458.722 363.126 457.888 362.922 457.144 362.514C456.412 362.106 455.836 361.53 455.416 360.786C454.996 360.03 454.786 359.166 454.786 358.194C454.786 357.222 454.996 356.364 455.416 355.62C455.836 354.876 456.412 354.3 457.144 353.892C457.888 353.484 458.722 353.28 459.646 353.28C460.282 353.28 460.864 353.388 461.392 353.604C461.92 353.82 462.37 354.144 462.742 354.576V349.644H464.992ZM459.916 361.2C460.456 361.2 460.942 361.08 461.374 360.84C461.806 360.588 462.148 360.234 462.4 359.778C462.652 359.322 462.778 358.794 462.778 358.194C462.778 357.594 462.652 357.066 462.4 356.61C462.148 356.154 461.806 355.806 461.374 355.566C460.942 355.314 460.456 355.188 459.916 355.188C459.376 355.188 458.89 355.314 458.458 355.566C458.026 355.806 457.684 356.154 457.432 356.61C457.18 357.066 457.054 357.594 457.054 358.194C457.054 358.794 457.18 359.322 457.432 359.778C457.684 360.234 458.026 360.588 458.458 360.84C458.89 361.08 459.376 361.2 459.916 361.2ZM477.241 353.388V363H475.099V361.776C474.739 362.208 474.289 362.544 473.749 362.784C473.209 363.012 472.627 363.126 472.003 363.126C470.719 363.126 469.705 362.772 468.961 362.064C468.229 361.344 467.863 360.282 467.863 358.878V353.388H470.113V358.572C470.113 359.436 470.305 360.084 470.689 360.516C471.085 360.936 471.643 361.146 472.363 361.146C473.167 361.146 473.803 360.9 474.271 360.408C474.751 359.904 474.991 359.184 474.991 358.248V353.388H477.241ZM492.319 353.28C493.531 353.28 494.491 353.634 495.199 354.342C495.907 355.038 496.261 356.088 496.261 357.492V363H494.011V357.78C494.011 356.94 493.825 356.31 493.453 355.89C493.081 355.458 492.547 355.242 491.851 355.242C491.095 355.242 490.489 355.494 490.033 355.998C489.577 356.49 489.349 357.198 489.349 358.122V363H487.099V357.78C487.099 356.94 486.913 356.31 486.541 355.89C486.169 355.458 485.635 355.242 484.939 355.242C484.171 355.242 483.559 355.488 483.103 355.98C482.659 356.472 482.437 357.186 482.437 358.122V363H480.187V353.388H482.329V354.612C482.689 354.18 483.139 353.85 483.679 353.622C484.219 353.394 484.819 353.28 485.479 353.28C486.199 353.28 486.835 353.418 487.387 353.694C487.951 353.958 488.395 354.354 488.719 354.882C489.115 354.378 489.625 353.988 490.249 353.712C490.873 353.424 491.563 353.28 492.319 353.28ZM511.268 353.28C512.48 353.28 513.44 353.634 514.148 354.342C514.856 355.038 515.21 356.088 515.21 357.492V363H512.96V357.78C512.96 356.94 512.774 356.31 512.402 355.89C512.03 355.458 511.496 355.242 510.8 355.242C510.044 355.242 509.438 355.494 508.982 355.998C508.526 356.49 508.298 357.198 508.298 358.122V363H506.048V357.78C506.048 356.94 505.862 356.31 505.49 355.89C505.118 355.458 504.584 355.242 503.888 355.242C503.12 355.242 502.508 355.488 502.052 355.98C501.608 356.472 501.386 357.186 501.386 358.122V363H499.136V353.388H501.278V354.612C501.638 354.18 502.088 353.85 502.628 353.622C503.168 353.394 503.768 353.28 504.428 353.28C505.148 353.28 505.784 353.418 506.336 353.694C506.9 353.958 507.344 354.354 507.668 354.882C508.064 354.378 508.574 353.988 509.198 353.712C509.822 353.424 510.512 353.28 511.268 353.28ZM526.91 353.388L522.41 363.774C521.99 364.818 521.48 365.55 520.88 365.97C520.28 366.402 519.554 366.618 518.702 366.618C518.222 366.618 517.748 366.54 517.28 366.384C516.812 366.228 516.428 366.012 516.128 365.736L517.028 364.08C517.244 364.284 517.496 364.446 517.784 364.566C518.084 364.686 518.384 364.746 518.684 364.746C519.08 364.746 519.404 364.644 519.656 364.44C519.92 364.236 520.16 363.894 520.376 363.414L520.538 363.036L516.344 353.388H518.684L521.708 360.498L524.75 353.388H526.91ZM539.068 362.478C538.804 362.694 538.48 362.856 538.096 362.964C537.724 363.072 537.328 363.126 536.908 363.126C535.852 363.126 535.036 362.85 534.46 362.298C533.884 361.746 533.596 360.942 533.596 359.886V355.26H532.012V353.46H533.596V351.264H535.846V353.46H538.42V355.26H535.846V359.832C535.846 360.3 535.96 360.66 536.188 360.912C536.416 361.152 536.746 361.272 537.178 361.272C537.682 361.272 538.102 361.14 538.438 360.876L539.068 362.478ZM549.639 358.248C549.639 358.404 549.627 358.626 549.603 358.914H542.061C542.193 359.622 542.535 360.186 543.087 360.606C543.651 361.014 544.347 361.218 545.175 361.218C546.231 361.218 547.101 360.87 547.785 360.174L548.991 361.56C548.559 362.076 548.013 362.466 547.353 362.73C546.693 362.994 545.949 363.126 545.121 363.126C544.065 363.126 543.135 362.916 542.331 362.496C541.527 362.076 540.903 361.494 540.459 360.75C540.027 359.994 539.811 359.142 539.811 358.194C539.811 357.258 540.021 356.418 540.441 355.674C540.873 354.918 541.467 354.33 542.223 353.91C542.979 353.49 543.831 353.28 544.779 353.28C545.715 353.28 546.549 353.49 547.281 353.91C548.025 354.318 548.601 354.9 549.009 355.656C549.429 356.4 549.639 357.264 549.639 358.248ZM544.779 355.08C544.059 355.08 543.447 355.296 542.943 355.728C542.451 356.148 542.151 356.712 542.043 357.42H547.497C547.401 356.724 547.107 356.16 546.615 355.728C546.123 355.296 545.511 355.08 544.779 355.08ZM557.657 363L555.191 359.67L552.707 363H550.223L553.967 358.122L550.385 353.388H552.887L555.245 356.538L557.603 353.388H560.033L556.433 358.086L560.195 363H557.657ZM567.633 362.478C567.369 362.694 567.045 362.856 566.661 362.964C566.289 363.072 565.893 363.126 565.473 363.126C564.417 363.126 563.601 362.85 563.025 362.298C562.449 361.746 562.161 360.942 562.161 359.886V355.26H560.577V353.46H562.161V351.264H564.411V353.46H566.985V355.26H564.411V359.832C564.411 360.3 564.525 360.66 564.753 360.912C564.981 361.152 565.311 361.272 565.743 361.272C566.247 361.272 566.667 361.14 567.003 360.876L567.633 362.478ZM578.778 363.126C577.806 363.126 576.93 362.916 576.15 362.496C575.37 362.076 574.758 361.494 574.314 360.75C573.882 359.994 573.666 359.142 573.666 358.194C573.666 357.246 573.882 356.4 574.314 355.656C574.758 354.912 575.37 354.33 576.15 353.91C576.93 353.49 577.806 353.28 578.778 353.28C579.762 353.28 580.644 353.49 581.424 353.91C582.204 354.33 582.81 354.912 583.242 355.656C583.686 356.4 583.908 357.246 583.908 358.194C583.908 359.142 583.686 359.994 583.242 360.75C582.81 361.494 582.204 362.076 581.424 362.496C580.644 362.916 579.762 363.126 578.778 363.126ZM578.778 361.2C579.606 361.2 580.29 360.924 580.83 360.372C581.37 359.82 581.64 359.094 581.64 358.194C581.64 357.294 581.37 356.568 580.83 356.016C580.29 355.464 579.606 355.188 578.778 355.188C577.95 355.188 577.266 355.464 576.726 356.016C576.198 356.568 575.934 357.294 575.934 358.194C575.934 359.094 576.198 359.82 576.726 360.372C577.266 360.924 577.95 361.2 578.778 361.2ZM589.966 351.336C589.018 351.336 588.544 351.852 588.544 352.884V353.46H591.19V355.26H588.616V363H586.366V355.26H584.782V353.46H586.366V352.848C586.366 351.816 586.666 351.006 587.266 350.418C587.866 349.818 588.712 349.518 589.804 349.518C590.668 349.518 591.346 349.692 591.838 350.04L591.208 351.732C590.824 351.468 590.41 351.336 589.966 351.336ZM603.457 362.478C603.193 362.694 602.869 362.856 602.485 362.964C602.113 363.072 601.717 363.126 601.297 363.126C600.241 363.126 599.425 362.85 598.849 362.298C598.273 361.746 597.985 360.942 597.985 359.886V355.26H596.401V353.46H597.985V351.264H600.235V353.46H602.809V355.26H600.235V359.832C600.235 360.3 600.349 360.66 600.577 360.912C600.805 361.152 601.135 361.272 601.567 361.272C602.071 361.272 602.491 361.14 602.827 360.876L603.457 362.478ZM610.762 353.28C611.974 353.28 612.946 353.634 613.678 354.342C614.41 355.05 614.776 356.1 614.776 357.492V363H612.526V357.78C612.526 356.94 612.328 356.31 611.932 355.89C611.536 355.458 610.972 355.242 610.24 355.242C609.412 355.242 608.758 355.494 608.278 355.998C607.798 356.49 607.558 357.204 607.558 358.14V363H605.308V349.644H607.558V354.504C607.93 354.108 608.386 353.808 608.926 353.604C609.478 353.388 610.09 353.28 610.762 353.28ZM626.754 358.248C626.754 358.404 626.742 358.626 626.718 358.914H619.176C619.308 359.622 619.65 360.186 620.202 360.606C620.766 361.014 621.462 361.218 622.29 361.218C623.346 361.218 624.216 360.87 624.9 360.174L626.106 361.56C625.674 362.076 625.128 362.466 624.468 362.73C623.808 362.994 623.064 363.126 622.236 363.126C621.18 363.126 620.25 362.916 619.446 362.496C618.642 362.076 618.018 361.494 617.574 360.75C617.142 359.994 616.926 359.142 616.926 358.194C616.926 357.258 617.136 356.418 617.556 355.674C617.988 354.918 618.582 354.33 619.338 353.91C620.094 353.49 620.946 353.28 621.894 353.28C622.83 353.28 623.664 353.49 624.396 353.91C625.14 354.318 625.716 354.9 626.124 355.656C626.544 356.4 626.754 357.264 626.754 358.248ZM621.894 355.08C621.174 355.08 620.562 355.296 620.058 355.728C619.566 356.148 619.266 356.712 619.158 357.42H624.612C624.516 356.724 624.222 356.16 623.73 355.728C623.238 355.296 622.626 355.08 621.894 355.08ZM246.804 371.28C247.74 371.28 248.574 371.484 249.306 371.892C250.05 372.3 250.632 372.876 251.052 373.62C251.472 374.364 251.682 375.222 251.682 376.194C251.682 377.166 251.472 378.03 251.052 378.786C250.632 379.53 250.05 380.106 249.306 380.514C248.574 380.922 247.74 381.126 246.804 381.126C245.508 381.126 244.482 380.694 243.726 379.83V384.492H241.476V371.388H243.618V372.648C243.99 372.192 244.446 371.85 244.986 371.622C245.538 371.394 246.144 371.28 246.804 371.28ZM246.552 379.2C247.38 379.2 248.058 378.924 248.586 378.372C249.126 377.82 249.396 377.094 249.396 376.194C249.396 375.294 249.126 374.568 248.586 374.016C248.058 373.464 247.38 373.188 246.552 373.188C246.012 373.188 245.526 373.314 245.094 373.566C244.662 373.806 244.32 374.154 244.068 374.61C243.816 375.066 243.69 375.594 243.69 376.194C243.69 376.794 243.816 377.322 244.068 377.778C244.32 378.234 244.662 378.588 245.094 378.84C245.526 379.08 246.012 379.2 246.552 379.2ZM255.958 372.792C256.606 371.784 257.746 371.28 259.378 371.28V373.422C259.186 373.386 259.012 373.368 258.856 373.368C257.98 373.368 257.296 373.626 256.804 374.142C256.312 374.646 256.066 375.378 256.066 376.338V381H253.816V371.388H255.958V372.792ZM261.287 371.388H263.537V381H261.287V371.388ZM262.421 369.804C262.013 369.804 261.671 369.678 261.395 369.426C261.119 369.162 260.981 368.838 260.981 368.454C260.981 368.07 261.119 367.752 261.395 367.5C261.671 367.236 262.013 367.104 262.421 367.104C262.829 367.104 263.171 367.23 263.447 367.482C263.723 367.722 263.861 368.028 263.861 368.4C263.861 368.796 263.723 369.132 263.447 369.408C263.183 369.672 262.841 369.804 262.421 369.804ZM271.944 371.28C273.156 371.28 274.128 371.634 274.86 372.342C275.592 373.05 275.958 374.1 275.958 375.492V381H273.708V375.78C273.708 374.94 273.51 374.31 273.114 373.89C272.718 373.458 272.154 373.242 271.422 373.242C270.594 373.242 269.94 373.494 269.46 373.998C268.98 374.49 268.74 375.204 268.74 376.14V381H266.49V371.388H268.632V372.63C269.004 372.186 269.472 371.85 270.036 371.622C270.6 371.394 271.236 371.28 271.944 371.28ZM284.59 380.478C284.326 380.694 284.002 380.856 283.618 380.964C283.246 381.072 282.85 381.126 282.43 381.126C281.374 381.126 280.558 380.85 279.982 380.298C279.406 379.746 279.118 378.942 279.118 377.886V373.26H277.534V371.46H279.118V369.264H281.368V371.46H283.942V373.26H281.368V377.832C281.368 378.3 281.482 378.66 281.71 378.912C281.938 379.152 282.268 379.272 282.7 379.272C283.204 379.272 283.624 379.14 283.96 378.876L284.59 380.478ZM286.441 371.388H288.691V381H286.441V371.388ZM287.575 369.804C287.167 369.804 286.825 369.678 286.549 369.426C286.273 369.162 286.135 368.838 286.135 368.454C286.135 368.07 286.273 367.752 286.549 367.5C286.825 367.236 287.167 367.104 287.575 367.104C287.983 367.104 288.325 367.23 288.601 367.482C288.877 367.722 289.015 368.028 289.015 368.4C289.015 368.796 288.877 369.132 288.601 369.408C288.337 369.672 287.995 369.804 287.575 369.804ZM297.098 371.28C298.31 371.28 299.282 371.634 300.014 372.342C300.746 373.05 301.112 374.1 301.112 375.492V381H298.862V375.78C298.862 374.94 298.664 374.31 298.268 373.89C297.872 373.458 297.308 373.242 296.576 373.242C295.748 373.242 295.094 373.494 294.614 373.998C294.134 374.49 293.894 375.204 293.894 376.14V381H291.644V371.388H293.786V372.63C294.158 372.186 294.626 371.85 295.19 371.622C295.754 371.394 296.39 371.28 297.098 371.28ZM313.594 371.388V379.542C313.594 382.926 311.866 384.618 308.41 384.618C307.486 384.618 306.61 384.498 305.782 384.258C304.954 384.03 304.27 383.694 303.73 383.25L304.738 381.558C305.158 381.906 305.686 382.182 306.322 382.386C306.97 382.602 307.624 382.71 308.284 382.71C309.34 382.71 310.114 382.47 310.606 381.99C311.098 381.51 311.344 380.778 311.344 379.794V379.29C310.96 379.71 310.492 380.028 309.94 380.244C309.388 380.46 308.782 380.568 308.122 380.568C307.21 380.568 306.382 380.376 305.638 379.992C304.906 379.596 304.324 379.044 303.892 378.336C303.472 377.628 303.262 376.818 303.262 375.906C303.262 374.994 303.472 374.19 303.892 373.494C304.324 372.786 304.906 372.24 305.638 371.856C306.382 371.472 307.21 371.28 308.122 371.28C308.818 371.28 309.448 371.394 310.012 371.622C310.588 371.85 311.068 372.198 311.452 372.666V371.388H313.594ZM308.464 378.66C309.316 378.66 310.012 378.408 310.552 377.904C311.104 377.388 311.38 376.722 311.38 375.906C311.38 375.102 311.104 374.448 310.552 373.944C310.012 373.44 309.316 373.188 308.464 373.188C307.6 373.188 306.892 373.44 306.34 373.944C305.8 374.448 305.53 375.102 305.53 375.906C305.53 376.722 305.8 377.388 306.34 377.904C306.892 378.408 307.6 378.66 308.464 378.66ZM325.199 371.28C326.615 371.28 327.695 371.622 328.439 372.306C329.195 372.978 329.573 373.998 329.573 375.366V381H327.449V379.83C327.173 380.25 326.777 380.574 326.261 380.802C325.757 381.018 325.145 381.126 324.425 381.126C323.705 381.126 323.075 381.006 322.535 380.766C321.995 380.514 321.575 380.172 321.275 379.74C320.987 379.296 320.843 378.798 320.843 378.246C320.843 377.382 321.161 376.692 321.797 376.176C322.445 375.648 323.459 375.384 324.839 375.384H327.323V375.24C327.323 374.568 327.119 374.052 326.711 373.692C326.315 373.332 325.721 373.152 324.929 373.152C324.389 373.152 323.855 373.236 323.327 373.404C322.811 373.572 322.373 373.806 322.013 374.106L321.131 372.468C321.635 372.084 322.241 371.79 322.949 371.586C323.657 371.382 324.407 371.28 325.199 371.28ZM324.893 379.488C325.457 379.488 325.955 379.362 326.387 379.11C326.831 378.846 327.143 378.474 327.323 377.994V376.878H325.001C323.705 376.878 323.057 377.304 323.057 378.156C323.057 378.564 323.219 378.888 323.543 379.128C323.867 379.368 324.317 379.488 324.893 379.488ZM337.914 371.28C339.126 371.28 340.098 371.634 340.83 372.342C341.562 373.05 341.928 374.1 341.928 375.492V381H339.678V375.78C339.678 374.94 339.48 374.31 339.084 373.89C338.688 373.458 338.124 373.242 337.392 373.242C336.564 373.242 335.91 373.494 335.43 373.998C334.95 374.49 334.71 375.204 334.71 376.14V381H332.46V371.388H334.602V372.63C334.974 372.186 335.442 371.85 336.006 371.622C336.57 371.394 337.206 371.28 337.914 371.28ZM354.285 367.644V381H352.125V379.758C351.753 380.214 351.291 380.556 350.739 380.784C350.199 381.012 349.599 381.126 348.939 381.126C348.015 381.126 347.181 380.922 346.437 380.514C345.705 380.106 345.129 379.53 344.709 378.786C344.289 378.03 344.079 377.166 344.079 376.194C344.079 375.222 344.289 374.364 344.709 373.62C345.129 372.876 345.705 372.3 346.437 371.892C347.181 371.484 348.015 371.28 348.939 371.28C349.575 371.28 350.157 371.388 350.685 371.604C351.213 371.82 351.663 372.144 352.035 372.576V367.644H354.285ZM349.209 379.2C349.749 379.2 350.235 379.08 350.667 378.84C351.099 378.588 351.441 378.234 351.693 377.778C351.945 377.322 352.071 376.794 352.071 376.194C352.071 375.594 351.945 375.066 351.693 374.61C351.441 374.154 351.099 373.806 350.667 373.566C350.235 373.314 349.749 373.188 349.209 373.188C348.669 373.188 348.183 373.314 347.751 373.566C347.319 373.806 346.977 374.154 346.725 374.61C346.473 375.066 346.347 375.594 346.347 376.194C346.347 376.794 346.473 377.322 346.725 377.778C346.977 378.234 347.319 378.588 347.751 378.84C348.183 379.08 348.669 379.2 349.209 379.2ZM367.981 380.478C367.717 380.694 367.393 380.856 367.009 380.964C366.637 381.072 366.241 381.126 365.821 381.126C364.765 381.126 363.949 380.85 363.373 380.298C362.797 379.746 362.509 378.942 362.509 377.886V373.26H360.925V371.46H362.509V369.264H364.759V371.46H367.333V373.26H364.759V377.832C364.759 378.3 364.873 378.66 365.101 378.912C365.329 379.152 365.659 379.272 366.091 379.272C366.595 379.272 367.015 379.14 367.351 378.876L367.981 380.478ZM378.656 371.388L374.156 381.774C373.736 382.818 373.226 383.55 372.626 383.97C372.026 384.402 371.3 384.618 370.448 384.618C369.968 384.618 369.494 384.54 369.026 384.384C368.558 384.228 368.174 384.012 367.874 383.736L368.774 382.08C368.99 382.284 369.242 382.446 369.53 382.566C369.83 382.686 370.13 382.746 370.43 382.746C370.826 382.746 371.15 382.644 371.402 382.44C371.666 382.236 371.906 381.894 372.122 381.414L372.284 381.036L368.09 371.388H370.43L373.454 378.498L376.496 371.388H378.656ZM385.39 371.28C386.326 371.28 387.16 371.484 387.892 371.892C388.636 372.3 389.218 372.876 389.638 373.62C390.058 374.364 390.268 375.222 390.268 376.194C390.268 377.166 390.058 378.03 389.638 378.786C389.218 379.53 388.636 380.106 387.892 380.514C387.16 380.922 386.326 381.126 385.39 381.126C384.094 381.126 383.068 380.694 382.312 379.83V384.492H380.062V371.388H382.204V372.648C382.576 372.192 383.032 371.85 383.572 371.622C384.124 371.394 384.73 371.28 385.39 371.28ZM385.138 379.2C385.966 379.2 386.644 378.924 387.172 378.372C387.712 377.82 387.982 377.094 387.982 376.194C387.982 375.294 387.712 374.568 387.172 374.016C386.644 373.464 385.966 373.188 385.138 373.188C384.598 373.188 384.112 373.314 383.68 373.566C383.248 373.806 382.906 374.154 382.654 374.61C382.402 375.066 382.276 375.594 382.276 376.194C382.276 376.794 382.402 377.322 382.654 377.778C382.906 378.234 383.248 378.588 383.68 378.84C384.112 379.08 384.598 379.2 385.138 379.2ZM401.438 376.248C401.438 376.404 401.426 376.626 401.402 376.914H393.86C393.992 377.622 394.334 378.186 394.886 378.606C395.45 379.014 396.146 379.218 396.974 379.218C398.03 379.218 398.9 378.87 399.584 378.174L400.79 379.56C400.358 380.076 399.812 380.466 399.152 380.73C398.492 380.994 397.748 381.126 396.92 381.126C395.864 381.126 394.934 380.916 394.13 380.496C393.326 380.076 392.702 379.494 392.258 378.75C391.826 377.994 391.61 377.142 391.61 376.194C391.61 375.258 391.82 374.418 392.24 373.674C392.672 372.918 393.266 372.33 394.022 371.91C394.778 371.49 395.63 371.28 396.578 371.28C397.514 371.28 398.348 371.49 399.08 371.91C399.824 372.318 400.4 372.9 400.808 373.656C401.228 374.4 401.438 375.264 401.438 376.248ZM396.578 373.08C395.858 373.08 395.246 373.296 394.742 373.728C394.25 374.148 393.95 374.712 393.842 375.42H399.296C399.2 374.724 398.906 374.16 398.414 373.728C397.922 373.296 397.31 373.08 396.578 373.08ZM406.569 381.126C405.789 381.126 405.027 381.024 404.283 380.82C403.539 380.616 402.945 380.358 402.501 380.046L403.365 378.336C403.797 378.624 404.313 378.858 404.913 379.038C405.525 379.206 406.125 379.29 406.713 379.29C408.057 379.29 408.729 378.936 408.729 378.228C408.729 377.892 408.555 377.658 408.207 377.526C407.871 377.394 407.325 377.268 406.569 377.148C405.777 377.028 405.129 376.89 404.625 376.734C404.133 376.578 403.701 376.308 403.329 375.924C402.969 375.528 402.789 374.982 402.789 374.286C402.789 373.374 403.167 372.648 403.923 372.108C404.691 371.556 405.723 371.28 407.019 371.28C407.679 371.28 408.339 371.358 408.999 371.514C409.659 371.658 410.199 371.856 410.619 372.108L409.755 373.818C408.939 373.338 408.021 373.098 407.001 373.098C406.341 373.098 405.837 373.2 405.489 373.404C405.153 373.596 404.985 373.854 404.985 374.178C404.985 374.538 405.165 374.796 405.525 374.952C405.897 375.096 406.467 375.234 407.235 375.366C408.003 375.486 408.633 375.624 409.125 375.78C409.617 375.936 410.037 376.2 410.385 376.572C410.745 376.944 410.925 377.472 410.925 378.156C410.925 379.056 410.535 379.776 409.755 380.316C408.975 380.856 407.913 381.126 406.569 381.126ZM421.899 376.248C421.899 376.404 421.887 376.626 421.863 376.914H414.321C414.453 377.622 414.795 378.186 415.347 378.606C415.911 379.014 416.607 379.218 417.435 379.218C418.491 379.218 419.361 378.87 420.045 378.174L421.251 379.56C420.819 380.076 420.273 380.466 419.613 380.73C418.953 380.994 418.209 381.126 417.381 381.126C416.325 381.126 415.395 380.916 414.591 380.496C413.787 380.076 413.163 379.494 412.719 378.75C412.287 377.994 412.071 377.142 412.071 376.194C412.071 375.258 412.281 374.418 412.701 373.674C413.133 372.918 413.727 372.33 414.483 371.91C415.239 371.49 416.091 371.28 417.039 371.28C417.975 371.28 418.809 371.49 419.541 371.91C420.285 372.318 420.861 372.9 421.269 373.656C421.689 374.4 421.899 375.264 421.899 376.248ZM417.039 373.08C416.319 373.08 415.707 373.296 415.203 373.728C414.711 374.148 414.411 374.712 414.303 375.42H419.757C419.661 374.724 419.367 374.16 418.875 373.728C418.383 373.296 417.771 373.08 417.039 373.08ZM429.838 380.478C429.574 380.694 429.25 380.856 428.866 380.964C428.494 381.072 428.098 381.126 427.678 381.126C426.622 381.126 425.806 380.85 425.23 380.298C424.654 379.746 424.366 378.942 424.366 377.886V373.26H422.782V371.46H424.366V369.264H426.616V371.46H429.19V373.26H426.616V377.832C426.616 378.3 426.73 378.66 426.958 378.912C427.186 379.152 427.516 379.272 427.948 379.272C428.452 379.272 428.872 379.14 429.208 378.876L429.838 380.478ZM437.238 380.478C436.974 380.694 436.65 380.856 436.266 380.964C435.894 381.072 435.498 381.126 435.078 381.126C434.022 381.126 433.206 380.85 432.63 380.298C432.054 379.746 431.766 378.942 431.766 377.886V373.26H430.182V371.46H431.766V369.264H434.016V371.46H436.59V373.26H434.016V377.832C434.016 378.3 434.13 378.66 434.358 378.912C434.586 379.152 434.916 379.272 435.348 379.272C435.852 379.272 436.272 379.14 436.608 378.876L437.238 380.478ZM439.089 371.388H441.339V381H439.089V371.388ZM440.223 369.804C439.815 369.804 439.473 369.678 439.197 369.426C438.921 369.162 438.783 368.838 438.783 368.454C438.783 368.07 438.921 367.752 439.197 367.5C439.473 367.236 439.815 367.104 440.223 367.104C440.631 367.104 440.973 367.23 441.249 367.482C441.525 367.722 441.663 368.028 441.663 368.4C441.663 368.796 441.525 369.132 441.249 369.408C440.985 369.672 440.643 369.804 440.223 369.804ZM449.746 371.28C450.958 371.28 451.93 371.634 452.662 372.342C453.394 373.05 453.76 374.1 453.76 375.492V381H451.51V375.78C451.51 374.94 451.312 374.31 450.916 373.89C450.52 373.458 449.956 373.242 449.224 373.242C448.396 373.242 447.742 373.494 447.262 373.998C446.782 374.49 446.542 375.204 446.542 376.14V381H444.292V371.388H446.434V372.63C446.806 372.186 447.274 371.85 447.838 371.622C448.402 371.394 449.038 371.28 449.746 371.28ZM466.243 371.388V379.542C466.243 382.926 464.515 384.618 461.059 384.618C460.135 384.618 459.259 384.498 458.431 384.258C457.603 384.03 456.919 383.694 456.379 383.25L457.387 381.558C457.807 381.906 458.335 382.182 458.971 382.386C459.619 382.602 460.273 382.71 460.933 382.71C461.989 382.71 462.763 382.47 463.255 381.99C463.747 381.51 463.993 380.778 463.993 379.794V379.29C463.609 379.71 463.141 380.028 462.589 380.244C462.037 380.46 461.431 380.568 460.771 380.568C459.859 380.568 459.031 380.376 458.287 379.992C457.555 379.596 456.973 379.044 456.541 378.336C456.121 377.628 455.911 376.818 455.911 375.906C455.911 374.994 456.121 374.19 456.541 373.494C456.973 372.786 457.555 372.24 458.287 371.856C459.031 371.472 459.859 371.28 460.771 371.28C461.467 371.28 462.097 371.394 462.661 371.622C463.237 371.85 463.717 372.198 464.101 372.666V371.388H466.243ZM461.113 378.66C461.965 378.66 462.661 378.408 463.201 377.904C463.753 377.388 464.029 376.722 464.029 375.906C464.029 375.102 463.753 374.448 463.201 373.944C462.661 373.44 461.965 373.188 461.113 373.188C460.249 373.188 459.541 373.44 458.989 373.944C458.449 374.448 458.179 375.102 458.179 375.906C458.179 376.722 458.449 377.388 458.989 377.904C459.541 378.408 460.249 378.66 461.113 378.66ZM474.175 371.388H476.425V381H474.175V371.388ZM475.309 369.804C474.901 369.804 474.559 369.678 474.283 369.426C474.007 369.162 473.869 368.838 473.869 368.454C473.869 368.07 474.007 367.752 474.283 367.5C474.559 367.236 474.901 367.104 475.309 367.104C475.717 367.104 476.059 367.23 476.335 367.482C476.611 367.722 476.749 368.028 476.749 368.4C476.749 368.796 476.611 369.132 476.335 369.408C476.071 369.672 475.729 369.804 475.309 369.804ZM484.832 371.28C486.044 371.28 487.016 371.634 487.748 372.342C488.48 373.05 488.846 374.1 488.846 375.492V381H486.596V375.78C486.596 374.94 486.398 374.31 486.002 373.89C485.606 373.458 485.042 373.242 484.31 373.242C483.482 373.242 482.828 373.494 482.348 373.998C481.868 374.49 481.628 375.204 481.628 376.14V381H479.378V371.388H481.52V372.63C481.892 372.186 482.36 371.85 482.924 371.622C483.488 371.394 484.124 371.28 484.832 371.28ZM501.203 367.644V381H499.043V379.758C498.671 380.214 498.209 380.556 497.657 380.784C497.117 381.012 496.517 381.126 495.857 381.126C494.933 381.126 494.099 380.922 493.355 380.514C492.623 380.106 492.047 379.53 491.627 378.786C491.207 378.03 490.997 377.166 490.997 376.194C490.997 375.222 491.207 374.364 491.627 373.62C492.047 372.876 492.623 372.3 493.355 371.892C494.099 371.484 494.933 371.28 495.857 371.28C496.493 371.28 497.075 371.388 497.603 371.604C498.131 371.82 498.581 372.144 498.953 372.576V367.644H501.203ZM496.127 379.2C496.667 379.2 497.153 379.08 497.585 378.84C498.017 378.588 498.359 378.234 498.611 377.778C498.863 377.322 498.989 376.794 498.989 376.194C498.989 375.594 498.863 375.066 498.611 374.61C498.359 374.154 498.017 373.806 497.585 373.566C497.153 373.314 496.667 373.188 496.127 373.188C495.587 373.188 495.101 373.314 494.669 373.566C494.237 373.806 493.895 374.154 493.643 374.61C493.391 375.066 493.265 375.594 493.265 376.194C493.265 376.794 493.391 377.322 493.643 377.778C493.895 378.234 494.237 378.588 494.669 378.84C495.101 379.08 495.587 379.2 496.127 379.2ZM513.452 371.388V381H511.31V379.776C510.95 380.208 510.5 380.544 509.96 380.784C509.42 381.012 508.838 381.126 508.214 381.126C506.93 381.126 505.916 380.772 505.172 380.064C504.44 379.344 504.074 378.282 504.074 376.878V371.388H506.324V376.572C506.324 377.436 506.516 378.084 506.9 378.516C507.296 378.936 507.854 379.146 508.574 379.146C509.378 379.146 510.014 378.9 510.482 378.408C510.962 377.904 511.202 377.184 511.202 376.248V371.388H513.452ZM519.368 381.126C518.588 381.126 517.826 381.024 517.082 380.82C516.338 380.616 515.744 380.358 515.3 380.046L516.164 378.336C516.596 378.624 517.112 378.858 517.712 379.038C518.324 379.206 518.924 379.29 519.512 379.29C520.856 379.29 521.528 378.936 521.528 378.228C521.528 377.892 521.354 377.658 521.006 377.526C520.67 377.394 520.124 377.268 519.368 377.148C518.576 377.028 517.928 376.89 517.424 376.734C516.932 376.578 516.5 376.308 516.128 375.924C515.768 375.528 515.588 374.982 515.588 374.286C515.588 373.374 515.966 372.648 516.722 372.108C517.49 371.556 518.522 371.28 519.818 371.28C520.478 371.28 521.138 371.358 521.798 371.514C522.458 371.658 522.998 371.856 523.418 372.108L522.554 373.818C521.738 373.338 520.82 373.098 519.8 373.098C519.14 373.098 518.636 373.2 518.288 373.404C517.952 373.596 517.784 373.854 517.784 374.178C517.784 374.538 517.964 374.796 518.324 374.952C518.696 375.096 519.266 375.234 520.034 375.366C520.802 375.486 521.432 375.624 521.924 375.78C522.416 375.936 522.836 376.2 523.184 376.572C523.544 376.944 523.724 377.472 523.724 378.156C523.724 379.056 523.334 379.776 522.554 380.316C521.774 380.856 520.712 381.126 519.368 381.126ZM531.44 380.478C531.176 380.694 530.852 380.856 530.468 380.964C530.096 381.072 529.7 381.126 529.28 381.126C528.224 381.126 527.408 380.85 526.832 380.298C526.256 379.746 525.968 378.942 525.968 377.886V373.26H524.384V371.46H525.968V369.264H528.218V371.46H530.792V373.26H528.218V377.832C528.218 378.3 528.332 378.66 528.56 378.912C528.788 379.152 529.118 379.272 529.55 379.272C530.054 379.272 530.474 379.14 530.81 378.876L531.44 380.478ZM535.432 372.792C536.08 371.784 537.22 371.28 538.852 371.28V373.422C538.66 373.386 538.486 373.368 538.33 373.368C537.454 373.368 536.77 373.626 536.278 374.142C535.786 374.646 535.54 375.378 535.54 376.338V381H533.29V371.388H535.432V372.792ZM550.113 371.388L545.613 381.774C545.193 382.818 544.683 383.55 544.083 383.97C543.483 384.402 542.757 384.618 541.905 384.618C541.425 384.618 540.951 384.54 540.483 384.384C540.015 384.228 539.631 384.012 539.331 383.736L540.231 382.08C540.447 382.284 540.699 382.446 540.987 382.566C541.287 382.686 541.587 382.746 541.887 382.746C542.283 382.746 542.607 382.644 542.859 382.44C543.123 382.236 543.363 381.894 543.579 381.414L543.741 381.036L539.547 371.388H541.887L544.911 378.498L547.953 371.388H550.113ZM551.641 381.126C551.233 381.126 550.885 380.988 550.597 380.712C550.309 380.424 550.165 380.064 550.165 379.632C550.165 379.188 550.303 378.828 550.579 378.552C550.867 378.276 551.221 378.138 551.641 378.138C552.061 378.138 552.409 378.276 552.685 378.552C552.973 378.828 553.117 379.188 553.117 379.632C553.117 380.064 552.973 380.424 552.685 380.712C552.397 380.988 552.049 381.126 551.641 381.126Z" fill="white"/>
<defs>
<filter id="filter0_d" x="0.911343" y="0.345306" width="695.228" height="665.628" filterUnits="userSpaceOnUse" color-interpolation-filters="sRGB">
<feFlood flood-opacity="0" result="BackgroundImageFix"/>
<feColorMatrix in="SourceAlpha" type="matrix" values="0 0 0 0 0 0 0 0 0 0 0 0 0 0 0 0 0 0 127 0"/>
<feOffset dy="4"/>
<feGaussianBlur stdDeviation="2"/>
<feColorMatrix type="matrix" values="0 0 0 0 0 0 0 0 0 0 0 0 0 0 0 0 0 0 0.25 0"/>
<feBlend mode="normal" in2="BackgroundImageFix" result="effect1_dropShadow"/>
<feBlend mode="normal" in="SourceGraphic" in2="effect1_dropShadow" result="shape"/>
</filter>
<linearGradient id="paint0_linear" x1="330.547" y1="-23.2092" x2="330.547" y2="654" gradientUnits="userSpaceOnUse">
<stop stop-color="#7970AE"/>
<stop offset="1" stop-color="white" stop-opacity="0"/>
</linearGradient>
<linearGradient id="paint1_linear" x1="149.012" y1="-8.54109" x2="522.506" y2="662.831" gradientUnits="userSpaceOnUse">
<stop stop-color="#B37B9C"/>
<stop offset="0.429165" stop-color="#E9A4CC" stop-opacity="0.547155"/>
<stop offset="1" stop-color="white" stop-opacity="0"/>
</linearGradient>
</defs>
</svg>
