<svg width="159" height="33" viewBox="0 0 159 33" fill="none" xmlns="http://www.w3.org/2000/svg">
<g filter="url(#filter0_d)">
<rect x="4" width="151" height="25" rx="4" fill="#050E2E"/>
<path d="M29.5928 8.6H31.1528V15.68H35.5448V17H29.5928V8.6ZM40.5481 17.12C39.6921 17.12 38.9201 16.936 38.2321 16.568C37.5441 16.192 37.0041 15.676 36.6121 15.02C36.2201 14.356 36.0241 13.616 36.0241 12.8C36.0241 11.984 36.2201 11.248 36.6121 10.592C37.0041 9.928 37.5441 9.412 38.2321 9.044C38.9201 8.668 39.6921 8.48 40.5481 8.48C41.4041 8.48 42.1761 8.668 42.8641 9.044C43.5521 9.412 44.0921 9.924 44.4841 10.58C44.8761 11.236 45.0721 11.976 45.0721 12.8C45.0721 13.624 44.8761 14.364 44.4841 15.02C44.0921 15.676 43.5521 16.192 42.8641 16.568C42.1761 16.936 41.4041 17.12 40.5481 17.12ZM40.5481 15.752C41.1081 15.752 41.6121 15.628 42.0601 15.38C42.5081 15.124 42.8601 14.772 43.1161 14.324C43.3721 13.868 43.5001 13.36 43.5001 12.8C43.5001 12.24 43.3721 11.736 43.1161 11.288C42.8601 10.832 42.5081 10.48 42.0601 10.232C41.6121 9.976 41.1081 9.848 40.5481 9.848C39.9881 9.848 39.4841 9.976 39.0361 10.232C38.5881 10.48 38.2361 10.832 37.9801 11.288C37.7241 11.736 37.5961 12.24 37.5961 12.8C37.5961 13.36 37.7241 13.868 37.9801 14.324C38.2361 14.772 38.5881 15.124 39.0361 15.38C39.4841 15.628 39.9881 15.752 40.5481 15.752ZM52.4617 12.704H53.9377V16.052C53.5057 16.396 53.0017 16.66 52.4257 16.844C51.8497 17.028 51.2577 17.12 50.6497 17.12C49.7937 17.12 49.0217 16.936 48.3337 16.568C47.6457 16.192 47.1057 15.676 46.7137 15.02C46.3217 14.364 46.1257 13.624 46.1257 12.8C46.1257 11.976 46.3217 11.236 46.7137 10.58C47.1057 9.924 47.6457 9.412 48.3337 9.044C49.0297 8.668 49.8097 8.48 50.6737 8.48C51.3777 8.48 52.0177 8.596 52.5937 8.828C53.1697 9.06 53.6537 9.4 54.0457 9.848L53.0617 10.808C52.4217 10.168 51.6497 9.848 50.7457 9.848C50.1537 9.848 49.6257 9.972 49.1617 10.22C48.7057 10.468 48.3457 10.816 48.0817 11.264C47.8257 11.712 47.6977 12.224 47.6977 12.8C47.6977 13.36 47.8257 13.864 48.0817 14.312C48.3457 14.76 48.7057 15.112 49.1617 15.368C49.6257 15.624 50.1497 15.752 50.7337 15.752C51.3897 15.752 51.9657 15.608 52.4617 15.32V12.704ZM55.9952 8.6H57.5552V17H55.9952V8.6ZM67.2912 8.6V17H66.0072L61.3752 11.312V17H59.8272V8.6H61.1112L65.7432 14.288V8.6H67.2912ZM72.8585 8.096H74.2385V19.328H72.8585V8.096ZM82.4117 17.12C81.7637 17.12 81.1357 17.028 80.5277 16.844C79.9277 16.66 79.4517 16.416 79.0997 16.112L79.6397 14.9C79.9837 15.172 80.4037 15.396 80.8997 15.572C81.4037 15.74 81.9077 15.824 82.4117 15.824C83.0357 15.824 83.4997 15.724 83.8037 15.524C84.1157 15.324 84.2717 15.06 84.2717 14.732C84.2717 14.492 84.1837 14.296 84.0077 14.144C83.8397 13.984 83.6237 13.86 83.3597 13.772C83.0957 13.684 82.7357 13.584 82.2797 13.472C81.6397 13.32 81.1197 13.168 80.7197 13.016C80.3277 12.864 79.9877 12.628 79.6997 12.308C79.4197 11.98 79.2797 11.54 79.2797 10.988C79.2797 10.524 79.4037 10.104 79.6517 9.728C79.9077 9.344 80.2877 9.04 80.7917 8.816C81.3037 8.592 81.9277 8.48 82.6637 8.48C83.1757 8.48 83.6797 8.544 84.1757 8.672C84.6717 8.8 85.0997 8.984 85.4597 9.224L84.9677 10.436C84.5997 10.22 84.2157 10.056 83.8157 9.944C83.4157 9.832 83.0277 9.776 82.6517 9.776C82.0357 9.776 81.5757 9.88 81.2717 10.088C80.9757 10.296 80.8277 10.572 80.8277 10.916C80.8277 11.156 80.9117 11.352 81.0797 11.504C81.2557 11.656 81.4757 11.776 81.7397 11.864C82.0037 11.952 82.3637 12.052 82.8197 12.164C83.4437 12.308 83.9557 12.46 84.3557 12.62C84.7557 12.772 85.0957 13.008 85.3757 13.328C85.6637 13.648 85.8077 14.08 85.8077 14.624C85.8077 15.088 85.6797 15.508 85.4237 15.884C85.1757 16.26 84.7957 16.56 84.2837 16.784C83.7717 17.008 83.1477 17.12 82.4117 17.12ZM87.3546 8.6H88.9146V17H87.3546V8.6ZM96.9226 12.704H98.3986V16.052C97.9666 16.396 97.4626 16.66 96.8866 16.844C96.3106 17.028 95.7186 17.12 95.1106 17.12C94.2546 17.12 93.4826 16.936 92.7946 16.568C92.1066 16.192 91.5666 15.676 91.1746 15.02C90.7826 14.364 90.5866 13.624 90.5866 12.8C90.5866 11.976 90.7826 11.236 91.1746 10.58C91.5666 9.924 92.1066 9.412 92.7946 9.044C93.4906 8.668 94.2706 8.48 95.1346 8.48C95.8386 8.48 96.4786 8.596 97.0546 8.828C97.6306 9.06 98.1146 9.4 98.5066 9.848L97.5226 10.808C96.8826 10.168 96.1106 9.848 95.2066 9.848C94.6146 9.848 94.0866 9.972 93.6226 10.22C93.1666 10.468 92.8066 10.816 92.5426 11.264C92.2866 11.712 92.1586 12.224 92.1586 12.8C92.1586 13.36 92.2866 13.864 92.5426 14.312C92.8066 14.76 93.1666 15.112 93.6226 15.368C94.0866 15.624 94.6106 15.752 95.1946 15.752C95.8506 15.752 96.4266 15.608 96.9226 15.32V12.704ZM107.92 8.6V17H106.636L102.004 11.312V17H100.456V8.6H101.74L106.372 14.288V8.6H107.92ZM117.099 17.12C115.939 17.12 115.035 16.796 114.387 16.148C113.739 15.492 113.415 14.556 113.415 13.34V8.6H114.975V13.28C114.975 14.928 115.687 15.752 117.111 15.752C118.527 15.752 119.235 14.928 119.235 13.28V8.6H120.771V13.34C120.771 14.556 120.447 15.492 119.799 16.148C119.159 16.796 118.259 17.12 117.099 17.12ZM126.412 8.6C127.14 8.6 127.772 8.72 128.308 8.96C128.852 9.2 129.268 9.544 129.556 9.992C129.844 10.44 129.988 10.972 129.988 11.588C129.988 12.196 129.844 12.728 129.556 13.184C129.268 13.632 128.852 13.976 128.308 14.216C127.772 14.456 127.14 14.576 126.412 14.576H124.516V17H122.956V8.6H126.412ZM126.34 13.256C127.02 13.256 127.536 13.112 127.888 12.824C128.24 12.536 128.416 12.124 128.416 11.588C128.416 11.052 128.24 10.64 127.888 10.352C127.536 10.064 127.02 9.92 126.34 9.92H124.516V13.256H126.34Z" fill="white"/>
<path d="M29.5928 8.6V8.4C29.4824 8.4 29.3928 8.48954 29.3928 8.6H29.5928ZM31.1528 8.6H31.3528C31.3528 8.48954 31.2633 8.4 31.1528 8.4V8.6ZM31.1528 15.68H30.9528C30.9528 15.7905 31.0424 15.88 31.1528 15.88V15.68ZM35.5448 15.68H35.7448C35.7448 15.5695 35.6553 15.48 35.5448 15.48V15.68ZM35.5448 17V17.2C35.6553 17.2 35.7448 17.1105 35.7448 17H35.5448ZM29.5928 17H29.3928C29.3928 17.1105 29.4824 17.2 29.5928 17.2V17ZM29.5928 8.8H31.1528V8.4H29.5928V8.8ZM30.9528 8.6V15.68H31.3528V8.6H30.9528ZM31.1528 15.88H35.5448V15.48H31.1528V15.88ZM35.3448 15.68V17H35.7448V15.68H35.3448ZM35.5448 16.8H29.5928V17.2H35.5448V16.8ZM29.7928 17V8.6H29.3928V17H29.7928ZM38.2321 16.568L38.1362 16.7435L38.1378 16.7444L38.2321 16.568ZM36.6121 15.02L36.4399 15.1217L36.4404 15.1226L36.6121 15.02ZM36.6121 10.592L36.7838 10.6946L36.7843 10.6937L36.6121 10.592ZM38.2321 9.044L38.3264 9.22036L38.328 9.2195L38.2321 9.044ZM42.8641 9.044L42.7682 9.21951L42.7698 9.22036L42.8641 9.044ZM44.4841 10.58L44.3124 10.6826L44.3124 10.6826L44.4841 10.58ZM44.4841 15.02L44.3124 14.9174L44.3124 14.9174L44.4841 15.02ZM42.8641 16.568L42.9584 16.7444L42.96 16.7435L42.8641 16.568ZM42.0601 15.38L42.157 15.555L42.1593 15.5536L42.0601 15.38ZM43.1161 14.324L43.2897 14.4232L43.2905 14.4219L43.1161 14.324ZM43.1161 11.288L42.9417 11.3859L42.9424 11.3872L43.1161 11.288ZM42.0601 10.232L41.9609 10.4057L41.9632 10.407L42.0601 10.232ZM39.0361 10.232L39.133 10.407L39.1353 10.4056L39.0361 10.232ZM37.9801 11.288L38.1537 11.3872L38.1545 11.3859L37.9801 11.288ZM37.9801 14.324L37.8057 14.4219L37.8064 14.4232L37.9801 14.324ZM39.0361 15.38L38.9369 15.5537L38.9392 15.555L39.0361 15.38ZM40.5481 16.92C39.7217 16.92 38.9827 16.7427 38.3264 16.3916L38.1378 16.7444C38.8575 17.1293 39.6624 17.32 40.5481 17.32V16.92ZM38.328 16.3925C37.6705 16.0331 37.157 15.542 36.7838 14.9174L36.4404 15.1226C36.8512 15.81 37.4177 16.3509 38.1362 16.7435L38.328 16.3925ZM36.7843 14.9183C36.4116 14.2869 36.2241 13.5824 36.2241 12.8H35.8241C35.8241 13.6496 36.0286 14.4251 36.4399 15.1217L36.7843 14.9183ZM36.2241 12.8C36.2241 12.0176 36.4116 11.3175 36.7838 10.6946L36.4404 10.4894C36.0286 11.1785 35.8241 11.9504 35.8241 12.8H36.2241ZM36.7843 10.6937C37.1575 10.0616 37.6703 9.57129 38.3264 9.22036L38.1378 8.86764C37.4179 9.25271 36.8507 9.79437 36.4399 10.4903L36.7843 10.6937ZM38.328 9.2195C38.9839 8.86102 39.7225 8.68 40.5481 8.68V8.28C39.6617 8.28 38.8562 8.47498 38.1362 8.8685L38.328 9.2195ZM40.5481 8.68C41.3737 8.68 42.1122 8.86102 42.7682 9.2195L42.96 8.8685C42.2399 8.47498 41.4345 8.28 40.5481 8.28V8.68ZM42.7698 9.22036C43.4265 9.57162 43.9394 10.0584 44.3124 10.6826L44.6558 10.4774C44.2448 9.78958 43.6777 9.25238 42.9584 8.86764L42.7698 9.22036ZM44.3124 10.6826C44.6844 11.3052 44.8721 12.0092 44.8721 12.8H45.2721C45.2721 11.9428 45.0678 11.1668 44.6558 10.4774L44.3124 10.6826ZM44.8721 12.8C44.8721 13.5908 44.6844 14.2948 44.3124 14.9174L44.6558 15.1226C45.0678 14.4332 45.2721 13.6572 45.2721 12.8H44.8721ZM44.3124 14.9174C43.9392 15.542 43.4257 16.0331 42.7682 16.3925L42.96 16.7435C43.6785 16.3509 44.245 15.81 44.6558 15.1226L44.3124 14.9174ZM42.7698 16.3916C42.1135 16.7427 41.3744 16.92 40.5481 16.92V17.32C41.4337 17.32 42.2387 17.1293 42.9584 16.7444L42.7698 16.3916ZM40.5481 15.952C41.1387 15.952 41.6766 15.8209 42.157 15.555L41.9632 15.205C41.5476 15.4351 41.0775 15.552 40.5481 15.552V15.952ZM42.1593 15.5536C42.6383 15.2799 43.016 14.9022 43.2897 14.4232L42.9424 14.2248C42.7042 14.6418 42.3779 14.9681 41.9609 15.2064L42.1593 15.5536ZM43.2905 14.4219C43.5645 13.9339 43.7001 13.3918 43.7001 12.8H43.3001C43.3001 13.3282 43.1797 13.8021 42.9417 14.2261L43.2905 14.4219ZM43.7001 12.8C43.7001 12.2083 43.5645 11.6695 43.2897 11.1888L42.9424 11.3872C43.1797 11.8025 43.3001 12.2717 43.3001 12.8H43.7001ZM43.2905 11.1901C43.0167 10.7024 42.6382 10.3234 42.157 10.057L41.9632 10.407C42.378 10.6366 42.7035 10.9616 42.9417 11.3859L43.2905 11.1901ZM42.1593 10.0584C41.6786 9.78363 41.1398 9.648 40.5481 9.648V10.048C41.0763 10.048 41.5456 10.1684 41.9609 10.4056L42.1593 10.0584ZM40.5481 9.648C39.9563 9.648 39.4176 9.78363 38.9369 10.0584L39.1353 10.4056C39.5506 10.1684 40.0198 10.048 40.5481 10.048V9.648ZM38.9392 10.057C38.458 10.3234 38.0795 10.7024 37.8057 11.1901L38.1545 11.3859C38.3927 10.9616 38.7182 10.6366 39.133 10.407L38.9392 10.057ZM37.8064 11.1888C37.5317 11.6695 37.3961 12.2083 37.3961 12.8H37.7961C37.7961 12.2717 37.9165 11.8025 38.1537 11.3872L37.8064 11.1888ZM37.3961 12.8C37.3961 13.3918 37.5317 13.9339 37.8057 14.4219L38.1545 14.2261C37.9165 13.8021 37.7961 13.3282 37.7961 12.8H37.3961ZM37.8064 14.4232C38.0802 14.9022 38.4579 15.2799 38.9369 15.5536L39.1353 15.2064C38.7183 14.9681 38.392 14.6418 38.1537 14.2248L37.8064 14.4232ZM38.9392 15.555C39.4196 15.8209 39.9575 15.952 40.5481 15.952V15.552C40.0187 15.552 39.5486 15.4351 39.133 15.205L38.9392 15.555ZM52.4617 12.704V12.504C52.3512 12.504 52.2617 12.5935 52.2617 12.704H52.4617ZM53.9377 12.704H54.1377C54.1377 12.5935 54.0481 12.504 53.9377 12.504V12.704ZM53.9377 16.052L54.0622 16.2085C54.1099 16.1705 54.1377 16.1129 54.1377 16.052H53.9377ZM52.4257 16.844L52.3648 16.6535L52.3648 16.6535L52.4257 16.844ZM48.3337 16.568L48.2377 16.7435L48.2393 16.7444L48.3337 16.568ZM46.7137 15.02L46.542 15.1226L46.542 15.1226L46.7137 15.02ZM46.7137 10.58L46.542 10.4774L46.542 10.4774L46.7137 10.58ZM48.3337 9.044L48.428 9.22036L48.4287 9.21996L48.3337 9.044ZM52.5937 8.828L52.6684 8.64248L52.6684 8.64248L52.5937 8.828ZM54.0457 9.848L54.1853 9.99116C54.2614 9.91696 54.2661 9.79626 54.1962 9.7163L54.0457 9.848ZM53.0617 10.808L52.9202 10.9494C52.9977 11.0268 53.1229 11.0276 53.2013 10.9512L53.0617 10.808ZM49.1617 10.22L49.0674 10.0436L49.0661 10.0443L49.1617 10.22ZM48.0817 11.264L47.9093 11.1625L47.908 11.1648L48.0817 11.264ZM48.0817 14.312L47.908 14.4112L47.9093 14.4135L48.0817 14.312ZM49.1617 15.368L49.0637 15.5424L49.065 15.5431L49.1617 15.368ZM52.4617 15.32L52.5621 15.493C52.6237 15.4572 52.6617 15.3913 52.6617 15.32H52.4617ZM52.4617 12.904H53.9377V12.504H52.4617V12.904ZM53.7377 12.704V16.052H54.1377V12.704H53.7377ZM53.8131 15.8955C53.4018 16.223 52.9199 16.4762 52.3648 16.6535L52.4865 17.0345C53.0835 16.8438 53.6095 16.569 54.0622 16.2085L53.8131 15.8955ZM52.3648 16.6535C51.8086 16.8312 51.2371 16.92 50.6497 16.92V17.32C51.2782 17.32 51.8907 17.2248 52.4865 17.0345L52.3648 16.6535ZM50.6497 16.92C49.8233 16.92 49.0842 16.7427 48.428 16.3916L48.2393 16.7444C48.9591 17.1293 49.764 17.32 50.6497 17.32V16.92ZM48.4296 16.3925C47.772 16.0331 47.2585 15.542 46.8853 14.9174L46.542 15.1226C46.9528 15.81 47.5193 16.3509 48.2377 16.7435L48.4296 16.3925ZM46.8853 14.9174C46.5133 14.2948 46.3257 13.5908 46.3257 12.8H45.9257C45.9257 13.6572 46.13 14.4332 46.542 15.1226L46.8853 14.9174ZM46.3257 12.8C46.3257 12.0092 46.5133 11.3052 46.8853 10.6826L46.542 10.4774C46.13 11.1668 45.9257 11.9428 45.9257 12.8H46.3257ZM46.8853 10.6826C47.2583 10.0584 47.7713 9.57162 48.428 9.22036L48.2393 8.86764C47.52 9.25238 46.953 9.78958 46.542 10.4774L46.8853 10.6826ZM48.4287 9.21996C49.0929 8.86116 49.8397 8.68 50.6737 8.68V8.28C49.7796 8.28 48.9664 8.47484 48.2386 8.86804L48.4287 9.21996ZM50.6737 8.68C51.3555 8.68 51.9696 8.79228 52.5189 9.01352L52.6684 8.64248C52.0657 8.39972 51.3999 8.28 50.6737 8.28V8.68ZM52.5189 9.01352C53.0671 9.2343 53.5247 9.55637 53.8951 9.9797L54.1962 9.7163C53.7826 9.24363 53.2722 8.8857 52.6684 8.64248L52.5189 9.01352ZM53.906 9.70484L52.922 10.6648L53.2013 10.9512L54.1853 9.99116L53.906 9.70484ZM53.2031 10.6666C52.5256 9.98912 51.7028 9.648 50.7457 9.648V10.048C51.5965 10.048 52.3177 10.3469 52.9202 10.9494L53.2031 10.6666ZM50.7457 9.648C50.1249 9.648 49.5639 9.77825 49.0674 10.0436L49.2559 10.3964C49.6875 10.1657 50.1824 10.048 50.7457 10.048V9.648ZM49.0661 10.0443C48.5782 10.3096 48.1917 10.6833 47.9093 11.1625L48.254 11.3655C48.4996 10.9487 48.8331 10.6264 49.2572 10.3957L49.0661 10.0443ZM47.908 11.1648C47.6328 11.6464 47.4977 12.1933 47.4977 12.8H47.8977C47.8977 12.2547 48.0185 11.7776 48.2553 11.3632L47.908 11.1648ZM47.4977 12.8C47.4977 13.3917 47.6333 13.9305 47.908 14.4112L48.2553 14.2128C48.018 13.7975 47.8977 13.3283 47.8977 12.8H47.4977ZM47.9093 14.4135C48.1914 14.8921 48.5771 15.2692 49.0637 15.5424L49.2596 15.1936C48.8342 14.9548 48.4999 14.6279 48.254 14.2105L47.9093 14.4135ZM49.065 15.5431C49.5616 15.8171 50.1194 15.952 50.7337 15.952V15.552C50.1799 15.552 49.6897 15.4309 49.2583 15.1929L49.065 15.5431ZM50.7337 15.952C51.4198 15.952 52.0314 15.8011 52.5621 15.493L52.3612 15.147C51.8999 15.4149 51.3595 15.552 50.7337 15.552V15.952ZM52.6617 15.32V12.704H52.2617V15.32H52.6617ZM55.9952 8.6V8.4C55.8847 8.4 55.7952 8.48954 55.7952 8.6H55.9952ZM57.5552 8.6H57.7552C57.7552 8.48954 57.6656 8.4 57.5552 8.4V8.6ZM57.5552 17V17.2C57.6656 17.2 57.7552 17.1105 57.7552 17H57.5552ZM55.9952 17H55.7952C55.7952 17.1105 55.8847 17.2 55.9952 17.2V17ZM55.9952 8.8H57.5552V8.4H55.9952V8.8ZM57.3552 8.6V17H57.7552V8.6H57.3552ZM57.5552 16.8H55.9952V17.2H57.5552V16.8ZM56.1952 17V8.6H55.7952V17H56.1952ZM67.2912 8.6H67.4912C67.4912 8.48954 67.4017 8.4 67.2912 8.4V8.6ZM67.2912 17V17.2C67.4017 17.2 67.4912 17.1105 67.4912 17H67.2912ZM66.0072 17L65.8521 17.1263C65.8901 17.1729 65.9471 17.2 66.0072 17.2V17ZM61.3752 11.312L61.5303 11.1857C61.4769 11.1201 61.3879 11.0952 61.3082 11.1236C61.2285 11.1519 61.1752 11.2274 61.1752 11.312H61.3752ZM61.3752 17V17.2C61.4857 17.2 61.5752 17.1105 61.5752 17H61.3752ZM59.8272 17H59.6272C59.6272 17.1105 59.7168 17.2 59.8272 17.2V17ZM59.8272 8.6V8.4C59.7168 8.4 59.6272 8.48954 59.6272 8.6H59.8272ZM61.1112 8.6L61.2663 8.47371C61.2283 8.42707 61.1714 8.4 61.1112 8.4V8.6ZM65.7432 14.288L65.5881 14.4143C65.6416 14.4799 65.7305 14.5048 65.8102 14.4764C65.89 14.4481 65.9432 14.3726 65.9432 14.288H65.7432ZM65.7432 8.6V8.4C65.6328 8.4 65.5432 8.48954 65.5432 8.6H65.7432ZM67.0912 8.6V17H67.4912V8.6H67.0912ZM67.2912 16.8H66.0072V17.2H67.2912V16.8ZM66.1623 16.8737L61.5303 11.1857L61.2201 11.4383L65.8521 17.1263L66.1623 16.8737ZM61.1752 11.312V17H61.5752V11.312H61.1752ZM61.3752 16.8H59.8272V17.2H61.3752V16.8ZM60.0272 17V8.6H59.6272V17H60.0272ZM59.8272 8.8H61.1112V8.4H59.8272V8.8ZM60.9561 8.72629L65.5881 14.4143L65.8983 14.1617L61.2663 8.47371L60.9561 8.72629ZM65.9432 14.288V8.6H65.5432V14.288H65.9432ZM65.7432 8.8H67.2912V8.4H65.7432V8.8ZM72.8585 8.096V7.896C72.748 7.896 72.6585 7.98554 72.6585 8.096H72.8585ZM74.2385 8.096H74.4385C74.4385 7.98554 74.3489 7.896 74.2385 7.896V8.096ZM74.2385 19.328V19.528C74.3489 19.528 74.4385 19.4385 74.4385 19.328H74.2385ZM72.8585 19.328H72.6585C72.6585 19.4385 72.748 19.528 72.8585 19.528V19.328ZM72.8585 8.296H74.2385V7.896H72.8585V8.296ZM74.0385 8.096V19.328H74.4385V8.096H74.0385ZM74.2385 19.128H72.8585V19.528H74.2385V19.128ZM73.0585 19.328V8.096H72.6585V19.328H73.0585ZM80.5277 16.844L80.469 17.0352L80.4698 17.0354L80.5277 16.844ZM79.0997 16.112L78.917 16.0306C78.8811 16.1112 78.9022 16.2057 78.969 16.2634L79.0997 16.112ZM79.6397 14.9L79.7637 14.7431C79.7153 14.7048 79.6519 14.691 79.5919 14.7058C79.5319 14.7206 79.4821 14.7622 79.457 14.8186L79.6397 14.9ZM80.8997 15.572L80.8328 15.7605L80.8364 15.7617L80.8997 15.572ZM83.8037 15.524L83.6957 15.3556L83.6938 15.3569L83.8037 15.524ZM84.0077 14.144L83.8696 14.289L83.877 14.2954L84.0077 14.144ZM83.3597 13.772L83.4229 13.5823L83.4229 13.5823L83.3597 13.772ZM82.2797 13.472L82.3274 13.2778L82.3259 13.2774L82.2797 13.472ZM80.7197 13.016L80.6474 13.2025L80.6486 13.203L80.7197 13.016ZM79.6997 12.308L79.5475 12.4379L79.551 12.4418L79.6997 12.308ZM79.6517 9.728L79.4853 9.61706L79.4847 9.61788L79.6517 9.728ZM80.7917 8.816L80.7115 8.63276L80.7105 8.63324L80.7917 8.816ZM84.1757 8.672L84.1257 8.86566L84.1257 8.86566L84.1757 8.672ZM85.4597 9.224L85.645 9.29923C85.6807 9.21124 85.6496 9.11027 85.5706 9.05759L85.4597 9.224ZM84.9677 10.436L84.8664 10.6085C84.9165 10.6379 84.977 10.6441 85.032 10.6254C85.087 10.6067 85.1312 10.5651 85.153 10.5112L84.9677 10.436ZM83.8157 9.944L83.7618 10.1366L83.7618 10.1366L83.8157 9.944ZM81.2717 10.088L81.1587 9.92293L81.1567 9.92436L81.2717 10.088ZM81.0797 11.504L80.9455 11.6523L80.949 11.6554L81.0797 11.504ZM81.7397 11.864L81.8029 11.6743L81.8029 11.6743L81.7397 11.864ZM82.8197 12.164L82.772 12.3582L82.7747 12.3589L82.8197 12.164ZM84.3557 12.62L84.2814 12.8057L84.2846 12.807L84.3557 12.62ZM85.3757 13.328L85.2252 13.4597L85.227 13.4618L85.3757 13.328ZM85.4237 15.884L85.2584 15.7714L85.2567 15.7739L85.4237 15.884ZM84.2837 16.784L84.2035 16.6008L84.2035 16.6008L84.2837 16.784ZM82.4117 16.92C81.7829 16.92 81.1745 16.8308 80.5856 16.6526L80.4698 17.0354C81.0969 17.2252 81.7445 17.32 82.4117 17.32V16.92ZM80.5863 16.6528C80.0041 16.4742 79.5554 16.2413 79.2304 15.9606L78.969 16.2634C79.3479 16.5907 79.8513 16.8458 80.469 17.0352L80.5863 16.6528ZM79.2824 16.1934L79.8224 14.9814L79.457 14.8186L78.917 16.0306L79.2824 16.1934ZM79.5156 15.0569C79.8799 15.3449 80.3202 15.5786 80.8328 15.7605L80.9666 15.3835C80.4872 15.2134 80.0875 14.9991 79.7637 14.7431L79.5156 15.0569ZM80.8364 15.7617C81.3597 15.9362 81.8851 16.024 82.4117 16.024V15.624C81.9303 15.624 81.4476 15.5438 80.9629 15.3823L80.8364 15.7617ZM82.4117 16.024C83.05 16.024 83.5611 15.923 83.9136 15.6911L83.6938 15.3569C83.4383 15.525 83.0214 15.624 82.4117 15.624V16.024ZM83.9116 15.6924C84.2722 15.4612 84.4717 15.138 84.4717 14.732H84.0717C84.0717 14.982 83.9592 15.1868 83.6958 15.3556L83.9116 15.6924ZM84.4717 14.732C84.4717 14.436 84.36 14.184 84.1384 13.9926L83.877 14.2954C84.0074 14.408 84.0717 14.548 84.0717 14.732H84.4717ZM84.1456 13.9992C83.9525 13.8153 83.7093 13.6777 83.4229 13.5823L83.2964 13.9617C83.538 14.0423 83.7269 14.1527 83.8698 14.2888L84.1456 13.9992ZM83.4229 13.5823C83.1515 13.4918 82.7856 13.3903 82.3274 13.2778L82.232 13.6662C82.6858 13.7777 83.0398 13.8762 83.2964 13.9617L83.4229 13.5823ZM82.3259 13.2774C81.6904 13.1265 81.1796 12.9768 80.7907 12.829L80.6486 13.203C81.0598 13.3592 81.589 13.5135 82.2335 13.6666L82.3259 13.2774ZM80.792 12.8295C80.4299 12.6891 80.1159 12.4715 79.8483 12.1742L79.551 12.4418C79.8595 12.7845 80.2254 13.0389 80.6474 13.2025L80.792 12.8295ZM79.8518 12.1781C79.6105 11.8955 79.4797 11.506 79.4797 10.988H79.0797C79.0797 11.574 79.2288 12.0645 79.5476 12.4379L79.8518 12.1781ZM79.4797 10.988C79.4797 10.5619 79.5929 10.1804 79.8186 9.83812L79.4847 9.61788C79.2145 10.0276 79.0797 10.4861 79.0797 10.988H79.4797ZM79.8181 9.83894C80.0493 9.49215 80.3967 9.21041 80.8729 8.99876L80.7105 8.63324C80.1787 8.86959 79.7661 9.19585 79.4853 9.61706L79.8181 9.83894ZM80.8719 8.99923C81.3519 8.7892 81.947 8.68 82.6637 8.68V8.28C81.9084 8.28 81.2555 8.3948 80.7115 8.63277L80.8719 8.99923ZM82.6637 8.68C83.1588 8.68 83.646 8.74187 84.1257 8.86566L84.2257 8.47834C83.7133 8.34613 83.1926 8.28 82.6637 8.28V8.68ZM84.1257 8.86566C84.6039 8.98906 85.0105 9.16489 85.3487 9.39041L85.5706 9.05759C85.1889 8.80311 84.7395 8.61094 84.2257 8.47834L84.1257 8.86566ZM85.2744 9.14877L84.7824 10.3608L85.153 10.5112L85.645 9.29923L85.2744 9.14877ZM85.0689 10.2635C84.6865 10.039 84.2866 9.86817 83.8696 9.75141L83.7618 10.1366C84.1447 10.2438 84.5129 10.401 84.8664 10.6085L85.0689 10.2635ZM83.8696 9.75141C83.4539 9.635 83.0477 9.576 82.6517 9.576V9.976C83.0077 9.976 83.3775 10.029 83.7618 10.1366L83.8696 9.75141ZM82.6517 9.576C82.0198 9.576 81.5116 9.68148 81.1588 9.92294L81.3846 10.2531C81.6397 10.0785 82.0516 9.976 82.6517 9.976V9.576ZM81.1567 9.92436C80.8107 10.1675 80.6277 10.503 80.6277 10.916H81.0277C81.0277 10.641 81.1407 10.4245 81.3867 10.2516L81.1567 9.92436ZM80.6277 10.916C80.6277 11.2087 80.7329 11.4599 80.9455 11.6523L81.2139 11.3557C81.0905 11.2441 81.0277 11.1033 81.0277 10.916H80.6277ZM80.949 11.6554C81.1482 11.8274 81.3924 11.9591 81.6764 12.0537L81.8029 11.6743C81.5589 11.5929 81.3632 11.4846 81.2104 11.3526L80.949 11.6554ZM81.6764 12.0537C81.9478 12.1442 82.3138 12.2457 82.772 12.3582L82.8674 11.9698C82.4136 11.8583 82.0595 11.7598 81.8029 11.6743L81.6764 12.0537ZM82.7747 12.3589C83.393 12.5016 83.8943 12.6509 84.2814 12.8057L84.43 12.4343C84.0171 12.2691 83.4943 12.1144 82.8647 11.9691L82.7747 12.3589ZM84.2846 12.807C84.6542 12.9474 84.9669 13.1645 85.2252 13.4597L85.5262 13.1963C85.2245 12.8515 84.8571 12.5966 84.4267 12.433L84.2846 12.807ZM85.227 13.4618C85.4739 13.7361 85.6077 14.1159 85.6077 14.624H86.0077C86.0077 14.0441 85.8534 13.5599 85.5243 13.1942L85.227 13.4618ZM85.6077 14.624C85.6077 15.0487 85.4913 15.4293 85.2584 15.7714L85.589 15.9966C85.8681 15.5867 86.0077 15.1273 86.0077 14.624H85.6077ZM85.2567 15.7739C85.0346 16.1107 84.6887 16.3885 84.2035 16.6008L84.3639 16.9672C84.9027 16.7315 85.3168 16.4093 85.5906 15.9941L85.2567 15.7739ZM84.2035 16.6008C83.7235 16.8108 83.1284 16.92 82.4117 16.92V17.32C83.167 17.32 83.8199 17.2052 84.3639 16.9672L84.2035 16.6008ZM87.3546 8.6V8.4C87.2441 8.4 87.1546 8.48954 87.1546 8.6H87.3546ZM88.9146 8.6H89.1146C89.1146 8.48954 89.025 8.4 88.9146 8.4V8.6ZM88.9146 17V17.2C89.025 17.2 89.1146 17.1105 89.1146 17H88.9146ZM87.3546 17H87.1546C87.1546 17.1105 87.2441 17.2 87.3546 17.2V17ZM87.3546 8.8H88.9146V8.4H87.3546V8.8ZM88.7146 8.6V17H89.1146V8.6H88.7146ZM88.9146 16.8H87.3546V17.2H88.9146V16.8ZM87.5546 17V8.6H87.1546V17H87.5546ZM96.9226 12.704V12.504C96.8121 12.504 96.7226 12.5935 96.7226 12.704H96.9226ZM98.3986 12.704H98.5986C98.5986 12.5935 98.5091 12.504 98.3986 12.504V12.704ZM98.3986 16.052L98.5232 16.2085C98.5708 16.1705 98.5986 16.1129 98.5986 16.052H98.3986ZM96.8866 16.844L96.8257 16.6535L96.8257 16.6535L96.8866 16.844ZM92.7946 16.568L92.6987 16.7435L92.7003 16.7444L92.7946 16.568ZM91.1746 15.02L91.0029 15.1226L91.0029 15.1226L91.1746 15.02ZM91.1746 10.58L91.0029 10.4774L91.0029 10.4774L91.1746 10.58ZM92.7946 9.044L92.8889 9.22036L92.8897 9.21996L92.7946 9.044ZM97.0546 8.828L97.1293 8.64248L97.1293 8.64248L97.0546 8.828ZM98.5066 9.848L98.6463 9.99116C98.7223 9.91696 98.7271 9.79626 98.6571 9.7163L98.5066 9.848ZM97.5226 10.808L97.3812 10.9494C97.4586 11.0268 97.5839 11.0276 97.6623 10.9512L97.5226 10.808ZM93.6226 10.22L93.5283 10.0436L93.527 10.0443L93.6226 10.22ZM92.5426 11.264L92.3703 11.1625L92.3689 11.1648L92.5426 11.264ZM92.5426 14.312L92.3689 14.4112L92.3703 14.4135L92.5426 14.312ZM93.6226 15.368L93.5247 15.5424L93.526 15.5431L93.6226 15.368ZM96.9226 15.32L97.023 15.493C97.0847 15.4572 97.1226 15.3913 97.1226 15.32H96.9226ZM96.9226 12.904H98.3986V12.504H96.9226V12.904ZM98.1986 12.704V16.052H98.5986V12.704H98.1986ZM98.274 15.8955C97.8627 16.223 97.3808 16.4762 96.8257 16.6535L96.9475 17.0345C97.5444 16.8438 98.0705 16.569 98.5232 16.2085L98.274 15.8955ZM96.8257 16.6535C96.2695 16.8312 95.6981 16.92 95.1106 16.92V17.32C95.7391 17.32 96.3517 17.2248 96.9475 17.0345L96.8257 16.6535ZM95.1106 16.92C94.2842 16.92 93.5452 16.7427 92.8889 16.3916L92.7003 16.7444C93.42 17.1293 94.2249 17.32 95.1106 17.32V16.92ZM92.8905 16.3925C92.233 16.0331 91.7195 15.542 91.3463 14.9174L91.0029 15.1226C91.4137 15.81 91.9802 16.3509 92.6987 16.7435L92.8905 16.3925ZM91.3463 14.9174C90.9743 14.2948 90.7866 13.5908 90.7866 12.8H90.3866C90.3866 13.6572 90.5909 14.4332 91.0029 15.1226L91.3463 14.9174ZM90.7866 12.8C90.7866 12.0092 90.9743 11.3052 91.3463 10.6826L91.0029 10.4774C90.5909 11.1668 90.3866 11.9428 90.3866 12.8H90.7866ZM91.3463 10.6826C91.7193 10.0584 92.2322 9.57162 92.8889 9.22036L92.7003 8.86764C91.981 9.25238 91.4139 9.78958 91.0029 10.4774L91.3463 10.6826ZM92.8897 9.21996C93.5538 8.86116 94.3007 8.68 95.1346 8.68V8.28C94.2405 8.28 93.4274 8.47484 92.6995 8.86804L92.8897 9.21996ZM95.1346 8.68C95.8164 8.68 96.4306 8.79228 96.9799 9.01352L97.1293 8.64248C96.5266 8.39972 95.8608 8.28 95.1346 8.28V8.68ZM96.9799 9.01352C97.528 9.2343 97.9857 9.55637 98.3561 9.9797L98.6571 9.7163C98.2435 9.24363 97.7332 8.8857 97.1293 8.64248L96.9799 9.01352ZM98.3669 9.70484L97.3829 10.6648L97.6623 10.9512L98.6463 9.99116L98.3669 9.70484ZM97.664 10.6666C96.9866 9.98912 96.1637 9.648 95.2066 9.648V10.048C96.0575 10.048 96.7786 10.3469 97.3812 10.9494L97.664 10.6666ZM95.2066 9.648C94.5859 9.648 94.0248 9.77825 93.5283 10.0436L93.7169 10.3964C94.1484 10.1657 94.6433 10.048 95.2066 10.048V9.648ZM93.527 10.0443C93.0392 10.3096 92.6526 10.6833 92.3703 11.1625L92.7149 11.3655C92.9605 10.9487 93.294 10.6264 93.7181 10.3957L93.527 10.0443ZM92.3689 11.1648C92.0937 11.6464 91.9586 12.1933 91.9586 12.8H92.3586C92.3586 12.2547 92.4795 11.7776 92.7162 11.3632L92.3689 11.1648ZM91.9586 12.8C91.9586 13.3917 92.0942 13.9305 92.3689 14.4112L92.7162 14.2128C92.479 13.7975 92.3586 13.3283 92.3586 12.8H91.9586ZM92.3703 14.4135C92.6523 14.8921 93.0381 15.2692 93.5247 15.5424L93.7205 15.1936C93.2951 14.9548 92.9609 14.6279 92.7149 14.2105L92.3703 14.4135ZM93.526 15.5431C94.0225 15.8171 94.5803 15.952 95.1946 15.952V15.552C94.6409 15.552 94.1507 15.4309 93.7192 15.1929L93.526 15.5431ZM95.1946 15.952C95.8807 15.952 96.4923 15.8011 97.023 15.493L96.8222 15.147C96.3608 15.4149 95.8205 15.552 95.1946 15.552V15.952ZM97.1226 15.32V12.704H96.7226V15.32H97.1226ZM107.92 8.6H108.12C108.12 8.48954 108.031 8.4 107.92 8.4V8.6ZM107.92 17V17.2C108.031 17.2 108.12 17.1105 108.12 17H107.92ZM106.636 17L106.481 17.1263C106.519 17.1729 106.576 17.2 106.636 17.2V17ZM102.004 11.312L102.159 11.1857C102.106 11.1201 102.017 11.0952 101.937 11.1236C101.857 11.1519 101.804 11.2274 101.804 11.312H102.004ZM102.004 17V17.2C102.115 17.2 102.204 17.1105 102.204 17H102.004ZM100.456 17H100.256C100.256 17.1105 100.346 17.2 100.456 17.2V17ZM100.456 8.6V8.4C100.346 8.4 100.256 8.48954 100.256 8.6H100.456ZM101.74 8.6L101.895 8.47371C101.857 8.42707 101.8 8.4 101.74 8.4V8.6ZM106.372 14.288L106.217 14.4143C106.27 14.4799 106.359 14.5048 106.439 14.4764C106.519 14.4481 106.572 14.3726 106.572 14.288H106.372ZM106.372 8.6V8.4C106.262 8.4 106.172 8.48954 106.172 8.6H106.372ZM107.72 8.6V17H108.12V8.6H107.72ZM107.92 16.8H106.636V17.2H107.92V16.8ZM106.791 16.8737L102.159 11.1857L101.849 11.4383L106.481 17.1263L106.791 16.8737ZM101.804 11.312V17H102.204V11.312H101.804ZM102.004 16.8H100.456V17.2H102.004V16.8ZM100.656 17V8.6H100.256V17H100.656ZM100.456 8.8H101.74V8.4H100.456V8.8ZM101.585 8.72629L106.217 14.4143L106.527 14.1617L101.895 8.47371L101.585 8.72629ZM106.572 14.288V8.6H106.172V14.288H106.572ZM106.372 8.8H107.92V8.4H106.372V8.8ZM114.387 16.148L114.245 16.2886L114.246 16.2894L114.387 16.148ZM113.415 8.6V8.4C113.305 8.4 113.215 8.48954 113.215 8.6H113.415ZM114.975 8.6H115.175C115.175 8.48954 115.086 8.4 114.975 8.4V8.6ZM119.235 8.6V8.4C119.125 8.4 119.035 8.48954 119.035 8.6H119.235ZM120.771 8.6H120.971C120.971 8.48954 120.882 8.4 120.771 8.4V8.6ZM119.799 16.148L119.657 16.0074L119.657 16.0075L119.799 16.148ZM117.099 16.92C115.978 16.92 115.13 16.6077 114.529 16.0066L114.246 16.2894C114.941 16.9843 115.901 17.32 117.099 17.32V16.92ZM114.53 16.0074C113.929 15.3996 113.615 14.5207 113.615 13.34H113.215C113.215 14.5913 113.549 15.5844 114.245 16.2886L114.53 16.0074ZM113.615 13.34V8.6H113.215V13.34H113.615ZM113.415 8.8H114.975V8.4H113.415V8.8ZM114.775 8.6V13.28H115.175V8.6H114.775ZM114.775 13.28C114.775 14.1283 114.958 14.8018 115.358 15.2648C115.763 15.7333 116.36 15.952 117.111 15.952V15.552C116.438 15.552 115.968 15.3587 115.661 15.0032C115.349 14.6422 115.175 14.0797 115.175 13.28H114.775ZM117.111 15.952C117.859 15.952 118.453 15.7331 118.856 15.2643C119.254 14.8014 119.435 14.128 119.435 13.28H119.035C119.035 14.08 118.863 14.6426 118.553 15.0037C118.247 15.3589 117.78 15.552 117.111 15.552V15.952ZM119.435 13.28V8.6H119.035V13.28H119.435ZM119.235 8.8H120.771V8.4H119.235V8.8ZM120.571 8.6V13.34H120.971V8.6H120.571ZM120.571 13.34C120.571 14.5207 120.257 15.3996 119.657 16.0074L119.942 16.2886C120.637 15.5844 120.971 14.5913 120.971 13.34H120.571ZM119.657 16.0075C119.064 16.6077 118.221 16.92 117.099 16.92V17.32C118.297 17.32 119.255 16.9843 119.942 16.2885L119.657 16.0075ZM128.308 8.96L128.226 9.14254L128.227 9.14298L128.308 8.96ZM129.556 9.992L129.724 9.88385L129.724 9.88385L129.556 9.992ZM129.556 13.184L129.724 13.2922L129.725 13.2908L129.556 13.184ZM128.308 14.216L128.227 14.033L128.226 14.0335L128.308 14.216ZM124.516 14.576V14.376C124.406 14.376 124.316 14.4655 124.316 14.576H124.516ZM124.516 17V17.2C124.627 17.2 124.716 17.1105 124.716 17H124.516ZM122.956 17H122.756C122.756 17.1105 122.846 17.2 122.956 17.2V17ZM122.956 8.6V8.4C122.846 8.4 122.756 8.48954 122.756 8.6H122.956ZM127.888 12.824L127.761 12.6692L127.761 12.6692L127.888 12.824ZM127.888 10.352L127.761 10.5068L127.761 10.5068L127.888 10.352ZM124.516 9.92V9.72C124.406 9.72 124.316 9.80954 124.316 9.92H124.516ZM124.516 13.256H124.316C124.316 13.3665 124.406 13.456 124.516 13.456V13.256ZM126.412 8.8C127.119 8.8 127.721 8.91646 128.226 9.14254L128.39 8.77746C127.823 8.52354 127.162 8.4 126.412 8.4V8.8ZM128.227 9.14298C128.74 9.36907 129.124 9.6889 129.388 10.1002L129.724 9.88385C129.413 9.3991 128.964 9.03093 128.389 8.77702L128.227 9.14298ZM129.388 10.1002C129.652 10.5111 129.788 11.0042 129.788 11.588H130.188C130.188 10.9398 130.036 10.3689 129.724 9.88385L129.388 10.1002ZM129.788 11.588C129.788 12.1631 129.652 12.6571 129.387 13.0772L129.725 13.2908C130.036 12.7989 130.188 12.2289 130.188 11.588H129.788ZM129.388 13.0758C129.124 13.4871 128.74 13.8069 128.227 14.033L128.389 14.399C128.964 14.1451 129.413 13.7769 129.724 13.2922L129.388 13.0758ZM128.226 14.0335C127.721 14.2595 127.119 14.376 126.412 14.376V14.776C127.162 14.776 127.823 14.6525 128.39 14.3985L128.226 14.0335ZM126.412 14.376H124.516V14.776H126.412V14.376ZM124.316 14.576V17H124.716V14.576H124.316ZM124.516 16.8H122.956V17.2H124.516V16.8ZM123.156 17V8.6H122.756V17H123.156ZM122.956 8.8H126.412V8.4H122.956V8.8ZM126.34 13.456C127.044 13.456 127.613 13.3074 128.015 12.9788L127.761 12.6692C127.459 12.9166 126.996 13.056 126.34 13.056V13.456ZM128.015 12.9788C128.422 12.6459 128.616 12.1721 128.616 11.588H128.216C128.216 12.0759 128.059 12.4261 127.761 12.6692L128.015 12.9788ZM128.616 11.588C128.616 11.0039 128.422 10.5301 128.015 10.1972L127.761 10.5068C128.059 10.7499 128.216 11.1001 128.216 11.588H128.616ZM128.015 10.1972C127.613 9.86856 127.044 9.72 126.34 9.72V10.12C126.996 10.12 127.459 10.2594 127.761 10.5068L128.015 10.1972ZM126.34 9.72H124.516V10.12H126.34V9.72ZM124.316 9.92V13.256H124.716V9.92H124.316ZM124.516 13.456H126.34V13.056H124.516V13.456Z" fill="white"/>
</g>
<defs>
<filter id="filter0_d" x="0" y="0" width="159" height="33" filterUnits="userSpaceOnUse" color-interpolation-filters="sRGB">
<feFlood flood-opacity="0" result="BackgroundImageFix"/>
<feColorMatrix in="SourceAlpha" type="matrix" values="0 0 0 0 0 0 0 0 0 0 0 0 0 0 0 0 0 0 127 0"/>
<feOffset dy="4"/>
<feGaussianBlur stdDeviation="2"/>
<feColorMatrix type="matrix" values="0 0 0 0 0 0 0 0 0 0 0 0 0 0 0 0 0 0 0.25 0"/>
<feBlend mode="normal" in2="BackgroundImageFix" result="effect1_dropShadow"/>
<feBlend mode="normal" in="SourceGraphic" in2="effect1_dropShadow" result="shape"/>
</filter>
</defs>
</svg>
