<svg width="159" height="33" viewBox="0 0 159 33" fill="none" xmlns="http://www.w3.org/2000/svg">
<g filter="url(#filter0_d)">
<rect opacity="0.8" x="4" width="151" height="25" rx="4" fill="#9944A7"/>
<path d="M20.1 16.15V17.15L20.9 16.55L25.1 13.4L25.6333 13L25.1 12.6L20.9 9.45L20.1 8.85V9.85V16.15ZM15.5 13C15.5 9.41214 18.4121 6.5 22 6.5C25.5879 6.5 28.5 9.41214 28.5 13C28.5 16.5879 25.5879 19.5 22 19.5C18.4121 19.5 15.5 16.5879 15.5 13Z" fill="white" stroke="white" stroke-linecap="square"/>
<path d="M46.4148 12.704H47.8908V16.052C47.4588 16.396 46.9548 16.66 46.3788 16.844C45.8028 17.028 45.2108 17.12 44.6028 17.12C43.7468 17.12 42.9748 16.936 42.2868 16.568C41.5988 16.192 41.0588 15.676 40.6668 15.02C40.2748 14.364 40.0788 13.624 40.0788 12.8C40.0788 11.976 40.2748 11.236 40.6668 10.58C41.0588 9.924 41.5988 9.412 42.2868 9.044C42.9828 8.668 43.7628 8.48 44.6268 8.48C45.3308 8.48 45.9708 8.596 46.5468 8.828C47.1228 9.06 47.6068 9.4 47.9988 9.848L47.0148 10.808C46.3748 10.168 45.6028 9.848 44.6988 9.848C44.1068 9.848 43.5788 9.972 43.1148 10.22C42.6588 10.468 42.2988 10.816 42.0348 11.264C41.7788 11.712 41.6508 12.224 41.6508 12.8C41.6508 13.36 41.7788 13.864 42.0348 14.312C42.2988 14.76 42.6588 15.112 43.1148 15.368C43.5788 15.624 44.1028 15.752 44.6868 15.752C45.3428 15.752 45.9188 15.608 46.4148 15.32V12.704ZM53.8723 17.12C53.0163 17.12 52.2443 16.936 51.5563 16.568C50.8683 16.192 50.3283 15.676 49.9363 15.02C49.5443 14.356 49.3483 13.616 49.3483 12.8C49.3483 11.984 49.5443 11.248 49.9363 10.592C50.3283 9.928 50.8683 9.412 51.5563 9.044C52.2443 8.668 53.0163 8.48 53.8723 8.48C54.7283 8.48 55.5003 8.668 56.1883 9.044C56.8763 9.412 57.4163 9.924 57.8083 10.58C58.2003 11.236 58.3963 11.976 58.3963 12.8C58.3963 13.624 58.2003 14.364 57.8083 15.02C57.4163 15.676 56.8763 16.192 56.1883 16.568C55.5003 16.936 54.7283 17.12 53.8723 17.12ZM53.8723 15.752C54.4323 15.752 54.9363 15.628 55.3843 15.38C55.8323 15.124 56.1843 14.772 56.4403 14.324C56.6963 13.868 56.8243 13.36 56.8243 12.8C56.8243 12.24 56.6963 11.736 56.4403 11.288C56.1843 10.832 55.8323 10.48 55.3843 10.232C54.9363 9.976 54.4323 9.848 53.8723 9.848C53.3123 9.848 52.8083 9.976 52.3603 10.232C51.9123 10.48 51.5603 10.832 51.3043 11.288C51.0483 11.736 50.9203 12.24 50.9203 12.8C50.9203 13.36 51.0483 13.868 51.3043 14.324C51.5603 14.772 51.9123 15.124 52.3603 15.38C52.8083 15.628 53.3123 15.752 53.8723 15.752ZM65.0703 9.92H62.2863V8.6H69.4143V9.92H66.6303V17H65.0703V9.92ZM74.3918 17.12C73.5358 17.12 72.7638 16.936 72.0758 16.568C71.3878 16.192 70.8478 15.676 70.4558 15.02C70.0638 14.356 69.8678 13.616 69.8678 12.8C69.8678 11.984 70.0638 11.248 70.4558 10.592C70.8478 9.928 71.3878 9.412 72.0758 9.044C72.7638 8.668 73.5358 8.48 74.3918 8.48C75.2478 8.48 76.0198 8.668 76.7078 9.044C77.3958 9.412 77.9358 9.924 78.3278 10.58C78.7198 11.236 78.9158 11.976 78.9158 12.8C78.9158 13.624 78.7198 14.364 78.3278 15.02C77.9358 15.676 77.3958 16.192 76.7078 16.568C76.0198 16.936 75.2478 17.12 74.3918 17.12ZM74.3918 15.752C74.9518 15.752 75.4558 15.628 75.9038 15.38C76.3518 15.124 76.7038 14.772 76.9598 14.324C77.2158 13.868 77.3438 13.36 77.3438 12.8C77.3438 12.24 77.2158 11.736 76.9598 11.288C76.7038 10.832 76.3518 10.48 75.9038 10.232C75.4558 9.976 74.9518 9.848 74.3918 9.848C73.8318 9.848 73.3278 9.976 72.8798 10.232C72.4318 10.48 72.0798 10.832 71.8238 11.288C71.5678 11.736 71.4398 12.24 71.4398 12.8C71.4398 13.36 71.5678 13.868 71.8238 14.324C72.0798 14.772 72.4318 15.124 72.8798 15.38C73.3278 15.628 73.8318 15.752 74.3918 15.752ZM87.5098 14.036V17H85.9498V14.06L82.6498 8.6H84.3178L86.7778 12.692L89.2618 8.6H90.7978L87.5098 14.036ZM95.3801 17.12C94.5241 17.12 93.7521 16.936 93.0641 16.568C92.3761 16.192 91.8361 15.676 91.4441 15.02C91.0521 14.356 90.8561 13.616 90.8561 12.8C90.8561 11.984 91.0521 11.248 91.4441 10.592C91.8361 9.928 92.3761 9.412 93.0641 9.044C93.7521 8.668 94.5241 8.48 95.3801 8.48C96.2361 8.48 97.0081 8.668 97.6961 9.044C98.3841 9.412 98.9241 9.924 99.3161 10.58C99.7081 11.236 99.9041 11.976 99.9041 12.8C99.9041 13.624 99.7081 14.364 99.3161 15.02C98.9241 15.676 98.3841 16.192 97.6961 16.568C97.0081 16.936 96.2361 17.12 95.3801 17.12ZM95.3801 15.752C95.9401 15.752 96.4441 15.628 96.8921 15.38C97.3401 15.124 97.6921 14.772 97.9481 14.324C98.2041 13.868 98.3321 13.36 98.3321 12.8C98.3321 12.24 98.2041 11.736 97.9481 11.288C97.6921 10.832 97.3401 10.48 96.8921 10.232C96.4441 9.976 95.9401 9.848 95.3801 9.848C94.8201 9.848 94.3161 9.976 93.8681 10.232C93.4201 10.48 93.0681 10.832 92.8121 11.288C92.5561 11.736 92.4281 12.24 92.4281 12.8C92.4281 13.36 92.5561 13.868 92.8121 14.324C93.0681 14.772 93.4201 15.124 93.8681 15.38C94.3161 15.628 94.8201 15.752 95.3801 15.752ZM105.17 17.12C104.01 17.12 103.106 16.796 102.458 16.148C101.81 15.492 101.486 14.556 101.486 13.34V8.6H103.046V13.28C103.046 14.928 103.758 15.752 105.182 15.752C106.598 15.752 107.306 14.928 107.306 13.28V8.6H108.842V13.34C108.842 14.556 108.518 15.492 107.87 16.148C107.23 16.796 106.33 17.12 105.17 17.12ZM112.578 9.92H109.794V8.6H116.922V9.92H114.138V17H112.578V9.92ZM121.553 17.12C120.393 17.12 119.489 16.796 118.841 16.148C118.193 15.492 117.869 14.556 117.869 13.34V8.6H119.429V13.28C119.429 14.928 120.141 15.752 121.565 15.752C122.981 15.752 123.689 14.928 123.689 13.28V8.6H125.225V13.34C125.225 14.556 124.901 15.492 124.253 16.148C123.613 16.796 122.713 17.12 121.553 17.12ZM133.361 12.632C133.825 12.784 134.193 13.04 134.465 13.4C134.737 13.752 134.873 14.192 134.873 14.72C134.873 15.448 134.593 16.012 134.033 16.412C133.473 16.804 132.657 17 131.585 17H127.409V8.6H131.345C132.337 8.6 133.101 8.796 133.637 9.188C134.173 9.572 134.441 10.104 134.441 10.784C134.441 11.2 134.345 11.568 134.153 11.888C133.961 12.208 133.697 12.456 133.361 12.632ZM128.969 9.824V12.14H131.177C131.721 12.14 132.137 12.044 132.425 11.852C132.721 11.652 132.869 11.364 132.869 10.988C132.869 10.604 132.721 10.316 132.425 10.124C132.137 9.924 131.721 9.824 131.177 9.824H128.969ZM131.489 15.776C132.697 15.776 133.301 15.372 133.301 14.564C133.301 13.756 132.697 13.352 131.489 13.352H128.969V15.776H131.489ZM142.838 15.692V17H136.538V8.6H142.67V9.908H138.098V12.092H142.154V13.376H138.098V15.692H142.838Z" fill="white"/>
<path d="M46.4148 12.704V12.504C46.3043 12.504 46.2148 12.5935 46.2148 12.704H46.4148ZM47.8908 12.704H48.0908C48.0908 12.5935 48.0012 12.504 47.8908 12.504V12.704ZM47.8908 16.052L48.0154 16.2085C48.063 16.1705 48.0908 16.1129 48.0908 16.052H47.8908ZM46.3788 16.844L46.3179 16.6535L46.3788 16.844ZM42.2868 16.568L42.1909 16.7435L42.1925 16.7444L42.2868 16.568ZM40.6668 15.02L40.4951 15.1226L40.6668 15.02ZM40.6668 10.58L40.4951 10.4774L40.6668 10.58ZM42.2868 9.044L42.3811 9.22036L42.3818 9.21996L42.2868 9.044ZM46.5468 8.828L46.6215 8.64248L46.5468 8.828ZM47.9988 9.848L48.1384 9.99116C48.2145 9.91696 48.2193 9.79626 48.1493 9.7163L47.9988 9.848ZM47.0148 10.808L46.8734 10.9494C46.9508 11.0268 47.0761 11.0276 47.1544 10.9512L47.0148 10.808ZM43.1148 10.22L43.0205 10.0436L43.0192 10.0443L43.1148 10.22ZM42.0348 11.264L41.8625 11.1625L41.8611 11.1648L42.0348 11.264ZM42.0348 14.312L41.8611 14.4112L41.8625 14.4135L42.0348 14.312ZM43.1148 15.368L43.0169 15.5424L43.0182 15.5431L43.1148 15.368ZM46.4148 15.32L46.5152 15.493C46.5768 15.4572 46.6148 15.3913 46.6148 15.32H46.4148ZM46.4148 12.904H47.8908V12.504H46.4148V12.904ZM47.6908 12.704V16.052H48.0908V12.704H47.6908ZM47.7662 15.8955C47.3549 16.223 46.873 16.4762 46.3179 16.6535L46.4396 17.0345C47.0366 16.8438 47.5626 16.569 48.0154 16.2085L47.7662 15.8955ZM46.3179 16.6535C45.7617 16.8312 45.1902 16.92 44.6028 16.92V17.32C45.2313 17.32 45.8439 17.2248 46.4396 17.0345L46.3179 16.6535ZM44.6028 16.92C43.7764 16.92 43.0373 16.7427 42.3811 16.3916L42.1925 16.7444C42.9122 17.1293 43.7171 17.32 44.6028 17.32V16.92ZM42.3827 16.3925C41.7252 16.0331 41.2117 15.542 40.8385 14.9174L40.4951 15.1226C40.9059 15.81 41.4724 16.3509 42.1909 16.7435L42.3827 16.3925ZM40.8385 14.9174C40.4664 14.2948 40.2788 13.5908 40.2788 12.8H39.8788C39.8788 13.6572 40.0831 14.4332 40.4951 15.1226L40.8385 14.9174ZM40.2788 12.8C40.2788 12.0092 40.4664 11.3052 40.8385 10.6826L40.4951 10.4774C40.0831 11.1668 39.8788 11.9428 39.8788 12.8H40.2788ZM40.8385 10.6826C41.2114 10.0584 41.7244 9.57162 42.3811 9.22036L42.1925 8.86764C41.4732 9.25238 40.9061 9.78958 40.4951 10.4774L40.8385 10.6826ZM42.3818 9.21996C43.046 8.86116 43.7928 8.68 44.6268 8.68V8.28C43.7327 8.28 42.9196 8.47484 42.1917 8.86804L42.3818 9.21996ZM44.6268 8.68C45.3086 8.68 45.9228 8.79228 46.4721 9.01352L46.6215 8.64248C46.0188 8.39972 45.353 8.28 44.6268 8.28V8.68ZM46.4721 9.01352C47.0202 9.2343 47.4779 9.55637 47.8483 9.9797L48.1493 9.7163C47.7357 9.24363 47.2253 8.8857 46.6215 8.64248L46.4721 9.01352ZM47.8591 9.70484L46.8751 10.6648L47.1544 10.9512L48.1384 9.99116L47.8591 9.70484ZM47.1562 10.6666C46.4787 9.98912 45.6559 9.648 44.6988 9.648V10.048C45.5497 10.048 46.2708 10.3469 46.8734 10.9494L47.1562 10.6666ZM44.6988 9.648C44.0781 9.648 43.517 9.77825 43.0205 10.0436L43.2091 10.3964C43.6406 10.1657 44.1355 10.048 44.6988 10.048V9.648ZM43.0192 10.0443C42.5313 10.3096 42.1448 10.6833 41.8625 11.1625L42.2071 11.3655C42.4527 10.9487 42.7862 10.6264 43.2103 10.3957L43.0192 10.0443ZM41.8611 11.1648C41.5859 11.6464 41.4508 12.1933 41.4508 12.8H41.8508C41.8508 12.2547 41.9716 11.7776 42.2084 11.3632L41.8611 11.1648ZM41.4508 12.8C41.4508 13.3917 41.5864 13.9305 41.8611 14.4112L42.2084 14.2128C41.9712 13.7975 41.8508 13.3283 41.8508 12.8H41.4508ZM41.8625 14.4135C42.1445 14.8921 42.5303 15.2692 43.0169 15.5424L43.2127 15.1936C42.7873 14.9548 42.4531 14.6279 42.2071 14.2105L41.8625 14.4135ZM43.0182 15.5431C43.5147 15.8171 44.0725 15.952 44.6868 15.952V15.552C44.133 15.552 43.6429 15.4309 43.2114 15.1929L43.0182 15.5431ZM44.6868 15.952C45.3729 15.952 45.9845 15.8011 46.5152 15.493L46.3144 15.147C45.853 15.4149 45.3127 15.552 44.6868 15.552V15.952ZM46.6148 15.32V12.704H46.2148V15.32H46.6148ZM51.5563 16.568L51.4604 16.7435L51.462 16.7444L51.5563 16.568ZM49.9363 15.02L49.7641 15.1217L49.7646 15.1226L49.9363 15.02ZM49.9363 10.592L50.108 10.6946L50.1085 10.6937L49.9363 10.592ZM51.5563 9.044L51.6506 9.22036L51.6522 9.2195L51.5563 9.044ZM56.1883 9.044L56.0924 9.21951L56.094 9.22036L56.1883 9.044ZM57.8083 10.58L57.6366 10.6826L57.8083 10.58ZM57.8083 15.02L57.6366 14.9174L57.8083 15.02ZM56.1883 16.568L56.2826 16.7444L56.2842 16.7435L56.1883 16.568ZM55.3843 15.38L55.4812 15.555L55.4835 15.5536L55.3843 15.38ZM56.4403 14.324L56.614 14.4232L56.6147 14.4219L56.4403 14.324ZM56.4403 11.288L56.2659 11.3859L56.2667 11.3872L56.4403 11.288ZM55.3843 10.232L55.2851 10.4057L55.2875 10.407L55.3843 10.232ZM52.3603 10.232L52.4572 10.407L52.4595 10.4056L52.3603 10.232ZM51.3043 11.288L51.478 11.3872L51.4787 11.3859L51.3043 11.288ZM51.3043 14.324L51.1299 14.4219L51.1307 14.4232L51.3043 14.324ZM52.3603 15.38L52.2611 15.5537L52.2634 15.555L52.3603 15.38ZM53.8723 16.92C53.046 16.92 52.3069 16.7427 51.6506 16.3916L51.462 16.7444C52.1817 17.1293 52.9867 17.32 53.8723 17.32V16.92ZM51.6522 16.3925C50.9947 16.0331 50.4812 15.542 50.108 14.9174L49.7646 15.1226C50.1754 15.81 50.7419 16.3509 51.4604 16.7435L51.6522 16.3925ZM50.1085 14.9183C49.7358 14.2869 49.5483 13.5824 49.5483 12.8H49.1483C49.1483 13.6496 49.3528 14.4251 49.7641 15.1217L50.1085 14.9183ZM49.5483 12.8C49.5483 12.0176 49.7358 11.3175 50.108 10.6946L49.7646 10.4894C49.3528 11.1785 49.1483 11.9504 49.1483 12.8H49.5483ZM50.1085 10.6937C50.4817 10.0616 50.9946 9.57129 51.6506 9.22036L51.462 8.86764C50.7421 9.25271 50.1749 9.79437 49.7641 10.4903L50.1085 10.6937ZM51.6522 9.2195C52.3082 8.86102 53.0467 8.68 53.8723 8.68V8.28C52.9859 8.28 52.1805 8.47498 51.4604 8.8685L51.6522 9.2195ZM53.8723 8.68C54.6979 8.68 55.4365 8.86102 56.0924 9.2195L56.2842 8.8685C55.5642 8.47498 54.7587 8.28 53.8723 8.28V8.68ZM56.094 9.22036C56.7507 9.57162 57.2637 10.0584 57.6366 10.6826L57.98 10.4774C57.569 9.78958 57.0019 9.25238 56.2826 8.86764L56.094 9.22036ZM57.6366 10.6826C58.0087 11.3052 58.1963 12.0092 58.1963 12.8H58.5963C58.5963 11.9428 58.392 11.1668 57.98 10.4774L57.6366 10.6826ZM58.1963 12.8C58.1963 13.5908 58.0087 14.2948 57.6366 14.9174L57.98 15.1226C58.392 14.4332 58.5963 13.6572 58.5963 12.8H58.1963ZM57.6366 14.9174C57.2634 15.542 56.7499 16.0331 56.0924 16.3925L56.2842 16.7435C57.0027 16.3509 57.5692 15.81 57.98 15.1226L57.6366 14.9174ZM56.094 16.3916C55.4377 16.7427 54.6987 16.92 53.8723 16.92V17.32C54.758 17.32 55.5629 17.1293 56.2826 16.7444L56.094 16.3916ZM53.8723 15.952C54.4629 15.952 55.0008 15.8209 55.4812 15.555L55.2875 15.205C54.8718 15.4351 54.4017 15.552 53.8723 15.552V15.952ZM55.4835 15.5536C55.9625 15.2799 56.3402 14.9022 56.614 14.4232L56.2667 14.2248C56.0284 14.6418 55.7021 14.9681 55.2851 15.2064L55.4835 15.5536ZM56.6147 14.4219C56.8887 13.9339 57.0243 13.3918 57.0243 12.8H56.6243C56.6243 13.3282 56.5039 13.8021 56.2659 14.2261L56.6147 14.4219ZM57.0243 12.8C57.0243 12.2083 56.8887 11.6695 56.614 11.1888L56.2667 11.3872C56.5039 11.8025 56.6243 12.2717 56.6243 12.8H57.0243ZM56.6147 11.1901C56.3409 10.7024 55.9624 10.3234 55.4812 10.057L55.2875 10.407C55.7022 10.6366 56.0277 10.9616 56.2659 11.3859L56.6147 11.1901ZM55.4835 10.0584C55.0028 9.78363 54.4641 9.648 53.8723 9.648V10.048C54.4006 10.048 54.8699 10.1684 55.2851 10.4056L55.4835 10.0584ZM53.8723 9.648C53.2806 9.648 52.7419 9.78363 52.2611 10.0584L52.4595 10.4056C52.8748 10.1684 53.3441 10.048 53.8723 10.048V9.648ZM52.2634 10.057C51.7822 10.3234 51.4037 10.7024 51.1299 11.1901L51.4787 11.3859C51.7169 10.9616 52.0424 10.6366 52.4572 10.407L52.2634 10.057ZM51.1307 11.1888C50.8559 11.6695 50.7203 12.2083 50.7203 12.8H51.1203C51.1203 12.2717 51.2407 11.8025 51.478 11.3872L51.1307 11.1888ZM50.7203 12.8C50.7203 13.3918 50.8559 13.9339 51.1299 14.4219L51.4787 14.2261C51.2407 13.8021 51.1203 13.3282 51.1203 12.8H50.7203ZM51.1307 14.4232C51.4044 14.9022 51.7821 15.2799 52.2611 15.5536L52.4595 15.2064C52.0425 14.9681 51.7162 14.6418 51.478 14.2248L51.1307 14.4232ZM52.2634 15.555C52.7438 15.8209 53.2817 15.952 53.8723 15.952V15.552C53.3429 15.552 52.8728 15.4351 52.4572 15.205L52.2634 15.555ZM65.0703 9.92H65.2703C65.2703 9.80954 65.1807 9.72 65.0703 9.72V9.92ZM62.2863 9.92H62.0863C62.0863 10.0305 62.1758 10.12 62.2863 10.12V9.92ZM62.2863 8.6V8.4C62.1758 8.4 62.0863 8.48954 62.0863 8.6H62.2863ZM69.4143 8.6H69.6143C69.6143 8.48954 69.5247 8.4 69.4143 8.4V8.6ZM69.4143 9.92V10.12C69.5247 10.12 69.6143 10.0305 69.6143 9.92H69.4143ZM66.6303 9.92V9.72C66.5198 9.72 66.4303 9.80954 66.4303 9.92H66.6303ZM66.6303 17V17.2C66.7407 17.2 66.8303 17.1105 66.8303 17H66.6303ZM65.0703 17H64.8703C64.8703 17.1105 64.9598 17.2 65.0703 17.2V17ZM65.0703 9.72H62.2863V10.12H65.0703V9.72ZM62.4863 9.92V8.6H62.0863V9.92H62.4863ZM62.2863 8.8H69.4143V8.4H62.2863V8.8ZM69.2143 8.6V9.92H69.6143V8.6H69.2143ZM69.4143 9.72H66.6303V10.12H69.4143V9.72ZM66.4303 9.92V17H66.8303V9.92H66.4303ZM66.6303 16.8H65.0703V17.2H66.6303V16.8ZM65.2703 17V9.92H64.8703V17H65.2703ZM72.0758 16.568L71.9799 16.7435L71.9815 16.7444L72.0758 16.568ZM70.4558 15.02L70.2836 15.1217L70.2842 15.1226L70.4558 15.02ZM70.4558 10.592L70.6275 10.6946L70.6281 10.6937L70.4558 10.592ZM72.0758 9.044L72.1702 9.22036L72.1718 9.2195L72.0758 9.044ZM76.7078 9.044L76.6119 9.21951L76.6135 9.22036L76.7078 9.044ZM78.3278 10.58L78.1562 10.6826L78.3278 10.58ZM78.3278 15.02L78.1562 14.9174L78.3278 15.02ZM76.7078 16.568L76.8022 16.7444L76.8038 16.7435L76.7078 16.568ZM75.9038 15.38L76.0007 15.555L76.0031 15.5536L75.9038 15.38ZM76.9598 14.324L77.1335 14.4232L77.1342 14.4219L76.9598 14.324ZM76.9598 11.288L76.7854 11.3859L76.7862 11.3872L76.9598 11.288ZM75.9038 10.232L75.8046 10.4057L75.807 10.407L75.9038 10.232ZM72.8798 10.232L72.9767 10.407L72.9791 10.4056L72.8798 10.232ZM71.8238 11.288L71.9975 11.3872L71.9982 11.3859L71.8238 11.288ZM71.8238 14.324L71.6494 14.4219L71.6502 14.4232L71.8238 14.324ZM72.8798 15.38L72.7806 15.5537L72.783 15.555L72.8798 15.38ZM74.3918 16.92C73.5655 16.92 72.8264 16.7427 72.1702 16.3916L71.9815 16.7444C72.7013 17.1293 73.5062 17.32 74.3918 17.32V16.92ZM72.1718 16.3925C71.5142 16.0331 71.0007 15.542 70.6275 14.9174L70.2842 15.1226C70.695 15.81 71.2615 16.3509 71.9799 16.7435L72.1718 16.3925ZM70.6281 14.9183C70.2553 14.2869 70.0678 13.5824 70.0678 12.8H69.6678C69.6678 13.6496 69.8724 14.4251 70.2836 15.1217L70.6281 14.9183ZM70.0678 12.8C70.0678 12.0176 70.2553 11.3175 70.6275 10.6946L70.2842 10.4894C69.8724 11.1785 69.6678 11.9504 69.6678 12.8H70.0678ZM70.6281 10.6937C71.0012 10.0616 71.5141 9.57129 72.1702 9.22036L71.9815 8.86764C71.2616 9.25271 70.6945 9.79437 70.2836 10.4903L70.6281 10.6937ZM72.1718 9.2195C72.8277 8.86102 73.5662 8.68 74.3918 8.68V8.28C73.5055 8.28 72.7 8.47498 71.9799 8.8685L72.1718 9.2195ZM74.3918 8.68C75.2175 8.68 75.956 8.86102 76.6119 9.2195L76.8038 8.8685C76.0837 8.47498 75.2782 8.28 74.3918 8.28V8.68ZM76.6135 9.22036C77.2702 9.57162 77.7832 10.0584 78.1562 10.6826L78.4995 10.4774C78.0885 9.78958 77.5215 9.25238 76.8022 8.86764L76.6135 9.22036ZM78.1562 10.6826C78.5282 11.3052 78.7158 12.0092 78.7158 12.8H79.1158C79.1158 11.9428 78.9115 11.1668 78.4995 10.4774L78.1562 10.6826ZM78.7158 12.8C78.7158 13.5908 78.5282 14.2948 78.1562 14.9174L78.4995 15.1226C78.9115 14.4332 79.1158 13.6572 79.1158 12.8H78.7158ZM78.1562 14.9174C77.783 15.542 77.2695 16.0331 76.6119 16.3925L76.8038 16.7435C77.5222 16.3509 78.0887 15.81 78.4995 15.1226L78.1562 14.9174ZM76.6135 16.3916C75.9573 16.7427 75.2182 16.92 74.3918 16.92V17.32C75.2775 17.32 76.0824 17.1293 76.8022 16.7444L76.6135 16.3916ZM74.3918 15.952C74.9825 15.952 75.5203 15.8209 76.0007 15.555L75.807 15.205C75.3913 15.4351 74.9212 15.552 74.3918 15.552V15.952ZM76.0031 15.5536C76.4821 15.2799 76.8598 14.9022 77.1335 14.4232L76.7862 14.2248C76.5479 14.6418 76.2216 14.9681 75.8046 15.2064L76.0031 15.5536ZM77.1342 14.4219C77.4082 13.9339 77.5438 13.3918 77.5438 12.8H77.1438C77.1438 13.3282 77.0235 13.8021 76.7854 14.2261L77.1342 14.4219ZM77.5438 12.8C77.5438 12.2083 77.4082 11.6695 77.1335 11.1888L76.7862 11.3872C77.0235 11.8025 77.1438 12.2717 77.1438 12.8H77.5438ZM77.1342 11.1901C76.8605 10.7024 76.4819 10.3234 76.0007 10.057L75.807 10.407C76.2218 10.6366 76.5472 10.9616 76.7854 11.3859L77.1342 11.1901ZM76.0031 10.0584C75.5223 9.78363 74.9836 9.648 74.3918 9.648V10.048C74.9201 10.048 75.3894 10.1684 75.8046 10.4056L76.0031 10.0584ZM74.3918 9.648C73.8001 9.648 73.2614 9.78363 72.7806 10.0584L72.9791 10.4056C73.3943 10.1684 73.8636 10.048 74.3918 10.048V9.648ZM72.783 10.057C72.3018 10.3234 71.9232 10.7024 71.6494 11.1901L71.9982 11.3859C72.2365 10.9616 72.5619 10.6366 72.9767 10.407L72.783 10.057ZM71.6502 11.1888C71.3755 11.6695 71.2398 12.2083 71.2398 12.8H71.6398C71.6398 12.2717 71.7602 11.8025 71.9975 11.3872L71.6502 11.1888ZM71.2398 12.8C71.2398 13.3918 71.3755 13.9339 71.6494 14.4219L71.9982 14.2261C71.7602 13.8021 71.6398 13.3282 71.6398 12.8H71.2398ZM71.6502 14.4232C71.9239 14.9022 72.3016 15.2799 72.7806 15.5536L72.9791 15.2064C72.5621 14.9681 72.2358 14.6418 71.9975 14.2248L71.6502 14.4232ZM72.783 15.555C73.2633 15.8209 73.8012 15.952 74.3918 15.952V15.552C73.8625 15.552 73.3923 15.4351 72.9767 15.205L72.783 15.555ZM87.5098 14.036L87.3387 13.9325C87.3198 13.9637 87.3098 13.9995 87.3098 14.036H87.5098ZM87.5098 17V17.2C87.6203 17.2 87.7098 17.1105 87.7098 17H87.5098ZM85.9498 17H85.7498C85.7498 17.1105 85.8394 17.2 85.9498 17.2V17ZM85.9498 14.06H86.1498C86.1498 14.0235 86.1398 13.9878 86.121 13.9565L85.9498 14.06ZM82.6498 8.6V8.4C82.5776 8.4 82.5111 8.43888 82.4756 8.50174C82.4402 8.5646 82.4413 8.64169 82.4786 8.70345L82.6498 8.6ZM84.3178 8.6L84.4892 8.49695C84.4531 8.4368 84.388 8.4 84.3178 8.4V8.6ZM86.7778 12.692L86.6064 12.795C86.6425 12.8551 86.7073 12.8918 86.7774 12.892C86.8474 12.8921 86.9124 12.8557 86.9488 12.7958L86.7778 12.692ZM89.2618 8.6V8.4C89.1919 8.4 89.1271 8.43648 89.0908 8.49622L89.2618 8.6ZM90.7978 8.6L90.9689 8.70351C91.0063 8.64175 91.0075 8.56465 90.972 8.50177C90.9366 8.43889 90.87 8.4 90.7978 8.4V8.6ZM87.3098 14.036V17H87.7098V14.036H87.3098ZM87.5098 16.8H85.9498V17.2H87.5098V16.8ZM86.1498 17V14.06H85.7498V17H86.1498ZM86.121 13.9565L82.821 8.49655L82.4786 8.70345L85.7786 14.1635L86.121 13.9565ZM82.6498 8.8H84.3178V8.4H82.6498V8.8ZM84.1464 8.70305L86.6064 12.795L86.9492 12.589L84.4892 8.49695L84.1464 8.70305ZM86.9488 12.7958L89.4328 8.70378L89.0908 8.49622L86.6068 12.5882L86.9488 12.7958ZM89.2618 8.8H90.7978V8.4H89.2618V8.8ZM90.6267 8.49649L87.3387 13.9325L87.6809 14.1395L90.9689 8.70351L90.6267 8.49649ZM93.0641 16.568L92.9682 16.7435L92.9698 16.7444L93.0641 16.568ZM91.4441 15.02L91.2719 15.1217L91.2724 15.1226L91.4441 15.02ZM91.4441 10.592L91.6158 10.6946L91.6164 10.6937L91.4441 10.592ZM93.0641 9.044L93.1585 9.22036L93.16 9.2195L93.0641 9.044ZM97.6961 9.044L97.6002 9.21951L97.6018 9.22036L97.6961 9.044ZM99.3161 10.58L99.1444 10.6826L99.3161 10.58ZM99.3161 15.02L99.1444 14.9174L99.3161 15.02ZM97.6961 16.568L97.7905 16.7444L97.792 16.7435L97.6961 16.568ZM96.8921 15.38L96.989 15.555L96.9914 15.5536L96.8921 15.38ZM97.9481 14.324L98.1218 14.4232L98.1225 14.4219L97.9481 14.324ZM97.9481 11.288L97.7737 11.3859L97.7745 11.3872L97.9481 11.288ZM96.8921 10.232L96.7929 10.4057L96.7953 10.407L96.8921 10.232ZM93.8681 10.232L93.965 10.407L93.9674 10.4056L93.8681 10.232ZM92.8121 11.288L92.9858 11.3872L92.9865 11.3859L92.8121 11.288ZM92.8121 14.324L92.6377 14.4219L92.6385 14.4232L92.8121 14.324ZM93.8681 15.38L93.7689 15.5537L93.7713 15.555L93.8681 15.38ZM95.3801 16.92C94.5538 16.92 93.8147 16.7427 93.1585 16.3916L92.9698 16.7444C93.6896 17.1293 94.4945 17.32 95.3801 17.32V16.92ZM93.16 16.3925C92.5025 16.0331 91.989 15.542 91.6158 14.9174L91.2724 15.1226C91.6832 15.81 92.2498 16.3509 92.9682 16.7435L93.16 16.3925ZM91.6164 14.9183C91.2436 14.2869 91.0561 13.5824 91.0561 12.8H90.6561C90.6561 13.6496 90.8606 14.4251 91.2719 15.1217L91.6164 14.9183ZM91.0561 12.8C91.0561 12.0176 91.2436 11.3175 91.6158 10.6946L91.2724 10.4894C90.8606 11.1785 90.6561 11.9504 90.6561 12.8H91.0561ZM91.6164 10.6937C91.9895 10.0616 92.5024 9.57129 93.1585 9.22036L92.9698 8.86764C92.2499 9.25271 91.6828 9.79437 91.2719 10.4903L91.6164 10.6937ZM93.16 9.2195C93.816 8.86102 94.5545 8.68 95.3801 8.68V8.28C94.4938 8.28 93.6883 8.47498 92.9682 8.8685L93.16 9.2195ZM95.3801 8.68C96.2058 8.68 96.9443 8.86102 97.6002 9.2195L97.792 8.8685C97.072 8.47498 96.2665 8.28 95.3801 8.28V8.68ZM97.6018 9.22036C98.2585 9.57162 98.7715 10.0584 99.1444 10.6826L99.4878 10.4774C99.0768 9.78958 98.5098 9.25238 97.7905 8.86764L97.6018 9.22036ZM99.1444 10.6826C99.5165 11.3052 99.7041 12.0092 99.7041 12.8H100.104C100.104 11.9428 99.8998 11.1668 99.4878 10.4774L99.1444 10.6826ZM99.7041 12.8C99.7041 13.5908 99.5165 14.2948 99.1444 14.9174L99.4878 15.1226C99.8998 14.4332 100.104 13.6572 100.104 12.8H99.7041ZM99.1444 14.9174C98.7712 15.542 98.2578 16.0331 97.6002 16.3925L97.792 16.7435C98.5105 16.3509 99.077 15.81 99.4878 15.1226L99.1444 14.9174ZM97.6018 16.3916C96.9456 16.7427 96.2065 16.92 95.3801 16.92V17.32C96.2658 17.32 97.0707 17.1293 97.7905 16.7444L97.6018 16.3916ZM95.3801 15.952C95.9708 15.952 96.5086 15.8209 96.989 15.555L96.7953 15.205C96.3796 15.4351 95.9095 15.552 95.3801 15.552V15.952ZM96.9914 15.5536C97.4704 15.2799 97.8481 14.9022 98.1218 14.4232L97.7745 14.2248C97.5362 14.6418 97.2099 14.9681 96.7929 15.2064L96.9914 15.5536ZM98.1225 14.4219C98.3965 13.9339 98.5321 13.3918 98.5321 12.8H98.1321C98.1321 13.3282 98.0118 13.8021 97.7737 14.2261L98.1225 14.4219ZM98.5321 12.8C98.5321 12.2083 98.3965 11.6695 98.1218 11.1888L97.7745 11.3872C98.0117 11.8025 98.1321 12.2717 98.1321 12.8H98.5321ZM98.1225 11.1901C97.8487 10.7024 97.4702 10.3234 96.989 10.057L96.7953 10.407C97.21 10.6366 97.5355 10.9616 97.7737 11.3859L98.1225 11.1901ZM96.9914 10.0584C96.5106 9.78363 95.9719 9.648 95.3801 9.648V10.048C95.9084 10.048 96.3777 10.1684 96.7929 10.4056L96.9914 10.0584ZM95.3801 9.648C94.7884 9.648 94.2497 9.78363 93.7689 10.0584L93.9674 10.4056C94.3826 10.1684 94.8519 10.048 95.3801 10.048V9.648ZM93.7713 10.057C93.29 10.3234 92.9115 10.7024 92.6377 11.1901L92.9865 11.3859C93.2247 10.9616 93.5502 10.6366 93.965 10.407L93.7713 10.057ZM92.6385 11.1888C92.3638 11.6695 92.2281 12.2083 92.2281 12.8H92.6281C92.6281 12.2717 92.7485 11.8025 92.9858 11.3872L92.6385 11.1888ZM92.2281 12.8C92.2281 13.3918 92.3638 13.9339 92.6377 14.4219L92.9865 14.2261C92.7485 13.8021 92.6281 13.3282 92.6281 12.8H92.2281ZM92.6385 14.4232C92.9122 14.9022 93.2899 15.2799 93.7689 15.5536L93.9674 15.2064C93.5504 14.9681 93.2241 14.6418 92.9858 14.2248L92.6385 14.4232ZM93.7713 15.555C94.2516 15.8209 94.7895 15.952 95.3801 15.952V15.552C94.8508 15.552 94.3806 15.4351 93.965 15.205L93.7713 15.555ZM102.458 16.148L102.315 16.2886L102.316 16.2894L102.458 16.148ZM101.486 8.6V8.4C101.375 8.4 101.286 8.48954 101.286 8.6H101.486ZM103.046 8.6H103.246C103.246 8.48954 103.156 8.4 103.046 8.4V8.6ZM107.306 8.6V8.4C107.195 8.4 107.106 8.48954 107.106 8.6H107.306ZM108.842 8.6H109.042C109.042 8.48954 108.952 8.4 108.842 8.4V8.6ZM107.87 16.148L107.727 16.0074L107.727 16.0075L107.87 16.148ZM105.17 16.92C104.048 16.92 103.2 16.6077 102.599 16.0066L102.316 16.2894C103.011 16.9843 103.971 17.32 105.17 17.32V16.92ZM102.6 16.0074C102 15.3996 101.686 14.5207 101.686 13.34H101.286C101.286 14.5913 101.62 15.5844 102.315 16.2886L102.6 16.0074ZM101.686 13.34V8.6H101.286V13.34H101.686ZM101.486 8.8H103.046V8.4H101.486V8.8ZM102.846 8.6V13.28H103.246V8.6H102.846ZM102.846 13.28C102.846 14.1283 103.028 14.8018 103.428 15.2648C103.833 15.7333 104.431 15.952 105.182 15.952V15.552C104.509 15.552 104.038 15.3587 103.731 15.0032C103.419 14.6422 103.246 14.0798 103.246 13.28H102.846ZM105.182 15.952C105.929 15.952 106.524 15.7331 106.926 15.2643C107.324 14.8014 107.506 14.128 107.506 13.28H107.106C107.106 14.08 106.933 14.6426 106.623 15.0037C106.318 15.3589 105.85 15.552 105.182 15.552V15.952ZM107.506 13.28V8.6H107.106V13.28H107.506ZM107.306 8.8H108.842V8.4H107.306V8.8ZM108.642 8.6V13.34H109.042V8.6H108.642ZM108.642 13.34C108.642 14.5207 108.328 15.3996 107.727 16.0074L108.012 16.2886C108.708 15.5844 109.042 14.5913 109.042 13.34H108.642ZM107.727 16.0075C107.135 16.6077 106.292 16.92 105.17 16.92V17.32C106.368 17.32 107.325 16.9843 108.012 16.2885L107.727 16.0075ZM112.578 9.92H112.778C112.778 9.80954 112.689 9.72 112.578 9.72V9.92ZM109.794 9.92H109.594C109.594 10.0305 109.684 10.12 109.794 10.12V9.92ZM109.794 8.6V8.4C109.684 8.4 109.594 8.48954 109.594 8.6H109.794ZM116.922 8.6H117.122C117.122 8.48954 117.033 8.4 116.922 8.4V8.6ZM116.922 9.92V10.12C117.033 10.12 117.122 10.0305 117.122 9.92H116.922ZM114.138 9.92V9.72C114.028 9.72 113.938 9.80954 113.938 9.92H114.138ZM114.138 17V17.2C114.249 17.2 114.338 17.1105 114.338 17H114.138ZM112.578 17H112.378C112.378 17.1105 112.468 17.2 112.578 17.2V17ZM112.578 9.72H109.794V10.12H112.578V9.72ZM109.994 9.92V8.6H109.594V9.92H109.994ZM109.794 8.8H116.922V8.4H109.794V8.8ZM116.722 8.6V9.92H117.122V8.6H116.722ZM116.922 9.72H114.138V10.12H116.922V9.72ZM113.938 9.92V17H114.338V9.92H113.938ZM114.138 16.8H112.578V17.2H114.138V16.8ZM112.778 17V9.92H112.378V17H112.778ZM118.84 16.148L118.698 16.2886L118.699 16.2894L118.84 16.148ZM117.868 8.6V8.4C117.758 8.4 117.669 8.48954 117.669 8.6H117.868ZM119.428 8.6H119.629C119.629 8.48954 119.539 8.4 119.428 8.4V8.6ZM123.688 8.6V8.4C123.578 8.4 123.489 8.48954 123.489 8.6H123.688ZM125.225 8.6H125.424C125.424 8.48954 125.335 8.4 125.225 8.4V8.6ZM124.253 16.148L124.11 16.0074L124.11 16.0075L124.253 16.148ZM121.552 16.92C120.431 16.92 119.583 16.6077 118.982 16.0066L118.699 16.2894C119.394 16.9843 120.354 17.32 121.552 17.32V16.92ZM118.983 16.0074C118.382 15.3996 118.068 14.5207 118.068 13.34H117.669C117.669 14.5913 118.003 15.5844 118.698 16.2886L118.983 16.0074ZM118.068 13.34V8.6H117.669V13.34H118.068ZM117.868 8.8H119.428V8.4H117.868V8.8ZM119.229 8.6V13.28H119.629V8.6H119.229ZM119.229 13.28C119.229 14.1283 119.411 14.8018 119.811 15.2648C120.216 15.7333 120.813 15.952 121.564 15.952V15.552C120.892 15.552 120.421 15.3587 120.114 15.0032C119.802 14.6422 119.629 14.0798 119.629 13.28H119.229ZM121.564 15.952C122.312 15.952 122.906 15.7331 123.309 15.2643C123.707 14.8014 123.888 14.128 123.888 13.28H123.489C123.489 14.08 123.316 14.6426 123.006 15.0037C122.701 15.3589 122.233 15.552 121.564 15.552V15.952ZM123.888 13.28V8.6H123.489V13.28H123.888ZM123.688 8.8H125.225V8.4H123.688V8.8ZM125.024 8.6V13.34H125.424V8.6H125.024ZM125.024 13.34C125.024 14.5207 124.711 15.3996 124.11 16.0074L124.395 16.2886C125.09 15.5844 125.424 14.5913 125.424 13.34H125.024ZM124.11 16.0075C123.517 16.6077 122.674 16.92 121.552 16.92V17.32C122.751 17.32 123.708 16.9843 124.395 16.2885L124.11 16.0075ZM133.361 12.632L133.268 12.4548C133.197 12.4921 133.155 12.5685 133.162 12.6486C133.169 12.7287 133.223 12.797 133.299 12.8221L133.361 12.632ZM134.465 13.4L134.306 13.5206L134.307 13.5223L134.465 13.4ZM134.033 16.412L134.148 16.5759L134.149 16.5747L134.033 16.412ZM127.409 17H127.209C127.209 17.1105 127.299 17.2 127.409 17.2V17ZM127.409 8.6V8.4C127.299 8.4 127.209 8.48954 127.209 8.6H127.409ZM133.637 9.188L133.519 9.34944L133.521 9.35058L133.637 9.188ZM134.153 11.888L133.982 11.7851L134.153 11.888ZM128.969 9.824V9.624C128.859 9.624 128.769 9.71354 128.769 9.824H128.969ZM128.969 12.14H128.769C128.769 12.2505 128.859 12.34 128.969 12.34V12.14ZM132.425 11.852L132.536 12.0184L132.537 12.0177L132.425 11.852ZM132.425 10.124L132.311 10.2884L132.316 10.2918L132.425 10.124ZM128.969 13.352V13.152C128.859 13.152 128.769 13.2415 128.769 13.352H128.969ZM128.969 15.776H128.769C128.769 15.8865 128.859 15.976 128.969 15.976V15.776ZM133.299 12.8221C133.728 12.9625 134.06 13.1958 134.306 13.5206L134.625 13.2794C134.326 12.8842 133.923 12.6055 133.424 12.4419L133.299 12.8221ZM134.307 13.5223C134.547 13.833 134.673 14.2277 134.673 14.72H135.073C135.073 14.1563 134.927 13.671 134.624 13.2777L134.307 13.5223ZM134.673 14.72C134.673 15.3878 134.421 15.8893 133.917 16.2493L134.149 16.5747C134.766 16.1347 135.073 15.5082 135.073 14.72H134.673ZM133.919 16.2482C133.406 16.6067 132.638 16.8 131.585 16.8V17.2C132.677 17.2 133.54 17.0013 134.148 16.5758L133.919 16.2482ZM131.585 16.8H127.409V17.2H131.585V16.8ZM127.609 17V8.6H127.209V17H127.609ZM127.409 8.8H131.345V8.4H127.409V8.8ZM131.345 8.8C132.315 8.8 133.031 8.99213 133.519 9.34943L133.755 9.02657C133.172 8.59987 132.36 8.4 131.345 8.4V8.8ZM133.521 9.35058C134.002 9.69565 134.241 10.1661 134.241 10.784H134.641C134.641 10.0419 134.344 9.44835 133.754 9.02542L133.521 9.35058ZM134.241 10.784C134.241 11.168 134.153 11.4997 133.982 11.7851L134.325 11.9909C134.537 11.6363 134.641 11.232 134.641 10.784H134.241ZM133.982 11.7851C133.809 12.073 133.572 12.2956 133.268 12.4548L133.454 12.8092C133.822 12.6164 134.114 12.343 134.325 11.9909L133.982 11.7851ZM128.769 9.824V12.14H129.169V9.824H128.769ZM128.969 12.34H131.177V11.94H128.969V12.34ZM131.177 12.34C131.74 12.34 132.201 12.2415 132.536 12.0184L132.314 11.6856C132.073 11.8465 131.703 11.94 131.177 11.94V12.34ZM132.537 12.0177C132.892 11.7783 133.069 11.4263 133.069 10.988H132.669C132.669 11.3017 132.551 11.5257 132.313 11.6863L132.537 12.0177ZM133.069 10.988C133.069 10.5434 132.893 10.1888 132.534 9.95621L132.316 10.2918C132.55 10.4432 132.669 10.6646 132.669 10.988H133.069ZM132.539 9.95973C132.204 9.72686 131.741 9.624 131.177 9.624V10.024C131.701 10.024 132.07 10.1211 132.311 10.2883L132.539 9.95973ZM131.177 9.624H128.969V10.024H131.177V9.624ZM131.489 15.976C132.109 15.976 132.609 15.8735 132.959 15.6392C133.324 15.3955 133.501 15.026 133.501 14.564H133.101C133.101 14.91 132.977 15.1465 132.737 15.3068C132.483 15.4765 132.077 15.576 131.489 15.576V15.976ZM133.501 14.564C133.501 14.102 133.324 13.7325 132.959 13.4888C132.609 13.2545 132.109 13.152 131.489 13.152V13.552C132.077 13.552 132.483 13.6515 132.737 13.8212C132.977 13.9815 133.101 14.218 133.101 14.564H133.501ZM131.489 13.152H128.969V13.552H131.489V13.152ZM128.769 13.352V15.776H129.169V13.352H128.769ZM128.969 15.976H131.489V15.576H128.969V15.976ZM142.838 15.692H143.038C143.038 15.5815 142.949 15.492 142.838 15.492V15.692ZM142.838 17V17.2C142.949 17.2 143.038 17.1105 143.038 17H142.838ZM136.538 17H136.338C136.338 17.1105 136.428 17.2 136.538 17.2V17ZM136.538 8.6V8.4C136.428 8.4 136.338 8.48954 136.338 8.6H136.538ZM142.67 8.6H142.87C142.87 8.48954 142.781 8.4 142.67 8.4V8.6ZM142.67 9.908V10.108C142.781 10.108 142.87 10.0185 142.87 9.908H142.67ZM138.098 9.908V9.708C137.988 9.708 137.898 9.79754 137.898 9.908H138.098ZM138.098 12.092H137.898C137.898 12.2025 137.988 12.292 138.098 12.292V12.092ZM142.154 12.092H142.354C142.354 11.9815 142.265 11.892 142.154 11.892V12.092ZM142.154 13.376V13.576C142.265 13.576 142.354 13.4865 142.354 13.376H142.154ZM138.098 13.376V13.176C137.988 13.176 137.898 13.2655 137.898 13.376H138.098ZM138.098 15.692H137.898C137.898 15.8025 137.988 15.892 138.098 15.892V15.692ZM142.638 15.692V17H143.038V15.692H142.638ZM142.838 16.8H136.538V17.2H142.838V16.8ZM136.738 17V8.6H136.338V17H136.738ZM136.538 8.8H142.67V8.4H136.538V8.8ZM142.47 8.6V9.908H142.87V8.6H142.47ZM142.67 9.708H138.098V10.108H142.67V9.708ZM137.898 9.908V12.092H138.298V9.908H137.898ZM138.098 12.292H142.154V11.892H138.098V12.292ZM141.954 12.092V13.376H142.354V12.092H141.954ZM142.154 13.176H138.098V13.576H142.154V13.176ZM137.898 13.376V15.692H138.298V13.376H137.898ZM138.098 15.892H142.838V15.492H138.098V15.892Z" fill="white"/>
</g>
<defs>
<filter id="filter0_d" x="0" y="0" width="159" height="33" filterUnits="userSpaceOnUse" color-interpolation-filters="sRGB">
<feFlood flood-opacity="0" result="BackgroundImageFix"/>
<feColorMatrix in="SourceAlpha" type="matrix" values="0 0 0 0 0 0 0 0 0 0 0 0 0 0 0 0 0 0 127 0"/>
<feOffset dy="4"/>
<feGaussianBlur stdDeviation="2"/>
<feColorMatrix type="matrix" values="0 0 0 0 0 0 0 0 0 0 0 0 0 0 0 0 0 0 0.25 0"/>
<feBlend mode="normal" in2="BackgroundImageFix" result="effect1_dropShadow"/>
<feBlend mode="normal" in="SourceGraphic" in2="effect1_dropShadow" result="shape"/>
</filter>
</defs>
</svg>
